STARTFONT 2.1
COMMENT "Generated by fontforge, http://fontforge.sourceforge.net"
FONT -Baekmuk-Dotum-Medium-R-Normal--12-120-75-75-M-120-ISO10646-1
SIZE 12 75 75
FONTBOUNDINGBOX 14 13 -1 -3
STARTPROPERTIES 22
FOUNDRY "Baekmuk"
FAMILY_NAME "Dotum"
WEIGHT_NAME "Medium"
SLANT "R"
SETWIDTH_NAME "Normal"
ADD_STYLE_NAME ""
PIXEL_SIZE 12
POINT_SIZE 120
RESOLUTION_X 75
RESOLUTION_Y 75
SPACING "M"
AVERAGE_WIDTH 120
CHARSET_REGISTRY "ISO10646"
CHARSET_ENCODING "1"
COPYRIGHT "Copyright (c) Mizi Research, Inc. and Hwan Design, Inc."
WEIGHT 10
RESOLUTION 103
X_HEIGHT -1
QUAD_WIDTH 12
FONT_ASCENT 10
FONT_DESCENT 3
_GBDFED_INFO "Edited with gbdfed 1.6."
ENDPROPERTIES
CHARS 8321
STARTCHAR space
ENCODING 32
SWIDTH 1120 0
DWIDTH 14 0
BBX 0 0 0 0
BITMAP
ENDCHAR
STARTCHAR exclam
ENCODING 33
SWIDTH 1120 0
DWIDTH 14 0
BBX 1 7 2 0
BITMAP
80
80
80
80
80
00
80
ENDCHAR
STARTCHAR quotedbl
ENCODING 34
SWIDTH 1120 0
DWIDTH 14 0
BBX 3 3 1 5
BITMAP
A0
A0
A0
ENDCHAR
STARTCHAR numbersign
ENCODING 35
SWIDTH 1120 0
DWIDTH 14 0
BBX 5 6 0 0
BITMAP
50
F8
50
50
F8
50
ENDCHAR
STARTCHAR dollar
ENCODING 36
SWIDTH 1120 0
DWIDTH 14 0
BBX 5 9 0 -1
BITMAP
20
70
A8
A0
70
28
A8
70
20
ENDCHAR
STARTCHAR percent
ENCODING 37
SWIDTH 1120 0
DWIDTH 14 0
BBX 5 7 0 0
BITMAP
C8
C8
10
20
40
98
98
ENDCHAR
STARTCHAR ampersand
ENCODING 38
SWIDTH 1120 0
DWIDTH 14 0
BBX 5 7 0 0
BITMAP
40
A0
A0
40
A8
90
68
ENDCHAR
STARTCHAR quotesingle
ENCODING 39
SWIDTH 1120 0
DWIDTH 14 0
BBX 1 3 2 5
BITMAP
80
80
80
ENDCHAR
STARTCHAR parenleft
ENCODING 40
SWIDTH 1120 0
DWIDTH 14 0
BBX 3 9 1 -1
BITMAP
20
40
40
80
80
80
40
40
20
ENDCHAR
STARTCHAR parenright
ENCODING 41
SWIDTH 1120 0
DWIDTH 14 0
BBX 3 9 1 -1
BITMAP
80
40
40
20
20
20
40
40
80
ENDCHAR
STARTCHAR asterisk
ENCODING 42
SWIDTH 1120 0
DWIDTH 14 0
BBX 5 7 0 0
BITMAP
20
A8
70
20
70
A8
20
ENDCHAR
STARTCHAR plus
ENCODING 43
SWIDTH 1120 0
DWIDTH 14 0
BBX 5 5 0 1
BITMAP
20
20
F8
20
20
ENDCHAR
STARTCHAR comma
ENCODING 44
SWIDTH 1120 0
DWIDTH 14 0
BBX 3 3 0 -1
BITMAP
60
60
C0
ENDCHAR
STARTCHAR hyphen
ENCODING 45
SWIDTH 1120 0
DWIDTH 14 0
BBX 5 1 0 3
BITMAP
F8
ENDCHAR
STARTCHAR period
ENCODING 46
SWIDTH 1120 0
DWIDTH 14 0
BBX 2 2 1 0
BITMAP
C0
C0
ENDCHAR
STARTCHAR slash
ENCODING 47
SWIDTH 1120 0
DWIDTH 14 0
BBX 5 7 0 0
BITMAP
08
10
10
20
40
40
80
ENDCHAR
STARTCHAR zero
ENCODING 48
SWIDTH 1120 0
DWIDTH 14 0
BBX 4 7 1 0
BITMAP
60
90
90
90
90
90
60
ENDCHAR
STARTCHAR one
ENCODING 49
SWIDTH 1120 0
DWIDTH 14 0
BBX 3 7 1 0
BITMAP
40
C0
40
40
40
40
E0
ENDCHAR
STARTCHAR two
ENCODING 50
SWIDTH 1120 0
DWIDTH 14 0
BBX 5 7 0 0
BITMAP
70
88
08
10
20
40
F8
ENDCHAR
STARTCHAR three
ENCODING 51
SWIDTH 1120 0
DWIDTH 14 0
BBX 5 7 0 0
BITMAP
F8
08
10
30
08
88
70
ENDCHAR
STARTCHAR four
ENCODING 52
SWIDTH 1120 0
DWIDTH 14 0
BBX 5 7 0 0
BITMAP
10
30
50
90
F8
10
10
ENDCHAR
STARTCHAR five
ENCODING 53
SWIDTH 1120 0
DWIDTH 14 0
BBX 5 7 0 0
BITMAP
F8
80
F0
08
08
88
70
ENDCHAR
STARTCHAR six
ENCODING 54
SWIDTH 1120 0
DWIDTH 14 0
BBX 5 7 0 0
BITMAP
30
40
80
F0
88
88
70
ENDCHAR
STARTCHAR seven
ENCODING 55
SWIDTH 1120 0
DWIDTH 14 0
BBX 5 7 0 0
BITMAP
F8
08
10
10
20
20
20
ENDCHAR
STARTCHAR eight
ENCODING 56
SWIDTH 1120 0
DWIDTH 14 0
BBX 5 7 0 0
BITMAP
70
88
88
70
88
88
70
ENDCHAR
STARTCHAR nine
ENCODING 57
SWIDTH 1120 0
DWIDTH 14 0
BBX 5 7 0 0
BITMAP
70
88
88
78
08
10
60
ENDCHAR
STARTCHAR colon
ENCODING 58
SWIDTH 1120 0
DWIDTH 14 0
BBX 2 5 1 0
BITMAP
C0
C0
00
C0
C0
ENDCHAR
STARTCHAR semicolon
ENCODING 59
SWIDTH 1120 0
DWIDTH 14 0
BBX 3 6 0 -1
BITMAP
60
60
00
60
60
C0
ENDCHAR
STARTCHAR less
ENCODING 60
SWIDTH 1120 0
DWIDTH 14 0
BBX 3 5 1 1
BITMAP
20
40
80
40
20
ENDCHAR
STARTCHAR equal
ENCODING 61
SWIDTH 1120 0
DWIDTH 14 0
BBX 5 3 0 2
BITMAP
F8
00
F8
ENDCHAR
STARTCHAR greater
ENCODING 62
SWIDTH 1120 0
DWIDTH 14 0
BBX 3 5 1 1
BITMAP
80
40
20
40
80
ENDCHAR
STARTCHAR question
ENCODING 63
SWIDTH 1120 0
DWIDTH 14 0
BBX 5 7 0 0
BITMAP
70
88
10
20
20
00
20
ENDCHAR
STARTCHAR at
ENCODING 64
SWIDTH 1120 0
DWIDTH 14 0
BBX 5 7 0 0
BITMAP
70
88
B8
A8
B8
80
70
ENDCHAR
STARTCHAR A
ENCODING 65
SWIDTH 1120 0
DWIDTH 14 0
BBX 5 7 0 0
BITMAP
70
88
88
F8
88
88
88
ENDCHAR
STARTCHAR B
ENCODING 66
SWIDTH 1120 0
DWIDTH 14 0
BBX 5 7 0 0
BITMAP
F0
48
48
70
48
48
F0
ENDCHAR
STARTCHAR C
ENCODING 67
SWIDTH 1120 0
DWIDTH 14 0
BBX 5 7 0 0
BITMAP
70
88
80
80
80
88
70
ENDCHAR
STARTCHAR D
ENCODING 68
SWIDTH 1120 0
DWIDTH 14 0
BBX 5 7 0 0
BITMAP
F0
48
48
48
48
48
F0
ENDCHAR
STARTCHAR E
ENCODING 69
SWIDTH 1120 0
DWIDTH 14 0
BBX 5 7 0 0
BITMAP
F8
80
80
F0
80
80
F8
ENDCHAR
STARTCHAR F
ENCODING 70
SWIDTH 1120 0
DWIDTH 14 0
BBX 5 7 0 0
BITMAP
F8
80
80
F0
80
80
80
ENDCHAR
STARTCHAR G
ENCODING 71
SWIDTH 1120 0
DWIDTH 14 0
BBX 5 7 0 0
BITMAP
70
88
80
80
98
88
70
ENDCHAR
STARTCHAR H
ENCODING 72
SWIDTH 1120 0
DWIDTH 14 0
BBX 5 7 0 0
BITMAP
88
88
88
F8
88
88
88
ENDCHAR
STARTCHAR I
ENCODING 73
SWIDTH 1120 0
DWIDTH 14 0
BBX 3 7 1 0
BITMAP
E0
40
40
40
40
40
E0
ENDCHAR
STARTCHAR J
ENCODING 74
SWIDTH 1120 0
DWIDTH 14 0
BBX 5 7 0 0
BITMAP
38
10
10
10
10
90
60
ENDCHAR
STARTCHAR K
ENCODING 75
SWIDTH 1120 0
DWIDTH 14 0
BBX 5 7 0 0
BITMAP
88
90
A0
C0
A0
90
88
ENDCHAR
STARTCHAR L
ENCODING 76
SWIDTH 1120 0
DWIDTH 14 0
BBX 5 7 0 0
BITMAP
80
80
80
80
80
80
F8
ENDCHAR
STARTCHAR M
ENCODING 77
SWIDTH 1120 0
DWIDTH 14 0
BBX 5 7 0 0
BITMAP
88
D8
A8
88
88
88
88
ENDCHAR
STARTCHAR N
ENCODING 78
SWIDTH 1120 0
DWIDTH 14 0
BBX 5 7 0 0
BITMAP
88
88
C8
A8
98
88
88
ENDCHAR
STARTCHAR O
ENCODING 79
SWIDTH 1120 0
DWIDTH 14 0
BBX 5 7 0 0
BITMAP
70
88
88
88
88
88
70
ENDCHAR
STARTCHAR P
ENCODING 80
SWIDTH 1120 0
DWIDTH 14 0
BBX 5 7 0 0
BITMAP
F0
88
88
F0
80
80
80
ENDCHAR
STARTCHAR Q
ENCODING 81
SWIDTH 1120 0
DWIDTH 14 0
BBX 5 7 0 0
BITMAP
70
88
88
88
A8
90
68
ENDCHAR
STARTCHAR R
ENCODING 82
SWIDTH 1120 0
DWIDTH 14 0
BBX 5 7 0 0
BITMAP
F0
88
88
F0
A0
90
88
ENDCHAR
STARTCHAR S
ENCODING 83
SWIDTH 1120 0
DWIDTH 14 0
BBX 5 7 0 0
BITMAP
70
88
80
70
08
88
70
ENDCHAR
STARTCHAR T
ENCODING 84
SWIDTH 1120 0
DWIDTH 14 0
BBX 5 7 0 0
BITMAP
F8
20
20
20
20
20
20
ENDCHAR
STARTCHAR U
ENCODING 85
SWIDTH 1120 0
DWIDTH 14 0
BBX 5 7 0 0
BITMAP
88
88
88
88
88
88
70
ENDCHAR
STARTCHAR V
ENCODING 86
SWIDTH 1120 0
DWIDTH 14 0
BBX 5 7 0 0
BITMAP
88
88
88
88
50
50
20
ENDCHAR
STARTCHAR W
ENCODING 87
SWIDTH 1120 0
DWIDTH 14 0
BBX 5 7 0 0
BITMAP
88
88
88
88
A8
A8
50
ENDCHAR
STARTCHAR X
ENCODING 88
SWIDTH 1120 0
DWIDTH 14 0
BBX 5 7 0 0
BITMAP
88
88
50
20
50
88
88
ENDCHAR
STARTCHAR Y
ENCODING 89
SWIDTH 1120 0
DWIDTH 14 0
BBX 5 7 0 0
BITMAP
88
88
50
20
20
20
20
ENDCHAR
STARTCHAR Z
ENCODING 90
SWIDTH 1120 0
DWIDTH 14 0
BBX 5 7 0 0
BITMAP
F8
08
10
20
40
80
F8
ENDCHAR
STARTCHAR bracketleft
ENCODING 91
SWIDTH 1120 0
DWIDTH 14 0
BBX 3 9 1 -1
BITMAP
E0
80
80
80
80
80
80
80
E0
ENDCHAR
STARTCHAR backslash
ENCODING 92
SWIDTH 1120 0
DWIDTH 14 0
BBX 5 7 0 0
BITMAP
80
40
40
20
10
10
08
ENDCHAR
STARTCHAR bracketright
ENCODING 93
SWIDTH 1120 0
DWIDTH 14 0
BBX 3 9 1 -1
BITMAP
E0
20
20
20
20
20
20
20
E0
ENDCHAR
STARTCHAR asciicircum
ENCODING 94
SWIDTH 1120 0
DWIDTH 14 0
BBX 5 3 0 5
BITMAP
20
50
88
ENDCHAR
STARTCHAR underscore
ENCODING 95
SWIDTH 1120 0
DWIDTH 14 0
BBX 5 1 0 -2
BITMAP
F8
ENDCHAR
STARTCHAR grave
ENCODING 96
SWIDTH 1120 0
DWIDTH 14 0
BBX 3 3 1 5
BITMAP
80
40
20
ENDCHAR
STARTCHAR a
ENCODING 97
SWIDTH 1120 0
DWIDTH 14 0
BBX 5 5 0 0
BITMAP
70
08
78
88
78
ENDCHAR
STARTCHAR b
ENCODING 98
SWIDTH 1120 0
DWIDTH 14 0
BBX 5 7 0 0
BITMAP
80
80
F0
88
88
88
F0
ENDCHAR
STARTCHAR c
ENCODING 99
SWIDTH 1120 0
DWIDTH 14 0
BBX 5 5 0 0
BITMAP
70
88
80
88
70
ENDCHAR
STARTCHAR d
ENCODING 100
SWIDTH 1120 0
DWIDTH 14 0
BBX 5 7 0 0
BITMAP
08
08
78
88
88
88
78
ENDCHAR
STARTCHAR e
ENCODING 101
SWIDTH 1120 0
DWIDTH 14 0
BBX 5 5 0 0
BITMAP
70
88
F0
80
70
ENDCHAR
STARTCHAR f
ENCODING 102
SWIDTH 1120 0
DWIDTH 14 0
BBX 5 7 0 0
BITMAP
30
48
40
E0
40
40
40
ENDCHAR
STARTCHAR g
ENCODING 103
SWIDTH 1120 0
DWIDTH 14 0
BBX 5 7 0 -2
BITMAP
70
88
88
88
78
08
70
ENDCHAR
STARTCHAR h
ENCODING 104
SWIDTH 1120 0
DWIDTH 14 0
BBX 5 7 0 0
BITMAP
80
80
F0
88
88
88
88
ENDCHAR
STARTCHAR i
ENCODING 105
SWIDTH 1120 0
DWIDTH 14 0
BBX 3 7 1 0
BITMAP
40
00
C0
40
40
40
E0
ENDCHAR
STARTCHAR j
ENCODING 106
SWIDTH 1120 0
DWIDTH 14 0
BBX 4 9 1 -2
BITMAP
10
00
30
10
10
10
10
90
60
ENDCHAR
STARTCHAR k
ENCODING 107
SWIDTH 1120 0
DWIDTH 14 0
BBX 5 7 0 0
BITMAP
80
80
88
90
E0
90
88
ENDCHAR
STARTCHAR l
ENCODING 108
SWIDTH 1120 0
DWIDTH 14 0
BBX 3 7 1 0
BITMAP
C0
40
40
40
40
40
E0
ENDCHAR
STARTCHAR m
ENCODING 109
SWIDTH 1120 0
DWIDTH 14 0
BBX 5 5 0 0
BITMAP
D0
A8
A8
A8
A8
ENDCHAR
STARTCHAR n
ENCODING 110
SWIDTH 1120 0
DWIDTH 14 0
BBX 5 5 0 0
BITMAP
B0
C8
88
88
88
ENDCHAR
STARTCHAR o
ENCODING 111
SWIDTH 1120 0
DWIDTH 14 0
BBX 5 5 0 0
BITMAP
70
88
88
88
70
ENDCHAR
STARTCHAR p
ENCODING 112
SWIDTH 1120 0
DWIDTH 14 0
BBX 5 7 0 -2
BITMAP
F0
88
88
88
F0
80
80
ENDCHAR
STARTCHAR q
ENCODING 113
SWIDTH 1120 0
DWIDTH 14 0
BBX 5 7 0 -2
BITMAP
78
88
88
88
78
08
08
ENDCHAR
STARTCHAR r
ENCODING 114
SWIDTH 1120 0
DWIDTH 14 0
BBX 5 5 0 0
BITMAP
B0
C8
80
80
80
ENDCHAR
STARTCHAR s
ENCODING 115
SWIDTH 1120 0
DWIDTH 14 0
BBX 5 5 0 0
BITMAP
78
80
70
08
F0
ENDCHAR
STARTCHAR t
ENCODING 116
SWIDTH 1120 0
DWIDTH 14 0
BBX 5 7 0 0
BITMAP
20
20
F8
20
20
20
18
ENDCHAR
STARTCHAR u
ENCODING 117
SWIDTH 1120 0
DWIDTH 14 0
BBX 5 5 0 0
BITMAP
88
88
88
98
68
ENDCHAR
STARTCHAR v
ENCODING 118
SWIDTH 1120 0
DWIDTH 14 0
BBX 5 5 0 0
BITMAP
88
88
88
50
20
ENDCHAR
STARTCHAR w
ENCODING 119
SWIDTH 1120 0
DWIDTH 14 0
BBX 5 5 0 0
BITMAP
88
88
A8
A8
50
ENDCHAR
STARTCHAR x
ENCODING 120
SWIDTH 1120 0
DWIDTH 14 0
BBX 5 5 0 0
BITMAP
88
50
20
50
88
ENDCHAR
STARTCHAR y
ENCODING 121
SWIDTH 1120 0
DWIDTH 14 0
BBX 5 7 0 -2
BITMAP
88
88
88
50
20
40
80
ENDCHAR
STARTCHAR z
ENCODING 122
SWIDTH 1120 0
DWIDTH 14 0
BBX 5 5 0 0
BITMAP
F8
10
20
40
F8
ENDCHAR
STARTCHAR braceleft
ENCODING 123
SWIDTH 1120 0
DWIDTH 14 0
BBX 3 9 1 -1
BITMAP
20
40
40
40
80
40
40
40
20
ENDCHAR
STARTCHAR bar
ENCODING 124
SWIDTH 1120 0
DWIDTH 14 0
BBX 1 9 2 -1
BITMAP
80
80
80
80
80
80
80
80
80
ENDCHAR
STARTCHAR braceright
ENCODING 125
SWIDTH 1120 0
DWIDTH 14 0
BBX 3 9 1 -1
BITMAP
80
40
40
40
20
40
40
40
80
ENDCHAR
STARTCHAR asciitilde
ENCODING 126
SWIDTH 1120 0
DWIDTH 14 0
BBX 5 3 0 2
BITMAP
48
A8
90
ENDCHAR
STARTCHAR exclamdown
ENCODING 161
SWIDTH 1120 0
DWIDTH 14 0
BBX 2 9 5 -1
BITMAP
C0
00
00
00
80
80
80
C0
C0
ENDCHAR
STARTCHAR currency
ENCODING 164
SWIDTH 1120 0
DWIDTH 14 0
BBX 7 8 2 -1
BITMAP
FE
82
82
82
82
82
66
98
ENDCHAR
STARTCHAR section
ENCODING 167
SWIDTH 1120 0
DWIDTH 14 0
BBX 4 11 4 -2
BITMAP
E0
90
80
60
B0
90
D0
20
10
90
70
ENDCHAR
STARTCHAR dieresis
ENCODING 168
SWIDTH 1120 0
DWIDTH 14 0
BBX 4 1 4 8
BITMAP
90
ENDCHAR
STARTCHAR ordfeminine
ENCODING 170
SWIDTH 1120 0
DWIDTH 14 0
BBX 6 8 3 0
BITMAP
30
48
08
78
88
88
70
FC
ENDCHAR
STARTCHAR uni00AD
ENCODING 173
SWIDTH 1120 0
DWIDTH 14 0
BBX 6 1 3 3
BITMAP
FC
ENDCHAR
STARTCHAR registered
ENCODING 174
SWIDTH 1120 0
DWIDTH 14 0
BBX 8 10 1 -1
BITMAP
3C
42
B9
A5
A5
B9
A5
A5
42
3C
ENDCHAR
STARTCHAR degree
ENCODING 176
SWIDTH 1120 0
DWIDTH 14 0
BBX 4 4 4 6
BITMAP
60
90
90
60
ENDCHAR
STARTCHAR plusminus
ENCODING 177
SWIDTH 1120 0
DWIDTH 14 0
BBX 8 8 2 0
BITMAP
10
10
10
FF
10
10
10
FF
ENDCHAR
STARTCHAR uni00B2
ENCODING 178
SWIDTH 1120 0
DWIDTH 14 0
BBX 4 5 4 4
BITMAP
70
10
20
C0
F0
ENDCHAR
STARTCHAR uni00B3
ENCODING 179
SWIDTH 1120 0
DWIDTH 14 0
BBX 3 6 5 3
BITMAP
C0
40
40
20
40
80
ENDCHAR
STARTCHAR acute
ENCODING 180
SWIDTH 1120 0
DWIDTH 14 0
BBX 1 1 5 8
BITMAP
80
ENDCHAR
STARTCHAR paragraph
ENCODING 182
SWIDTH 1120 0
DWIDTH 14 0
BBX 8 11 2 -2
BITMAP
01
F9
89
89
79
09
09
09
09
09
09
ENDCHAR
STARTCHAR periodcentered
ENCODING 183
SWIDTH 1120 0
DWIDTH 14 0
BBX 2 2 5 3
BITMAP
C0
C0
ENDCHAR
STARTCHAR cedilla
ENCODING 184
SWIDTH 1120 0
DWIDTH 14 0
BBX 1 2 6 -2
BITMAP
80
80
ENDCHAR
STARTCHAR uni00B9
ENCODING 185
SWIDTH 1120 0
DWIDTH 14 0
BBX 1 5 6 4
BITMAP
80
80
80
80
80
ENDCHAR
STARTCHAR ordmasculine
ENCODING 186
SWIDTH 1120 0
DWIDTH 14 0
BBX 6 8 3 0
BITMAP
78
CC
84
84
84
CC
78
FC
ENDCHAR
STARTCHAR onequarter
ENCODING 188
SWIDTH 1120 0
DWIDTH 14 0
BBX 6 9 3 -1
BITMAP
80
80
88
90
A4
3C
54
4C
04
ENDCHAR
STARTCHAR onehalf
ENCODING 189
SWIDTH 1120 0
DWIDTH 14 0
BBX 8 9 2 -1
BITMAP
44
C8
48
56
59
61
26
48
4F
ENDCHAR
STARTCHAR threequarters
ENCODING 190
SWIDTH 1120 0
DWIDTH 14 0
BBX 9 9 2 -1
BITMAP
E000
2200
4400
2400
2900
5700
1500
2780
2100
ENDCHAR
STARTCHAR questiondown
ENCODING 191
SWIDTH 1120 0
DWIDTH 14 0
BBX 4 9 4 -1
BITMAP
20
00
00
20
20
C0
80
80
70
ENDCHAR
STARTCHAR AE
ENCODING 198
SWIDTH 1120 0
DWIDTH 14 0
BBX 11 9 1 0
BITMAP
0FE0
1400
1400
2400
27C0
7C00
4400
8400
87E0
ENDCHAR
STARTCHAR Eth
ENCODING 208
SWIDTH 1120 0
DWIDTH 14 0
BBX 9 9 1 0
BITMAP
3E00
2100
2080
2080
F880
2080
2080
2100
3E00
ENDCHAR
STARTCHAR multiply
ENCODING 215
SWIDTH 1120 0
DWIDTH 14 0
BBX 8 7 2 0
BITMAP
81
46
28
10
28
44
82
ENDCHAR
STARTCHAR Oslash
ENCODING 216
SWIDTH 1120 0
DWIDTH 14 0
BBX 8 10 2 -1
BITMAP
1D
62
82
85
89
91
A1
42
66
98
ENDCHAR
STARTCHAR Thorn
ENCODING 222
SWIDTH 1120 0
DWIDTH 14 0
BBX 6 8 3 0
BITMAP
80
80
FC
84
84
F8
80
80
ENDCHAR
STARTCHAR germandbls
ENCODING 223
SWIDTH 1120 0
DWIDTH 14 0
BBX 6 9 3 0
BITMAP
20
58
88
88
90
8C
84
84
08
ENDCHAR
STARTCHAR ae
ENCODING 230
SWIDTH 1120 0
DWIDTH 14 0
BBX 10 6 1 0
BITMAP
3F80
4880
7FC0
8800
8800
5780
ENDCHAR
STARTCHAR eth
ENCODING 240
SWIDTH 1120 0
DWIDTH 14 0
BBX 6 9 3 0
BITMAP
28
10
08
08
7C
84
84
84
48
ENDCHAR
STARTCHAR divide
ENCODING 247
SWIDTH 1120 0
DWIDTH 14 0
BBX 8 7 2 0
BITMAP
10
00
00
FF
00
00
10
ENDCHAR
STARTCHAR oslash
ENCODING 248
SWIDTH 1120 0
DWIDTH 14 0
BBX 6 6 3 0
BITMAP
34
C8
94
A4
44
F8
ENDCHAR
STARTCHAR thorn
ENCODING 254
SWIDTH 1120 0
DWIDTH 14 0
BBX 6 9 3 -1
BITMAP
80
80
B8
CC
84
84
84
C8
B0
ENDCHAR
STARTCHAR dcroat
ENCODING 273
SWIDTH 1120 0
DWIDTH 14 0
BBX 7 9 2 -1
BITMAP
1E
04
7C
84
84
84
84
5C
20
ENDCHAR
STARTCHAR Hbar
ENCODING 294
SWIDTH 1120 0
DWIDTH 14 0
BBX 8 8 2 0
BITMAP
42
FF
42
7E
42
42
42
42
ENDCHAR
STARTCHAR hbar
ENCODING 295
SWIDTH 1120 0
DWIDTH 14 0
BBX 6 8 3 0
BITMAP
F0
40
7C
44
44
44
44
44
ENDCHAR
STARTCHAR dotlessi
ENCODING 305
SWIDTH 1120 0
DWIDTH 14 0
BBX 1 6 6 0
BITMAP
80
80
80
80
80
80
ENDCHAR
STARTCHAR IJ
ENCODING 306
SWIDTH 1120 0
DWIDTH 14 0
BBX 6 8 3 0
BITMAP
84
84
84
84
84
C4
C4
B8
ENDCHAR
STARTCHAR ij
ENCODING 307
SWIDTH 1120 0
DWIDTH 14 0
BBX 4 10 4 -2
BITMAP
90
00
90
90
90
90
90
90
10
30
ENDCHAR
STARTCHAR kgreenlandic
ENCODING 312
SWIDTH 1120 0
DWIDTH 14 0
BBX 5 6 3 0
BITMAP
90
A0
E0
A0
90
88
ENDCHAR
STARTCHAR Ldot
ENCODING 319
SWIDTH 1120 0
DWIDTH 14 0
BBX 6 8 3 0
BITMAP
80
80
80
90
80
80
80
FC
ENDCHAR
STARTCHAR ldot
ENCODING 320
SWIDTH 1120 0
DWIDTH 14 0
BBX 4 8 4 0
BITMAP
80
80
80
90
80
80
80
80
ENDCHAR
STARTCHAR Lslash
ENCODING 321
SWIDTH 1120 0
DWIDTH 14 0
BBX 8 8 2 0
BITMAP
20
28
30
20
60
A0
20
3F
ENDCHAR
STARTCHAR lslash
ENCODING 322
SWIDTH 1120 0
DWIDTH 14 0
BBX 5 8 4 0
BITMAP
20
28
30
20
20
E0
A0
20
ENDCHAR
STARTCHAR napostrophe
ENCODING 329
SWIDTH 1120 0
DWIDTH 14 0
BBX 7 7 3 0
BITMAP
80
BE
22
22
22
22
22
ENDCHAR
STARTCHAR Eng
ENCODING 330
SWIDTH 1120 0
DWIDTH 14 0
BBX 6 9 3 0
BITMAP
B8
C4
84
84
84
84
84
84
18
ENDCHAR
STARTCHAR eng
ENCODING 331
SWIDTH 1120 0
DWIDTH 14 0
BBX 5 8 3 -2
BITMAP
78
88
88
88
88
08
08
18
ENDCHAR
STARTCHAR OE
ENCODING 338
SWIDTH 1120 0
DWIDTH 14 0
BBX 12 9 0 0
BITMAP
3FF0
4200
8200
8200
83E0
8200
8200
4200
27F0
ENDCHAR
STARTCHAR oe
ENCODING 339
SWIDTH 1120 0
DWIDTH 14 0
BBX 10 7 1 -1
BITMAP
7780
CC40
87C0
8800
8440
5B80
2000
ENDCHAR
STARTCHAR Tbar
ENCODING 358
SWIDTH 1120 0
DWIDTH 14 0
BBX 7 8 2 0
BITMAP
FE
10
10
10
7C
10
10
10
ENDCHAR
STARTCHAR tbar
ENCODING 359
SWIDTH 1120 0
DWIDTH 14 0
BBX 3 8 4 0
BITMAP
40
40
E0
E0
40
40
40
40
ENDCHAR
STARTCHAR caron
ENCODING 711
SWIDTH 1120 0
DWIDTH 14 0
BBX 2 1 5 8
BITMAP
C0
ENDCHAR
STARTCHAR uni02D0
ENCODING 720
SWIDTH 1120 0
DWIDTH 14 0
BBX 2 5 5 1
BITMAP
C0
00
00
00
C0
ENDCHAR
STARTCHAR breve
ENCODING 728
SWIDTH 1120 0
DWIDTH 14 0
BBX 3 1 4 7
BITMAP
E0
ENDCHAR
STARTCHAR dotaccent
ENCODING 729
SWIDTH 1120 0
DWIDTH 14 0
BBX 1 2 5 8
BITMAP
80
80
ENDCHAR
STARTCHAR ring
ENCODING 730
SWIDTH 1120 0
DWIDTH 14 0
BBX 3 3 4 6
BITMAP
60
A0
40
ENDCHAR
STARTCHAR ogonek
ENCODING 731
SWIDTH 1120 0
DWIDTH 14 0
BBX 2 2 5 -2
BITMAP
80
C0
ENDCHAR
STARTCHAR hungarumlaut
ENCODING 733
SWIDTH 1120 0
DWIDTH 14 0
BBX 0 0 0 0
BITMAP
ENDCHAR
STARTCHAR Alpha
ENCODING 913
SWIDTH 1120 0
DWIDTH 14 0
BBX 7 8 3 0
BITMAP
04
1C
14
24
42
7E
82
02
ENDCHAR
STARTCHAR Beta
ENCODING 914
SWIDTH 1120 0
DWIDTH 14 0
BBX 8 9 2 0
BITMAP
1E
21
21
22
3C
42
42
84
FC
ENDCHAR
STARTCHAR Gamma
ENCODING 915
SWIDTH 1120 0
DWIDTH 14 0
BBX 6 8 3 1
BITMAP
3C
40
40
40
40
80
80
80
ENDCHAR
STARTCHAR Delta
ENCODING 916
SWIDTH 1120 0
DWIDTH 14 0
BBX 8 8 3 0
BITMAP
02
0E
12
22
22
43
83
FF
ENDCHAR
STARTCHAR Epsilon
ENCODING 917
SWIDTH 1120 0
DWIDTH 14 0
BBX 8 9 2 0
BITMAP
1F
20
20
20
3C
40
40
80
F8
ENDCHAR
STARTCHAR Zeta
ENCODING 918
SWIDTH 1120 0
DWIDTH 14 0
BBX 8 9 2 0
BITMAP
3F
02
04
08
10
20
40
80
FC
ENDCHAR
STARTCHAR Eta
ENCODING 919
SWIDTH 1120 0
DWIDTH 14 0
BBX 8 8 2 0
BITMAP
21
41
41
7E
82
82
84
84
ENDCHAR
STARTCHAR Theta
ENCODING 920
SWIDTH 1120 0
DWIDTH 14 0
BBX 8 8 2 0
BITMAP
3E
41
41
BD
82
82
84
78
ENDCHAR
STARTCHAR Iota
ENCODING 921
SWIDTH 1120 0
DWIDTH 14 0
BBX 4 8 4 0
BITMAP
10
20
20
20
40
40
40
80
ENDCHAR
STARTCHAR Kappa
ENCODING 922
SWIDTH 1120 0
DWIDTH 14 0
BBX 7 8 2 0
BITMAP
20
26
48
70
60
90
88
84
ENDCHAR
STARTCHAR Lambda
ENCODING 923
SWIDTH 1120 0
DWIDTH 14 0
BBX 8 8 2 0
BITMAP
04
0C
12
22
22
42
82
81
ENDCHAR
STARTCHAR Mu
ENCODING 924
SWIDTH 1120 0
DWIDTH 14 0
BBX 12 8 0 0
BITMAP
1830
2850
2860
48A0
4920
4940
8A40
8C40
ENDCHAR
STARTCHAR Nu
ENCODING 925
SWIDTH 1120 0
DWIDTH 14 0
BBX 8 8 2 0
BITMAP
20
51
51
52
92
8A
8C
04
ENDCHAR
STARTCHAR Xi
ENCODING 926
SWIDTH 1120 0
DWIDTH 14 0
BBX 8 9 2 0
BITMAP
1F
00
00
00
3C
00
00
00
FC
ENDCHAR
STARTCHAR Omicron
ENCODING 927
SWIDTH 1120 0
DWIDTH 14 0
BBX 8 8 2 0
BITMAP
3E
41
41
81
82
82
84
78
ENDCHAR
STARTCHAR Pi
ENCODING 928
SWIDTH 1120 0
DWIDTH 14 0
BBX 8 9 2 0
BITMAP
3F
21
41
42
42
82
84
84
84
ENDCHAR
STARTCHAR Rho
ENCODING 929
SWIDTH 1120 0
DWIDTH 14 0
BBX 8 9 2 0
BITMAP
1E
21
21
21
42
7E
40
80
80
ENDCHAR
STARTCHAR Sigma
ENCODING 931
SWIDTH 1120 0
DWIDTH 14 0
BBX 8 9 2 0
BITMAP
3F
20
10
08
08
10
20
C0
FC
ENDCHAR
STARTCHAR Tau
ENCODING 932
SWIDTH 1120 0
DWIDTH 14 0
BBX 6 9 3 0
BITMAP
FC
20
20
20
40
40
40
40
80
ENDCHAR
STARTCHAR Upsilon
ENCODING 933
SWIDTH 1120 0
DWIDTH 14 0
BBX 6 7 3 1
BITMAP
04
88
90
50
60
40
40
ENDCHAR
STARTCHAR Phi
ENCODING 934
SWIDTH 1120 0
DWIDTH 14 0
BBX 8 7 2 0
BITMAP
7E
89
91
91
92
64
38
ENDCHAR
STARTCHAR Chi
ENCODING 935
SWIDTH 1120 0
DWIDTH 14 0
BBX 8 8 2 0
BITMAP
21
22
14
18
18
28
44
80
ENDCHAR
STARTCHAR Psi
ENCODING 936
SWIDTH 1120 0
DWIDTH 14 0
BBX 9 7 1 1
BITMAP
4480
4880
8900
8900
9100
7E00
1000
ENDCHAR
STARTCHAR Omega
ENCODING 937
SWIDTH 1120 0
DWIDTH 14 0
BBX 8 9 2 0
BITMAP
1E
21
41
41
41
42
42
2C
EE
ENDCHAR
STARTCHAR alpha
ENCODING 945
SWIDTH 1120 0
DWIDTH 14 0
BBX 6 6 3 0
BITMAP
34
4C
88
88
88
F8
ENDCHAR
STARTCHAR beta
ENCODING 946
SWIDTH 1120 0
DWIDTH 14 0
BBX 7 11 3 -2
BITMAP
1C
12
22
24
4C
44
44
84
C8
B0
80
ENDCHAR
STARTCHAR gamma
ENCODING 947
SWIDTH 1120 0
DWIDTH 14 0
BBX 5 8 3 -2
BITMAP
80
88
90
60
60
40
40
40
ENDCHAR
STARTCHAR delta
ENCODING 948
SWIDTH 1120 0
DWIDTH 14 0
BBX 7 9 2 0
BITMAP
1E
10
08
3C
44
44
84
88
50
ENDCHAR
STARTCHAR epsilon
ENCODING 949
SWIDTH 1120 0
DWIDTH 14 0
BBX 6 7 3 -1
BITMAP
3C
40
20
50
80
40
20
ENDCHAR
STARTCHAR zeta
ENCODING 950
SWIDTH 1120 0
DWIDTH 14 0
BBX 6 11 3 -2
BITMAP
3C
08
10
20
40
40
80
80
60
10
60
ENDCHAR
STARTCHAR eta
ENCODING 951
SWIDTH 1120 0
DWIDTH 14 0
BBX 6 6 3 0
BITMAP
1C
64
44
84
88
88
ENDCHAR
STARTCHAR theta
ENCODING 952
SWIDTH 1120 0
DWIDTH 14 0
BBX 6 9 3 0
BITMAP
18
24
44
44
FC
88
88
90
A0
ENDCHAR
STARTCHAR iota
ENCODING 953
SWIDTH 1120 0
DWIDTH 14 0
BBX 2 6 5 0
BITMAP
40
40
40
80
80
80
ENDCHAR
STARTCHAR kappa
ENCODING 954
SWIDTH 1120 0
DWIDTH 14 0
BBX 6 6 3 0
BITMAP
04
58
60
A0
90
88
ENDCHAR
STARTCHAR lambda
ENCODING 955
SWIDTH 1120 0
DWIDTH 14 0
BBX 5 7 4 0
BITMAP
10
10
30
50
50
90
08
ENDCHAR
STARTCHAR mu
ENCODING 956
SWIDTH 1120 0
DWIDTH 14 0
BBX 6 7 3 -1
BITMAP
20
44
44
44
48
B0
80
ENDCHAR
STARTCHAR nu
ENCODING 957
SWIDTH 1120 0
DWIDTH 14 0
BBX 6 6 3 0
BITMAP
84
88
90
50
60
40
ENDCHAR
STARTCHAR xi
ENCODING 958
SWIDTH 1120 0
DWIDTH 14 0
BBX 6 11 3 -2
BITMAP
3C
10
20
20
30
C0
80
80
E0
10
20
ENDCHAR
STARTCHAR omicron
ENCODING 959
SWIDTH 1120 0
DWIDTH 14 0
BBX 6 7 3 -1
BITMAP
38
44
84
84
88
D0
20
ENDCHAR
STARTCHAR pi
ENCODING 960
SWIDTH 1120 0
DWIDTH 14 0
BBX 6 6 3 0
BITMAP
3C
44
48
88
88
88
ENDCHAR
STARTCHAR rho
ENCODING 961
SWIDTH 1120 0
DWIDTH 14 0
BBX 6 8 3 -2
BITMAP
3C
24
44
44
44
A8
90
80
ENDCHAR
STARTCHAR sigma
ENCODING 963
SWIDTH 1120 0
DWIDTH 14 0
BBX 6 7 3 -1
BITMAP
3C
48
88
88
88
90
60
ENDCHAR
STARTCHAR tau
ENCODING 964
SWIDTH 1120 0
DWIDTH 14 0
BBX 5 6 4 0
BITMAP
F8
40
40
40
80
80
ENDCHAR
STARTCHAR upsilon
ENCODING 965
SWIDTH 1120 0
DWIDTH 14 0
BBX 6 6 3 0
BITMAP
44
48
88
88
88
70
ENDCHAR
STARTCHAR phi
ENCODING 966
SWIDTH 1120 0
DWIDTH 14 0
BBX 8 8 2 -2
BITMAP
2E
49
92
92
94
78
20
20
ENDCHAR
STARTCHAR chi
ENCODING 967
SWIDTH 1120 0
DWIDTH 14 0
BBX 6 6 3 0
BITMAP
04
28
10
30
50
88
ENDCHAR
STARTCHAR psi
ENCODING 968
SWIDTH 1120 0
DWIDTH 14 0
BBX 8 7 2 -1
BITMAP
49
92
92
92
A4
78
20
ENDCHAR
STARTCHAR omega
ENCODING 969
SWIDTH 1120 0
DWIDTH 14 0
BBX 7 6 2 0
BITMAP
20
4A
52
92
92
6C
ENDCHAR
STARTCHAR afii10023
ENCODING 1025
SWIDTH 1120 0
DWIDTH 14 0
BBX 6 9 3 0
BITMAP
48
FC
80
80
80
F8
80
80
FC
ENDCHAR
STARTCHAR afii10017
ENCODING 1040
SWIDTH 1120 0
DWIDTH 14 0
BBX 7 9 2 -1
BITMAP
18
18
28
24
24
3E
42
40
80
ENDCHAR
STARTCHAR afii10018
ENCODING 1041
SWIDTH 1120 0
DWIDTH 14 0
BBX 6 8 3 0
BITMAP
F8
80
80
80
FC
84
84
F8
ENDCHAR
STARTCHAR afii10019
ENCODING 1042
SWIDTH 1120 0
DWIDTH 14 0
BBX 6 8 3 0
BITMAP
F8
84
88
F0
8C
84
84
F8
ENDCHAR
STARTCHAR afii10020
ENCODING 1043
SWIDTH 1120 0
DWIDTH 14 0
BBX 5 9 3 0
BITMAP
F8
80
80
80
80
80
80
80
80
ENDCHAR
STARTCHAR afii10021
ENCODING 1044
SWIDTH 1120 0
DWIDTH 14 0
BBX 8 11 2 -2
BITMAP
7E
42
42
42
42
42
42
42
FF
81
81
ENDCHAR
STARTCHAR afii10022
ENCODING 1045
SWIDTH 1120 0
DWIDTH 14 0
BBX 6 9 3 0
BITMAP
FC
80
80
80
F8
80
80
80
FC
ENDCHAR
STARTCHAR afii10024
ENCODING 1046
SWIDTH 1120 0
DWIDTH 14 0
BBX 9 8 1 0
BITMAP
4900
4900
4A00
3E00
C980
8880
8880
8880
ENDCHAR
STARTCHAR afii10025
ENCODING 1047
SWIDTH 1120 0
DWIDTH 14 0
BBX 7 9 2 0
BITMAP
38
44
82
04
1C
02
82
42
3C
ENDCHAR
STARTCHAR afii10026
ENCODING 1048
SWIDTH 1120 0
DWIDTH 14 0
BBX 6 8 3 0
BITMAP
84
8C
94
A4
A4
C4
C4
84
ENDCHAR
STARTCHAR afii10027
ENCODING 1049
SWIDTH 1120 0
DWIDTH 14 0
BBX 6 9 3 0
BITMAP
78
00
84
9C
94
A4
C4
C4
84
ENDCHAR
STARTCHAR afii10028
ENCODING 1050
SWIDTH 1120 0
DWIDTH 14 0
BBX 6 9 3 0
BITMAP
04
88
88
90
F8
84
84
84
84
ENDCHAR
STARTCHAR afii10029
ENCODING 1051
SWIDTH 1120 0
DWIDTH 14 0
BBX 8 9 2 0
BITMAP
3F
21
21
21
21
21
21
21
C1
ENDCHAR
STARTCHAR afii10030
ENCODING 1052
SWIDTH 1120 0
DWIDTH 14 0
BBX 8 8 2 0
BITMAP
81
C3
C5
A5
A5
A9
99
89
ENDCHAR
STARTCHAR afii10031
ENCODING 1053
SWIDTH 1120 0
DWIDTH 14 0
BBX 6 9 3 0
BITMAP
04
84
84
84
FC
84
84
84
84
ENDCHAR
STARTCHAR afii10032
ENCODING 1054
SWIDTH 1120 0
DWIDTH 14 0
BBX 8 9 2 0
BITMAP
3C
42
81
81
81
81
81
42
3C
ENDCHAR
STARTCHAR afii10033
ENCODING 1055
SWIDTH 1120 0
DWIDTH 14 0
BBX 6 9 3 0
BITMAP
FC
84
84
84
84
84
84
84
84
ENDCHAR
STARTCHAR afii10034
ENCODING 1056
SWIDTH 1120 0
DWIDTH 14 0
BBX 6 9 3 0
BITMAP
F8
84
84
84
F8
80
80
80
80
ENDCHAR
STARTCHAR afii10035
ENCODING 1057
SWIDTH 1120 0
DWIDTH 14 0
BBX 8 9 2 0
BITMAP
18
66
80
80
80
80
81
42
3C
ENDCHAR
STARTCHAR afii10036
ENCODING 1058
SWIDTH 1120 0
DWIDTH 14 0
BBX 7 9 3 0
BITMAP
FE
10
10
10
10
10
10
10
10
ENDCHAR
STARTCHAR afii10037
ENCODING 1059
SWIDTH 1120 0
DWIDTH 14 0
BBX 6 9 3 -1
BITMAP
84
84
48
48
50
30
20
20
40
ENDCHAR
STARTCHAR afii10038
ENCODING 1060
SWIDTH 1120 0
DWIDTH 14 0
BBX 10 8 1 0
BITMAP
3F00
4980
8840
8840
8840
4880
2B00
1C00
ENDCHAR
STARTCHAR afii10039
ENCODING 1061
SWIDTH 1120 0
DWIDTH 14 0
BBX 6 8 3 0
BITMAP
84
48
50
30
30
48
48
84
ENDCHAR
STARTCHAR afii10040
ENCODING 1062
SWIDTH 1120 0
DWIDTH 14 0
BBX 8 11 2 -2
BITMAP
02
82
82
82
82
82
82
82
FF
01
01
ENDCHAR
STARTCHAR afii10041
ENCODING 1063
SWIDTH 1120 0
DWIDTH 14 0
BBX 6 8 3 0
BITMAP
84
84
84
84
4C
34
04
04
ENDCHAR
STARTCHAR afii10042
ENCODING 1064
SWIDTH 1120 0
DWIDTH 14 0
BBX 8 9 2 0
BITMAP
11
91
91
91
91
91
91
91
FF
ENDCHAR
STARTCHAR afii10043
ENCODING 1065
SWIDTH 1120 0
DWIDTH 14 0
BBX 10 11 1 -2
BITMAP
0880
8880
8880
8880
8880
8880
8880
8880
FFC0
0040
0040
ENDCHAR
STARTCHAR afii10044
ENCODING 1066
SWIDTH 1120 0
DWIDTH 14 0
BBX 8 9 2 0
BITMAP
E0
20
20
20
3E
21
21
21
3E
ENDCHAR
STARTCHAR afii10045
ENCODING 1067
SWIDTH 1120 0
DWIDTH 14 0
BBX 8 8 2 0
BITMAP
81
81
81
F9
85
85
85
F9
ENDCHAR
STARTCHAR afii10046
ENCODING 1068
SWIDTH 1120 0
DWIDTH 14 0
BBX 6 8 3 0
BITMAP
80
80
80
F8
84
84
84
F8
ENDCHAR
STARTCHAR afii10047
ENCODING 1069
SWIDTH 1120 0
DWIDTH 14 0
BBX 8 9 2 0
BITMAP
3C
42
81
01
1F
01
81
42
3C
ENDCHAR
STARTCHAR afii10048
ENCODING 1070
SWIDTH 1120 0
DWIDTH 14 0
BBX 10 10 1 -1
BITMAP
8F00
9080
A040
A040
E040
A040
A040
9080
8980
0600
ENDCHAR
STARTCHAR afii10049
ENCODING 1071
SWIDTH 1120 0
DWIDTH 14 0
BBX 7 8 2 0
BITMAP
7E
82
82
7E
42
42
42
02
ENDCHAR
STARTCHAR afii10065
ENCODING 1072
SWIDTH 1120 0
DWIDTH 14 0
BBX 5 7 3 -1
BITMAP
70
88
08
78
88
D8
20
ENDCHAR
STARTCHAR afii10066
ENCODING 1073
SWIDTH 1120 0
DWIDTH 14 0
BBX 6 9 3 0
BITMAP
34
48
80
B8
CC
84
84
84
48
ENDCHAR
STARTCHAR afii10067
ENCODING 1074
SWIDTH 1120 0
DWIDTH 14 0
BBX 4 6 4 0
BITMAP
F0
90
F0
90
90
F0
ENDCHAR
STARTCHAR afii10068
ENCODING 1075
SWIDTH 1120 0
DWIDTH 14 0
BBX 4 6 4 0
BITMAP
F0
80
80
80
80
80
ENDCHAR
STARTCHAR afii10069
ENCODING 1076
SWIDTH 1120 0
DWIDTH 14 0
BBX 6 8 3 -2
BITMAP
7C
44
44
44
44
FC
84
84
ENDCHAR
STARTCHAR afii10070
ENCODING 1077
SWIDTH 1120 0
DWIDTH 14 0
BBX 6 6 3 0
BITMAP
78
84
7C
80
44
38
ENDCHAR
STARTCHAR afii10072
ENCODING 1078
SWIDTH 1120 0
DWIDTH 14 0
BBX 7 6 2 0
BITMAP
92
54
54
BA
92
92
ENDCHAR
STARTCHAR afii10073
ENCODING 1079
SWIDTH 1120 0
DWIDTH 14 0
BBX 4 7 4 0
BITMAP
70
90
10
20
10
90
70
ENDCHAR
STARTCHAR afii10074
ENCODING 1080
SWIDTH 1120 0
DWIDTH 14 0
BBX 6 6 3 0
BITMAP
84
8C
94
A4
C4
84
ENDCHAR
STARTCHAR afii10075
ENCODING 1081
SWIDTH 1120 0
DWIDTH 14 0
BBX 6 8 3 0
BITMAP
48
30
84
8C
94
A4
C4
84
ENDCHAR
STARTCHAR afii10076
ENCODING 1082
SWIDTH 1120 0
DWIDTH 14 0
BBX 5 7 4 0
BITMAP
80
98
A0
E0
90
90
80
ENDCHAR
STARTCHAR afii10077
ENCODING 1083
SWIDTH 1120 0
DWIDTH 14 0
BBX 6 7 3 -1
BITMAP
7C
44
44
44
44
44
80
ENDCHAR
STARTCHAR afii10078
ENCODING 1084
SWIDTH 1120 0
DWIDTH 14 0
BBX 6 6 3 0
BITMAP
84
CC
D4
D4
B4
84
ENDCHAR
STARTCHAR afii10079
ENCODING 1085
SWIDTH 1120 0
DWIDTH 14 0
BBX 6 7 3 0
BITMAP
04
84
84
FC
84
84
84
ENDCHAR
STARTCHAR afii10080
ENCODING 1086
SWIDTH 1120 0
DWIDTH 14 0
BBX 6 6 3 0
BITMAP
78
84
84
84
88
78
ENDCHAR
STARTCHAR afii10081
ENCODING 1087
SWIDTH 1120 0
DWIDTH 14 0
BBX 4 7 4 -1
BITMAP
F0
90
90
90
90
90
80
ENDCHAR
STARTCHAR afii10082
ENCODING 1088
SWIDTH 1120 0
DWIDTH 14 0
BBX 6 9 3 -2
BITMAP
B8
CC
84
84
84
88
F0
80
80
ENDCHAR
STARTCHAR afii10083
ENCODING 1089
SWIDTH 1120 0
DWIDTH 14 0
BBX 6 7 3 -1
BITMAP
38
C0
80
80
84
48
30
ENDCHAR
STARTCHAR afii10084
ENCODING 1090
SWIDTH 1120 0
DWIDTH 14 0
BBX 5 6 3 0
BITMAP
F8
20
20
20
20
20
ENDCHAR
STARTCHAR afii10085
ENCODING 1091
SWIDTH 1120 0
DWIDTH 14 0
BBX 6 8 3 -2
BITMAP
84
48
48
50
30
30
20
20
ENDCHAR
STARTCHAR afii10086
ENCODING 1092
SWIDTH 1120 0
DWIDTH 14 0
BBX 10 10 1 -2
BITMAP
0400
0400
7F80
4440
8440
8440
4C40
3E80
0500
0400
ENDCHAR
STARTCHAR afii10087
ENCODING 1093
SWIDTH 1120 0
DWIDTH 14 0
BBX 4 5 4 1
BITMAP
90
A0
60
60
90
ENDCHAR
STARTCHAR afii10088
ENCODING 1094
SWIDTH 1120 0
DWIDTH 14 0
BBX 6 9 3 -2
BITMAP
08
88
88
88
88
88
FC
04
04
ENDCHAR
STARTCHAR afii10089
ENCODING 1095
SWIDTH 1120 0
DWIDTH 14 0
BBX 5 6 3 0
BITMAP
08
88
88
78
08
08
ENDCHAR
STARTCHAR afii10090
ENCODING 1096
SWIDTH 1120 0
DWIDTH 14 0
BBX 6 7 3 0
BITMAP
14
94
94
94
94
94
FC
ENDCHAR
STARTCHAR afii10091
ENCODING 1097
SWIDTH 1120 0
DWIDTH 14 0
BBX 8 9 2 -2
BITMAP
02
92
92
92
92
92
FF
01
01
ENDCHAR
STARTCHAR afii10092
ENCODING 1098
SWIDTH 1120 0
DWIDTH 14 0
BBX 7 6 3 0
BITMAP
E0
20
3C
22
22
3C
ENDCHAR
STARTCHAR afii10093
ENCODING 1099
SWIDTH 1120 0
DWIDTH 14 0
BBX 6 6 3 0
BITMAP
84
84
E4
94
94
F4
ENDCHAR
STARTCHAR afii10094
ENCODING 1100
SWIDTH 1120 0
DWIDTH 14 0
BBX 4 6 4 0
BITMAP
80
80
F0
90
90
A0
ENDCHAR
STARTCHAR afii10095
ENCODING 1101
SWIDTH 1120 0
DWIDTH 14 0
BBX 5 6 4 0
BITMAP
F0
08
78
08
98
70
ENDCHAR
STARTCHAR afii10096
ENCODING 1102
SWIDTH 1120 0
DWIDTH 14 0
BBX 8 7 2 0
BITMAP
80
9E
A1
E1
A1
A1
96
ENDCHAR
STARTCHAR afii10097
ENCODING 1103
SWIDTH 1120 0
DWIDTH 14 0
BBX 5 6 3 0
BITMAP
78
88
88
78
88
08
ENDCHAR
STARTCHAR afii10071
ENCODING 1105
SWIDTH 1120 0
DWIDTH 14 0
BBX 6 8 3 0
BITMAP
48
00
78
44
7C
80
44
38
ENDCHAR
STARTCHAR afii00208
ENCODING 8213
SWIDTH 1120 0
DWIDTH 14 0
BBX 12 1 0 3
BITMAP
FFF0
ENDCHAR
STARTCHAR quoteleft
ENCODING 8216
SWIDTH 1120 0
DWIDTH 14 0
BBX 1 2 8 6
BITMAP
80
80
ENDCHAR
STARTCHAR quoteright
ENCODING 8217
SWIDTH 1120 0
DWIDTH 14 0
BBX 1 2 3 7
BITMAP
80
80
ENDCHAR
STARTCHAR quotedblleft
ENCODING 8220
SWIDTH 1120 0
DWIDTH 14 0
BBX 4 4 6 6
BITMAP
10
20
B0
80
ENDCHAR
STARTCHAR quotedblright
ENCODING 8221
SWIDTH 1120 0
DWIDTH 14 0
BBX 4 3 2 6
BITMAP
D0
50
90
ENDCHAR
STARTCHAR dagger
ENCODING 8224
SWIDTH 1120 0
DWIDTH 14 0
BBX 7 11 3 -2
BITMAP
10
10
10
FE
10
10
10
10
10
10
10
ENDCHAR
STARTCHAR daggerdbl
ENCODING 8225
SWIDTH 1120 0
DWIDTH 14 0
BBX 7 11 2 -2
BITMAP
10
FE
10
7E
10
10
10
10
10
10
10
ENDCHAR
STARTCHAR twodotenleader
ENCODING 8229
SWIDTH 1120 0
DWIDTH 14 0
BBX 6 1 3 3
BITMAP
84
ENDCHAR
STARTCHAR ellipsis
ENCODING 8230
SWIDTH 1120 0
DWIDTH 14 0
BBX 8 1 2 3
BITMAP
91
ENDCHAR
STARTCHAR perthousand
ENCODING 8240
SWIDTH 1120 0
DWIDTH 14 0
BBX 10 11 1 -2
BITMAP
E100
9200
9400
9800
9800
7080
2F40
4B40
4B40
8B40
0480
ENDCHAR
STARTCHAR minute
ENCODING 8242
SWIDTH 1120 0
DWIDTH 14 0
BBX 2 2 5 7
BITMAP
40
80
ENDCHAR
STARTCHAR second
ENCODING 8243
SWIDTH 1120 0
DWIDTH 14 0
BBX 4 2 4 7
BITMAP
50
A0
ENDCHAR
STARTCHAR uni203B
ENCODING 8251
SWIDTH 1120 0
DWIDTH 14 0
BBX 8 8 2 -1
BITMAP
99
5A
E7
DB
18
3C
5A
81
ENDCHAR
STARTCHAR uni2074
ENCODING 8308
SWIDTH 1120 0
DWIDTH 14 0
BBX 4 5 4 4
BITMAP
20
E0
A0
F0
20
ENDCHAR
STARTCHAR uni207F
ENCODING 8319
SWIDTH 1120 0
DWIDTH 14 0
BBX 4 4 4 4
BITMAP
F0
90
90
90
ENDCHAR
STARTCHAR uni2081
ENCODING 8321
SWIDTH 1120 0
DWIDTH 14 0
BBX 2 5 5 -2
BITMAP
40
C0
40
40
40
ENDCHAR
STARTCHAR uni2082
ENCODING 8322
SWIDTH 1120 0
DWIDTH 14 0
BBX 4 6 4 -2
BITMAP
60
10
10
60
80
F0
ENDCHAR
STARTCHAR uni2083
ENCODING 8323
SWIDTH 1120 0
DWIDTH 14 0
BBX 4 6 4 -3
BITMAP
60
A0
60
10
20
40
ENDCHAR
STARTCHAR uni2084
ENCODING 8324
SWIDTH 1120 0
DWIDTH 14 0
BBX 4 5 4 -2
BITMAP
20
E0
A0
F0
20
ENDCHAR
STARTCHAR Euro
ENCODING 8364
SWIDTH 1120 0
DWIDTH 14 0
BBX 8 9 0 0
BITMAP
1E
21
40
FC
40
FC
40
21
1E
ENDCHAR
STARTCHAR uni2103
ENCODING 8451
SWIDTH 1120 0
DWIDTH 14 0
BBX 9 10 1 0
BITMAP
E000
A400
FB80
1080
2000
2000
2000
2080
1080
0F00
ENDCHAR
STARTCHAR uni2109
ENCODING 8457
SWIDTH 1120 0
DWIDTH 14 0
BBX 9 8 1 0
BITMAP
CF80
C800
0800
0F80
0800
0800
0800
0800
ENDCHAR
STARTCHAR afii61289
ENCODING 8467
SWIDTH 1120 0
DWIDTH 14 0
BBX 4 10 4 -1
BITMAP
20
50
90
90
A0
A0
C0
40
50
20
ENDCHAR
STARTCHAR afii61352
ENCODING 8470
SWIDTH 1120 0
DWIDTH 14 0
BBX 12 8 0 0
BITMAP
8400
C400
C5C0
A620
A620
9620
8E20
85D0
ENDCHAR
STARTCHAR uni2121
ENCODING 8481
SWIDTH 1120 0
DWIDTH 14 0
BBX 10 10 1 0
BITMAP
0040
F840
2040
2040
2F40
2940
2F40
3040
2840
2600
ENDCHAR
STARTCHAR trademark
ENCODING 8482
SWIDTH 1120 0
DWIDTH 14 0
BBX 10 9 1 0
BITMAP
FC40
2440
2440
26C0
2740
2740
2740
2740
2540
ENDCHAR
STARTCHAR uni2126
ENCODING 8486
SWIDTH 1120 0
DWIDTH 14 0
BBX 8 9 2 0
BITMAP
3C
46
43
81
82
42
24
18
FF
ENDCHAR
STARTCHAR uni212B
ENCODING 8491
SWIDTH 1120 0
DWIDTH 14 0
BBX 8 10 2 0
BITMAP
38
28
10
10
28
24
44
7E
82
81
ENDCHAR
STARTCHAR onethird
ENCODING 8531
SWIDTH 1120 0
DWIDTH 14 0
BBX 6 9 3 -1
BITMAP
88
90
90
A0
BC
44
44
94
8C
ENDCHAR
STARTCHAR twothirds
ENCODING 8532
SWIDTH 1120 0
DWIDTH 14 0
BBX 10 9 1 -1
BITMAP
6100
1200
1200
6400
8480
F880
1080
1240
0180
ENDCHAR
STARTCHAR oneeighth
ENCODING 8539
SWIDTH 1120 0
DWIDTH 14 0
BBX 7 9 3 -1
BITMAP
88
90
90
AE
AA
4E
4A
8A
8E
ENDCHAR
STARTCHAR threeeighths
ENCODING 8540
SWIDTH 1120 0
DWIDTH 14 0
BBX 10 9 1 -1
BITMAP
6100
A200
6400
1580
2A40
4980
1240
1240
0180
ENDCHAR
STARTCHAR fiveeighths
ENCODING 8541
SWIDTH 1120 0
DWIDTH 14 0
BBX 10 9 1 -1
BITMAP
6000
8200
E400
1580
9A40
6980
1240
0240
0180
ENDCHAR
STARTCHAR seveneighths
ENCODING 8542
SWIDTH 1120 0
DWIDTH 14 0
BBX 8 9 2 -1
BITMAP
E4
28
48
56
19
27
49
49
07
ENDCHAR
STARTCHAR uni2160
ENCODING 8544
SWIDTH 1120 0
DWIDTH 14 0
BBX 1 8 5 0
BITMAP
80
80
80
80
80
80
80
80
ENDCHAR
STARTCHAR uni2161
ENCODING 8545
SWIDTH 1120 0
DWIDTH 14 0
BBX 6 8 3 0
BITMAP
84
84
84
84
84
84
84
84
ENDCHAR
STARTCHAR uni2162
ENCODING 8546
SWIDTH 1120 0
DWIDTH 14 0
BBX 8 8 2 0
BITMAP
89
89
89
89
89
89
89
89
ENDCHAR
STARTCHAR uni2163
ENCODING 8547
SWIDTH 1120 0
DWIDTH 14 0
BBX 7 8 2 0
BITMAP
80
92
92
94
8C
8C
8C
80
ENDCHAR
STARTCHAR uni2164
ENCODING 8548
SWIDTH 1120 0
DWIDTH 14 0
BBX 4 6 4 1
BITMAP
90
90
90
A0
60
60
ENDCHAR
STARTCHAR uni2165
ENCODING 8549
SWIDTH 1120 0
DWIDTH 14 0
BBX 7 8 3 0
BITMAP
02
92
92
92
62
62
62
02
ENDCHAR
STARTCHAR uni2166
ENCODING 8550
SWIDTH 1120 0
DWIDTH 14 0
BBX 9 8 2 0
BITMAP
0480
9480
9480
9480
6480
6480
2480
0480
ENDCHAR
STARTCHAR uni2167
ENCODING 8551
SWIDTH 1120 0
DWIDTH 14 0
BBX 10 8 1 0
BITMAP
8540
9540
9540
5540
6540
6540
2540
2540
ENDCHAR
STARTCHAR uni2168
ENCODING 8552
SWIDTH 1120 0
DWIDTH 14 0
BBX 7 8 2 0
BITMAP
92
92
8C
84
8C
8C
92
92
ENDCHAR
STARTCHAR uni2169
ENCODING 8553
SWIDTH 1120 0
DWIDTH 14 0
BBX 4 8 4 0
BITMAP
90
90
60
60
60
60
90
90
ENDCHAR
STARTCHAR uni2170
ENCODING 8560
SWIDTH 1120 0
DWIDTH 14 0
BBX 1 8 5 0
BITMAP
80
00
00
80
80
80
80
80
ENDCHAR
STARTCHAR uni2171
ENCODING 8561
SWIDTH 1120 0
DWIDTH 14 0
BBX 4 8 4 0
BITMAP
90
00
00
90
90
90
90
90
ENDCHAR
STARTCHAR uni2172
ENCODING 8562
SWIDTH 1120 0
DWIDTH 14 0
BBX 6 8 3 0
BITMAP
94
00
00
94
94
94
94
94
ENDCHAR
STARTCHAR uni2173
ENCODING 8563
SWIDTH 1120 0
DWIDTH 14 0
BBX 6 8 3 0
BITMAP
80
00
00
A4
A4
98
98
88
ENDCHAR
STARTCHAR uni2174
ENCODING 8564
SWIDTH 1120 0
DWIDTH 14 0
BBX 4 4 4 1
BITMAP
90
A0
60
60
ENDCHAR
STARTCHAR uni2175
ENCODING 8565
SWIDTH 1120 0
DWIDTH 14 0
BBX 6 8 3 0
BITMAP
04
00
00
84
A4
A4
C4
44
ENDCHAR
STARTCHAR uni2176
ENCODING 8566
SWIDTH 1120 0
DWIDTH 14 0
BBX 8 8 2 0
BITMAP
05
00
00
85
A5
A5
45
45
ENDCHAR
STARTCHAR uni2177
ENCODING 8567
SWIDTH 1120 0
DWIDTH 14 0
BBX 10 8 1 0
BITMAP
0540
0000
0000
9540
A540
6540
6540
0540
ENDCHAR
STARTCHAR uni2178
ENCODING 8568
SWIDTH 1120 0
DWIDTH 14 0
BBX 6 8 3 0
BITMAP
80
00
00
84
98
88
98
A4
ENDCHAR
STARTCHAR uni2179
ENCODING 8569
SWIDTH 1120 0
DWIDTH 14 0
BBX 4 5 4 0
BITMAP
90
60
40
60
90
ENDCHAR
STARTCHAR arrowleft
ENCODING 8592
SWIDTH 1120 0
DWIDTH 14 0
BBX 10 2 1 3
BITMAP
C000
FFC0
ENDCHAR
STARTCHAR arrowup
ENCODING 8593
SWIDTH 1120 0
DWIDTH 14 0
BBX 2 11 5 -2
BITMAP
80
C0
80
80
80
80
80
80
80
80
80
ENDCHAR
STARTCHAR arrowright
ENCODING 8594
SWIDTH 1120 0
DWIDTH 14 0
BBX 10 2 1 3
BITMAP
00C0
FFC0
ENDCHAR
STARTCHAR arrowdown
ENCODING 8595
SWIDTH 1120 0
DWIDTH 14 0
BBX 3 11 5 -2
BITMAP
40
40
40
40
40
40
40
40
40
E0
40
ENDCHAR
STARTCHAR arrowboth
ENCODING 8596
SWIDTH 1120 0
DWIDTH 14 0
BBX 9 3 1 2
BITMAP
4080
FF80
4000
ENDCHAR
STARTCHAR arrowupdn
ENCODING 8597
SWIDTH 1120 0
DWIDTH 14 0
BBX 3 10 4 -1
BITMAP
40
E0
40
40
40
40
40
40
E0
40
ENDCHAR
STARTCHAR uni2196
ENCODING 8598
SWIDTH 1120 0
DWIDTH 14 0
BBX 7 7 2 0
BITMAP
C0
C0
20
10
08
04
02
ENDCHAR
STARTCHAR uni2197
ENCODING 8599
SWIDTH 1120 0
DWIDTH 14 0
BBX 7 6 3 1
BITMAP
06
0C
10
20
40
80
ENDCHAR
STARTCHAR uni2198
ENCODING 8600
SWIDTH 1120 0
DWIDTH 14 0
BBX 7 6 3 0
BITMAP
80
40
20
10
0C
06
ENDCHAR
STARTCHAR uni2199
ENCODING 8601
SWIDTH 1120 0
DWIDTH 14 0
BBX 7 6 2 0
BITMAP
06
08
10
20
C0
E0
ENDCHAR
STARTCHAR arrowdblright
ENCODING 8658
SWIDTH 1120 0
DWIDTH 14 0
BBX 12 7 0 0
BITMAP
0080
0040
FFE0
0010
FFE0
0040
0080
ENDCHAR
STARTCHAR arrowdblboth
ENCODING 8660
SWIDTH 1120 0
DWIDTH 14 0
BBX 11 5 0 1
BITMAP
1080
3FC0
C020
7FC0
2080
ENDCHAR
STARTCHAR universal
ENCODING 8704
SWIDTH 1120 0
DWIDTH 14 0
BBX 8 8 2 0
BITMAP
81
82
7E
44
44
28
28
18
ENDCHAR
STARTCHAR partialdiff
ENCODING 8706
SWIDTH 1120 0
DWIDTH 14 0
BBX 5 9 3 -1
BITMAP
30
48
08
08
78
88
90
90
E0
ENDCHAR
STARTCHAR existential
ENCODING 8707
SWIDTH 1120 0
DWIDTH 14 0
BBX 6 9 3 -1
BITMAP
FC
04
04
04
FC
04
04
04
FC
ENDCHAR
STARTCHAR gradient
ENCODING 8711
SWIDTH 1120 0
DWIDTH 14 0
BBX 9 8 1 0
BITMAP
7F80
8080
4100
4100
2200
1400
1400
0800
ENDCHAR
STARTCHAR element
ENCODING 8712
SWIDTH 1120 0
DWIDTH 14 0
BBX 9 8 1 -1
BITMAP
3F00
4000
8000
7F80
8000
4000
2000
1F00
ENDCHAR
STARTCHAR suchthat
ENCODING 8715
SWIDTH 1120 0
DWIDTH 14 0
BBX 8 7 2 0
BITMAP
FE
01
01
FF
01
01
02
ENDCHAR
STARTCHAR product
ENCODING 8719
SWIDTH 1120 0
DWIDTH 14 0
BBX 8 11 2 -2
BITMAP
FF
42
42
42
42
42
42
42
42
42
E7
ENDCHAR
STARTCHAR summation
ENCODING 8721
SWIDTH 1120 0
DWIDTH 14 0
BBX 10 10 1 -1
BITMAP
FFC0
40C0
2040
1040
0C40
0800
1000
2040
4040
FFC0
ENDCHAR
STARTCHAR radical
ENCODING 8730
SWIDTH 1120 0
DWIDTH 14 0
BBX 10 9 1 0
BITMAP
07C0
0400
0800
0800
1000
1000
9000
6000
6000
ENDCHAR
STARTCHAR proportional
ENCODING 8733
SWIDTH 1120 0
DWIDTH 14 0
BBX 9 6 1 0
BITMAP
7180
8E00
8400
4C00
3200
0100
ENDCHAR
STARTCHAR infinity
ENCODING 8734
SWIDTH 1120 0
DWIDTH 14 0
BBX 10 5 1 1
BITMAP
7380
8C40
8840
D440
7380
ENDCHAR
STARTCHAR angle
ENCODING 8736
SWIDTH 1120 0
DWIDTH 14 0
BBX 7 7 3 0
BITMAP
04
08
10
20
40
80
FE
ENDCHAR
STARTCHAR uni2225
ENCODING 8741
SWIDTH 1120 0
DWIDTH 14 0
BBX 4 10 4 -1
BITMAP
90
90
90
90
90
90
90
90
90
90
ENDCHAR
STARTCHAR logicaland
ENCODING 8743
SWIDTH 1120 0
DWIDTH 14 0
BBX 8 6 2 0
BITMAP
18
28
44
42
82
81
ENDCHAR
STARTCHAR logicalor
ENCODING 8744
SWIDTH 1120 0
DWIDTH 14 0
BBX 8 6 2 1
BITMAP
81
82
42
44
28
18
ENDCHAR
STARTCHAR intersection
ENCODING 8745
SWIDTH 1120 0
DWIDTH 14 0
BBX 8 9 2 -1
BITMAP
3C
42
81
81
81
81
81
81
81
ENDCHAR
STARTCHAR union
ENCODING 8746
SWIDTH 1120 0
DWIDTH 14 0
BBX 8 9 2 -1
BITMAP
81
81
81
81
81
81
81
42
24
ENDCHAR
STARTCHAR integral
ENCODING 8747
SWIDTH 1120 0
DWIDTH 14 0
BBX 3 11 4 -2
BITMAP
20
C0
40
40
40
40
20
20
20
20
40
ENDCHAR
STARTCHAR uni222C
ENCODING 8748
SWIDTH 1120 0
DWIDTH 14 0
BBX 6 11 3 -2
BITMAP
6C
90
90
90
48
48
48
48
44
48
C8
ENDCHAR
STARTCHAR uni222E
ENCODING 8750
SWIDTH 1120 0
DWIDTH 14 0
BBX 5 9 3 -1
BITMAP
18
20
20
20
F0
60
20
40
C0
ENDCHAR
STARTCHAR therefore
ENCODING 8756
SWIDTH 1120 0
DWIDTH 14 0
BBX 6 6 3 1
BITMAP
20
00
00
00
00
84
ENDCHAR
STARTCHAR uni2235
ENCODING 8757
SWIDTH 1120 0
DWIDTH 14 0
BBX 6 6 3 1
BITMAP
84
00
00
00
00
20
ENDCHAR
STARTCHAR similar
ENCODING 8764
SWIDTH 1120 0
DWIDTH 14 0
BBX 8 2 2 3
BITMAP
70
8F
ENDCHAR
STARTCHAR uni223D
ENCODING 8765
SWIDTH 1120 0
DWIDTH 14 0
BBX 10 5 1 1
BITMAP
7380
8440
8440
8840
5080
ENDCHAR
STARTCHAR uni2252
ENCODING 8786
SWIDTH 1120 0
DWIDTH 14 0
BBX 8 7 2 0
BITMAP
40
00
FF
00
FF
00
02
ENDCHAR
STARTCHAR notequal
ENCODING 8800
SWIDTH 1120 0
DWIDTH 14 0
BBX 8 5 2 1
BITMAP
10
FF
10
FF
08
ENDCHAR
STARTCHAR equivalence
ENCODING 8801
SWIDTH 1120 0
DWIDTH 14 0
BBX 8 5 2 1
BITMAP
FF
00
FF
00
FF
ENDCHAR
STARTCHAR lessequal
ENCODING 8804
SWIDTH 1120 0
DWIDTH 14 0
BBX 8 7 2 0
BITMAP
0E
30
40
30
0E
00
FF
ENDCHAR
STARTCHAR greaterequal
ENCODING 8805
SWIDTH 1120 0
DWIDTH 14 0
BBX 8 8 2 0
BITMAP
80
70
0C
03
0E
70
00
FF
ENDCHAR
STARTCHAR uni226A
ENCODING 8810
SWIDTH 1120 0
DWIDTH 14 0
BBX 10 9 1 -1
BITMAP
0240
0D80
1200
6C00
9000
4800
3600
0900
06C0
ENDCHAR
STARTCHAR uni226B
ENCODING 8811
SWIDTH 1120 0
DWIDTH 14 0
BBX 10 9 1 -1
BITMAP
9000
4800
3600
0900
06C0
0D80
1200
6C00
9000
ENDCHAR
STARTCHAR propersubset
ENCODING 8834
SWIDTH 1120 0
DWIDTH 14 0
BBX 9 7 1 0
BITMAP
3F80
4000
8000
8000
8000
4000
3F80
ENDCHAR
STARTCHAR propersuperset
ENCODING 8835
SWIDTH 1120 0
DWIDTH 14 0
BBX 8 7 2 0
BITMAP
FC
03
01
01
01
01
02
ENDCHAR
STARTCHAR reflexsubset
ENCODING 8838
SWIDTH 1120 0
DWIDTH 14 0
BBX 8 7 2 0
BITMAP
3F
C0
80
80
80
7F
FF
ENDCHAR
STARTCHAR reflexsuperset
ENCODING 8839
SWIDTH 1120 0
DWIDTH 14 0
BBX 8 7 2 0
BITMAP
FC
03
01
03
FC
00
FF
ENDCHAR
STARTCHAR uni2299
ENCODING 8857
SWIDTH 1120 0
DWIDTH 14 0
BBX 10 11 1 -2
BITMAP
1E00
2100
5E80
BF40
BF40
BF40
BF40
BF40
4C80
2100
1E00
ENDCHAR
STARTCHAR perpendicular
ENCODING 8869
SWIDTH 1120 0
DWIDTH 14 0
BBX 9 7 1 0
BITMAP
0800
0800
0800
0800
0800
0800
FF80
ENDCHAR
STARTCHAR uni2312
ENCODING 8978
SWIDTH 1120 0
DWIDTH 14 0
BBX 6 2 3 8
BITMAP
38
C4
ENDCHAR
STARTCHAR uni2460
ENCODING 9312
SWIDTH 1120 0
DWIDTH 14 0
BBX 11 11 0 -2
BITMAP
0F80
3040
4220
8E20
8220
8220
8220
8220
4220
2040
1D80
ENDCHAR
STARTCHAR uni2461
ENCODING 9313
SWIDTH 1120 0
DWIDTH 14 0
BBX 11 11 0 -2
BITMAP
0F00
37C0
4940
8920
8120
8220
8C20
8820
4F20
2040
1D80
ENDCHAR
STARTCHAR uni2462
ENCODING 9314
SWIDTH 1120 0
DWIDTH 14 0
BBX 11 11 0 -2
BITMAP
0F00
30C0
4F40
8120
8120
8320
8120
8120
4920
2640
1D80
ENDCHAR
STARTCHAR uni2463
ENCODING 9315
SWIDTH 1120 0
DWIDTH 14 0
BBX 11 11 0 -2
BITMAP
0F80
3240
4620
8A20
9220
9220
9F20
8220
4220
2040
1D80
ENDCHAR
STARTCHAR uni2464
ENCODING 9316
SWIDTH 1120 0
DWIDTH 14 0
BBX 11 11 0 -2
BITMAP
0F80
3040
4F20
8820
8F20
8120
8120
8920
4620
2040
1D80
ENDCHAR
STARTCHAR uni2465
ENCODING 9317
SWIDTH 1120 0
DWIDTH 14 0
BBX 11 11 0 -2
BITMAP
0F00
30C0
47C0
8820
8A20
8DA0
88A0
88A0
4520
2240
1D80
ENDCHAR
STARTCHAR uni2466
ENCODING 9318
SWIDTH 1120 0
DWIDTH 14 0
BBX 11 11 0 -2
BITMAP
0F80
3040
4F20
8120
8220
8220
8420
8420
4420
2440
1D80
ENDCHAR
STARTCHAR uni2467
ENCODING 9319
SWIDTH 1120 0
DWIDTH 14 0
BBX 11 11 0 -2
BITMAP
0F00
30C0
4F40
9120
9120
8F20
88A0
88A0
4920
2640
1D80
ENDCHAR
STARTCHAR uni2468
ENCODING 9320
SWIDTH 1120 0
DWIDTH 14 0
BBX 11 11 0 -2
BITMAP
0F80
3040
4F20
9120
8920
8920
8720
8920
4920
2640
1D80
ENDCHAR
STARTCHAR uni2469
ENCODING 9321
SWIDTH 1120 0
DWIDTH 14 0
BBX 11 11 0 -2
BITMAP
1F00
2080
51C0
B260
9460
9460
9460
9260
41C0
2080
1D00
ENDCHAR
STARTCHAR uni246A
ENCODING 9322
SWIDTH 1120 0
DWIDTH 14 0
BBX 11 11 0 -2
BITMAP
0F80
3040
48A0
99A0
88A0
88A0
88A0
88A0
4020
2040
1D80
ENDCHAR
STARTCHAR uni246B
ENCODING 9323
SWIDTH 1120 0
DWIDTH 14 0
BBX 11 11 0 -2
BITMAP
0F80
3040
5020
B3A0
90A0
90A0
9120
9220
43A0
2040
1D80
ENDCHAR
STARTCHAR uni246C
ENCODING 9324
SWIDTH 1120 0
DWIDTH 14 0
BBX 11 11 0 -2
BITMAP
1F00
2080
51C0
B0A0
90A0
90A0
9060
9060
41C0
2080
1D00
ENDCHAR
STARTCHAR uni246D
ENCODING 9325
SWIDTH 1120 0
DWIDTH 14 0
BBX 11 11 0 -2
BITMAP
0F80
3040
40A0
89A0
8AA0
8CA0
8FE0
88A0
40A0
2040
1D80
ENDCHAR
STARTCHAR uni246E
ENCODING 9326
SWIDTH 1120 0
DWIDTH 14 0
BBX 11 11 0 -2
BITMAP
1F00
2080
53C0
B220
9220
93E0
9060
9260
41C0
2080
1D00
ENDCHAR
STARTCHAR uni2474
ENCODING 9332
SWIDTH 1120 0
DWIDTH 14 0
BBX 12 10 0 -1
BITMAP
2000
4040
8220
8E10
8210
8210
8210
8220
4240
0240
ENDCHAR
STARTCHAR uni2475
ENCODING 9333
SWIDTH 1120 0
DWIDTH 14 0
BBX 12 10 0 -1
BITMAP
2000
4740
8920
8110
8110
8610
8810
8820
4F40
0040
ENDCHAR
STARTCHAR uni2476
ENCODING 9334
SWIDTH 1120 0
DWIDTH 14 0
BBX 12 10 0 -1
BITMAP
2000
4040
8F20
8110
8110
8610
8110
8120
4940
0640
ENDCHAR
STARTCHAR uni2477
ENCODING 9335
SWIDTH 1120 0
DWIDTH 14 0
BBX 12 10 0 -1
BITMAP
2000
4040
8220
8610
8A10
9210
9210
9F20
4240
0240
ENDCHAR
STARTCHAR uni2478
ENCODING 9336
SWIDTH 1120 0
DWIDTH 14 0
BBX 12 10 0 -1
BITMAP
2000
4040
8720
8810
8810
8F10
8090
80A0
48C0
0740
ENDCHAR
STARTCHAR uni2479
ENCODING 9337
SWIDTH 1120 0
DWIDTH 14 0
BBX 12 10 0 -1
BITMAP
2000
4040
8720
8810
8A10
8D90
8890
88A0
4540
0240
ENDCHAR
STARTCHAR uni247A
ENCODING 9338
SWIDTH 1120 0
DWIDTH 14 0
BBX 12 10 0 -1
BITMAP
2000
4040
8F20
8110
8210
8210
8410
8420
4440
0040
ENDCHAR
STARTCHAR uni247B
ENCODING 9339
SWIDTH 1120 0
DWIDTH 14 0
BBX 12 10 0 -1
BITMAP
2000
4740
89A0
8990
8910
8790
8890
88A0
4740
0040
ENDCHAR
STARTCHAR uni247C
ENCODING 9340
SWIDTH 1120 0
DWIDTH 14 0
BBX 12 10 0 -1
BITMAP
2000
4040
8E20
9110
9110
8B10
8510
9120
4A40
0440
ENDCHAR
STARTCHAR uni247D
ENCODING 9341
SWIDTH 1120 0
DWIDTH 14 0
BBX 12 10 0 -1
BITMAP
2000
51C0
9260
9250
9250
9250
9250
9260
52C0
0140
ENDCHAR
STARTCHAR uni247E
ENCODING 9342
SWIDTH 1120 0
DWIDTH 14 0
BBX 12 10 0 -1
BITMAP
2000
48C0
88A0
8890
8890
8890
8890
88A0
48C0
0040
ENDCHAR
STARTCHAR uni247F
ENCODING 9343
SWIDTH 1120 0
DWIDTH 14 0
BBX 12 10 0 -1
BITMAP
2000
5040
93A0
9290
9090
9110
9210
9220
5240
03C0
ENDCHAR
STARTCHAR uni2480
ENCODING 9344
SWIDTH 1120 0
DWIDTH 14 0
BBX 12 10 0 -1
BITMAP
2000
51C0
9060
9050
9090
9090
9050
9260
5240
01C0
ENDCHAR
STARTCHAR uni2481
ENCODING 9345
SWIDTH 1120 0
DWIDTH 14 0
BBX 12 10 0 -1
BITMAP
2000
50C0
90A0
9190
9290
9290
9290
93E0
50C0
00C0
ENDCHAR
STARTCHAR uni2482
ENCODING 9346
SWIDTH 1120 0
DWIDTH 14 0
BBX 12 10 0 -1
BITMAP
2000
43C0
9220
9210
93D0
9250
9050
9060
50C0
0140
ENDCHAR
STARTCHAR uni249C
ENCODING 9372
SWIDTH 1120 0
DWIDTH 14 0
BBX 12 10 0 -1
BITMAP
2000
4040
8620
8910
8110
8F10
9110
8B20
4440
0040
ENDCHAR
STARTCHAR uni249D
ENCODING 9373
SWIDTH 1120 0
DWIDTH 14 0
BBX 12 10 0 -1
BITMAP
2000
4040
8820
8810
8F10
9090
9090
90A0
4F40
0040
ENDCHAR
STARTCHAR uni249E
ENCODING 9374
SWIDTH 1120 0
DWIDTH 14 0
BBX 12 10 0 -1
BITMAP
2000
4040
8020
8F10
9010
9010
9010
8F20
4040
0040
ENDCHAR
STARTCHAR uni249F
ENCODING 9375
SWIDTH 1120 0
DWIDTH 14 0
BBX 12 10 0 -1
BITMAP
2000
4040
8120
8510
9B10
9110
9110
9120
4F40
0040
ENDCHAR
STARTCHAR uni24A0
ENCODING 9376
SWIDTH 1120 0
DWIDTH 14 0
BBX 12 10 0 -1
BITMAP
2000
4040
8020
8E10
9110
8F10
9010
8920
4640
0040
ENDCHAR
STARTCHAR uni24A1
ENCODING 9377
SWIDTH 1120 0
DWIDTH 14 0
BBX 12 10 0 -1
BITMAP
2000
4040
8420
8410
8610
8410
8410
8420
4440
0440
ENDCHAR
STARTCHAR uni24A2
ENCODING 9378
SWIDTH 1120 0
DWIDTH 14 0
BBX 12 10 0 -1
BITMAP
2000
4040
8FA0
8890
9090
8890
8990
86A0
4940
0640
ENDCHAR
STARTCHAR uni24A3
ENCODING 9379
SWIDTH 1120 0
DWIDTH 14 0
BBX 12 10 0 -1
BITMAP
2000
4040
8820
8810
8F10
8910
8910
8920
4840
0040
ENDCHAR
STARTCHAR uni24A4
ENCODING 9380
SWIDTH 1120 0
DWIDTH 14 0
BBX 12 10 0 -1
BITMAP
2000
4040
8020
8010
8410
8410
8410
8420
4440
0040
ENDCHAR
STARTCHAR uni24A5
ENCODING 9381
SWIDTH 1120 0
DWIDTH 14 0
BBX 12 10 0 -1
BITMAP
2000
4040
8020
8010
8410
8410
8410
8420
4440
0040
ENDCHAR
STARTCHAR uni24A6
ENCODING 9382
SWIDTH 1120 0
DWIDTH 14 0
BBX 12 10 0 -1
BITMAP
2000
4040
8820
8810
8910
8E10
8A10
8920
4840
0040
ENDCHAR
STARTCHAR uni24A7
ENCODING 9383
SWIDTH 1120 0
DWIDTH 14 0
BBX 12 10 0 -1
BITMAP
2000
4040
8420
8410
8410
8410
8410
8420
4440
0040
ENDCHAR
STARTCHAR uni24A8
ENCODING 9384
SWIDTH 1120 0
DWIDTH 14 0
BBX 12 10 0 -1
BITMAP
2000
4040
8020
9FD0
A450
A450
A450
8060
4040
0040
ENDCHAR
STARTCHAR uni24A9
ENCODING 9385
SWIDTH 1120 0
DWIDTH 14 0
BBX 12 10 0 -1
BITMAP
2000
4040
8020
8F10
9110
9110
9110
8120
4040
0040
ENDCHAR
STARTCHAR uni24AA
ENCODING 9386
SWIDTH 1120 0
DWIDTH 14 0
BBX 12 10 0 -1
BITMAP
2000
4040
8F20
9890
9090
9090
9890
8F20
4040
0040
ENDCHAR
STARTCHAR uni24AB
ENCODING 9387
SWIDTH 1120 0
DWIDTH 14 0
BBX 12 10 0 -1
BITMAP
2000
4040
8720
8890
8890
8890
9910
9620
4040
0040
ENDCHAR
STARTCHAR uni24AC
ENCODING 9388
SWIDTH 1120 0
DWIDTH 14 0
BBX 12 10 0 -1
BITMAP
2000
4040
8D20
9310
A110
9110
9310
8D20
4140
0040
ENDCHAR
STARTCHAR uni24AD
ENCODING 9389
SWIDTH 1120 0
DWIDTH 14 0
BBX 12 10 0 -1
BITMAP
2000
4040
8020
8610
8410
8410
8410
8420
4040
0040
ENDCHAR
STARTCHAR uni24AE
ENCODING 9390
SWIDTH 1120 0
DWIDTH 14 0
BBX 12 10 0 -1
BITMAP
2000
4040
8620
8910
8810
8710
8910
8620
4040
0040
ENDCHAR
STARTCHAR uni24AF
ENCODING 9391
SWIDTH 1120 0
DWIDTH 14 0
BBX 12 10 0 -1
BITMAP
2000
4440
8420
8610
8410
8410
8410
8420
4240
0040
ENDCHAR
STARTCHAR uni24B0
ENCODING 9392
SWIDTH 1120 0
DWIDTH 14 0
BBX 12 10 0 -1
BITMAP
2000
4040
8020
8910
8910
8910
8910
8920
4640
0040
ENDCHAR
STARTCHAR uni24B1
ENCODING 9393
SWIDTH 1120 0
DWIDTH 14 0
BBX 12 10 0 -1
BITMAP
2000
4040
8020
8010
8910
8A10
8610
8620
4040
0040
ENDCHAR
STARTCHAR uni24B2
ENCODING 9394
SWIDTH 1120 0
DWIDTH 14 0
BBX 12 10 0 -1
BITMAP
2000
4040
8020
8210
9690
9690
9A90
9920
4040
0040
ENDCHAR
STARTCHAR uni24B3
ENCODING 9395
SWIDTH 1120 0
DWIDTH 14 0
BBX 12 10 0 -1
BITMAP
2000
4040
8020
8910
8610
8610
8A10
8920
4040
0040
ENDCHAR
STARTCHAR uni24B4
ENCODING 9396
SWIDTH 1120 0
DWIDTH 14 0
BBX 12 10 0 -1
BITMAP
2000
4040
8820
8910
8910
8610
8610
8420
4040
0440
ENDCHAR
STARTCHAR uni24B5
ENCODING 9397
SWIDTH 1120 0
DWIDTH 14 0
BBX 12 10 0 -1
BITMAP
2000
4040
8020
8F10
8210
8410
8810
8F20
4040
0040
ENDCHAR
STARTCHAR uni24D0
ENCODING 9424
SWIDTH 1120 0
DWIDTH 14 0
BBX 11 11 0 -2
BITMAP
0F80
3040
4620
8120
8120
8F20
9120
8BA0
4420
2040
1D80
ENDCHAR
STARTCHAR uni24D1
ENCODING 9425
SWIDTH 1120 0
DWIDTH 14 0
BBX 11 11 0 -2
BITMAP
0F80
3840
4820
8F20
88A0
88A0
88A0
88A0
4720
2040
1D80
ENDCHAR
STARTCHAR uni24D2
ENCODING 9426
SWIDTH 1120 0
DWIDTH 14 0
BBX 11 11 0 -2
BITMAP
0F80
3040
4020
8F20
9020
9020
8820
8520
4220
2040
1D80
ENDCHAR
STARTCHAR uni24D3
ENCODING 9427
SWIDTH 1120 0
DWIDTH 14 0
BBX 11 11 0 -2
BITMAP
0F80
3040
4120
8120
9F20
A120
9120
9320
4F20
2040
1D80
ENDCHAR
STARTCHAR uni24D4
ENCODING 9428
SWIDTH 1120 0
DWIDTH 14 0
BBX 11 11 0 -2
BITMAP
0F80
3040
4020
8620
8920
8F20
9020
8920
4620
2040
1D80
ENDCHAR
STARTCHAR uni24D5
ENCODING 9429
SWIDTH 1120 0
DWIDTH 14 0
BBX 11 11 0 -2
BITMAP
0F80
3040
4420
8420
8620
8420
8420
8420
4420
2440
1D80
ENDCHAR
STARTCHAR uni24D6
ENCODING 9430
SWIDTH 1120 0
DWIDTH 14 0
BBX 11 11 0 -2
BITMAP
0F00
30C0
4F40
9120
9120
9120
8920
8720
4920
2640
1D80
ENDCHAR
STARTCHAR uni24D7
ENCODING 9431
SWIDTH 1120 0
DWIDTH 14 0
BBX 11 11 0 -2
BITMAP
0F80
3040
4020
9020
8F20
9120
9120
9120
4120
2040
1D80
ENDCHAR
STARTCHAR uni24D8
ENCODING 9432
SWIDTH 1120 0
DWIDTH 14 0
BBX 11 11 0 -2
BITMAP
0F80
3040
4020
8020
8420
8420
8420
8420
4420
2040
1D80
ENDCHAR
STARTCHAR uni24D9
ENCODING 9433
SWIDTH 1120 0
DWIDTH 14 0
BBX 11 11 0 -2
BITMAP
0F80
3040
4020
8020
8420
8420
8420
8420
4420
2440
1D80
ENDCHAR
STARTCHAR uni24DA
ENCODING 9434
SWIDTH 1120 0
DWIDTH 14 0
BBX 11 11 0 -2
BITMAP
0F80
3840
4820
8820
8820
8E20
8A20
8920
4820
2040
1D80
ENDCHAR
STARTCHAR uni24DB
ENCODING 9435
SWIDTH 1120 0
DWIDTH 14 0
BBX 11 11 0 -2
BITMAP
0F80
3040
4420
8420
8420
8420
8420
8420
4420
2040
1D80
ENDCHAR
STARTCHAR uni24DC
ENCODING 9436
SWIDTH 1120 0
DWIDTH 14 0
BBX 11 11 0 -2
BITMAP
0F80
3040
4020
9FA0
A460
A460
A460
8060
4020
2040
1D80
ENDCHAR
STARTCHAR uni24DD
ENCODING 9437
SWIDTH 1120 0
DWIDTH 14 0
BBX 11 11 0 -2
BITMAP
0F80
3040
4020
8F20
8920
8920
8920
8920
4020
2040
1D80
ENDCHAR
STARTCHAR uni24DE
ENCODING 9438
SWIDTH 1120 0
DWIDTH 14 0
BBX 11 11 0 -2
BITMAP
0F80
3040
4F20
98A0
90A0
90A0
98A0
8F20
4020
2040
1D80
ENDCHAR
STARTCHAR uni24DF
ENCODING 9439
SWIDTH 1120 0
DWIDTH 14 0
BBX 11 11 0 -2
BITMAP
0F80
3040
4720
88A0
88A0
88A0
9520
9220
4020
2040
1D80
ENDCHAR
STARTCHAR uni24E0
ENCODING 9440
SWIDTH 1120 0
DWIDTH 14 0
BBX 11 11 0 -2
BITMAP
0F00
30C0
4F40
9120
9120
9120
8B20
8520
4120
2040
1D80
ENDCHAR
STARTCHAR uni24E1
ENCODING 9441
SWIDTH 1120 0
DWIDTH 14 0
BBX 11 11 0 -2
BITMAP
0F80
3040
4020
8720
8420
8420
8420
8420
4020
2040
1D80
ENDCHAR
STARTCHAR uni24E2
ENCODING 9442
SWIDTH 1120 0
DWIDTH 14 0
BBX 11 11 0 -2
BITMAP
0F80
3040
4E20
9120
8820
8620
8120
8E20
4020
2040
1D80
ENDCHAR
STARTCHAR uni24E3
ENCODING 9443
SWIDTH 1120 0
DWIDTH 14 0
BBX 11 11 0 -2
BITMAP
0F80
3440
4420
8E20
8420
8420
8420
8420
4220
2040
1D80
ENDCHAR
STARTCHAR uni24E4
ENCODING 9444
SWIDTH 1120 0
DWIDTH 14 0
BBX 11 11 0 -2
BITMAP
0F80
3040
4020
8920
8920
8920
8920
8920
4620
2040
1D80
ENDCHAR
STARTCHAR uni24E5
ENCODING 9445
SWIDTH 1120 0
DWIDTH 14 0
BBX 11 11 0 -2
BITMAP
0F80
3040
4020
8020
8920
8A20
8620
8620
4020
2040
1D80
ENDCHAR
STARTCHAR uni24E6
ENCODING 9446
SWIDTH 1120 0
DWIDTH 14 0
BBX 11 11 0 -2
BITMAP
0F80
3040
4020
8260
92A0
96A0
9AA0
9920
4020
2040
1D80
ENDCHAR
STARTCHAR uni24E7
ENCODING 9447
SWIDTH 1120 0
DWIDTH 14 0
BBX 11 11 0 -2
BITMAP
0F80
3040
4020
8920
8620
8420
8620
8920
4020
2040
1D80
ENDCHAR
STARTCHAR uni24E8
ENCODING 9448
SWIDTH 1120 0
DWIDTH 14 0
BBX 11 11 0 -2
BITMAP
0F80
3040
4820
8920
8920
8620
8220
8420
4420
2040
1D80
ENDCHAR
STARTCHAR uni24E9
ENCODING 9449
SWIDTH 1120 0
DWIDTH 14 0
BBX 11 11 0 -2
BITMAP
0F80
3040
4020
8F20
8220
8420
8820
8F20
4020
2040
1D80
ENDCHAR
STARTCHAR SF100000
ENCODING 9472
SWIDTH 1120 0
DWIDTH 14 0
BBX 12 1 0 3
BITMAP
FFF0
ENDCHAR
STARTCHAR uni2501
ENCODING 9473
SWIDTH 1120 0
DWIDTH 14 0
BBX 12 1 0 3
BITMAP
FFF0
ENDCHAR
STARTCHAR SF110000
ENCODING 9474
SWIDTH 1120 0
DWIDTH 14 0
BBX 1 12 5 -2
BITMAP
80
80
80
80
80
80
80
80
80
80
80
80
ENDCHAR
STARTCHAR uni2503
ENCODING 9475
SWIDTH 1120 0
DWIDTH 14 0
BBX 1 12 6 -2
BITMAP
80
80
80
80
80
80
80
80
80
80
80
80
ENDCHAR
STARTCHAR SF010000
ENCODING 9484
SWIDTH 1120 0
DWIDTH 14 0
BBX 7 6 3 -2
BITMAP
FE
80
80
80
80
80
ENDCHAR
STARTCHAR uni250D
ENCODING 9485
SWIDTH 1120 0
DWIDTH 14 0
BBX 7 6 3 -2
BITMAP
FE
80
80
80
80
80
ENDCHAR
STARTCHAR uni250E
ENCODING 9486
SWIDTH 1120 0
DWIDTH 14 0
BBX 7 6 3 -2
BITMAP
FE
80
80
80
80
80
ENDCHAR
STARTCHAR uni250F
ENCODING 9487
SWIDTH 1120 0
DWIDTH 14 0
BBX 7 6 3 -2
BITMAP
FE
80
80
80
80
80
ENDCHAR
STARTCHAR SF030000
ENCODING 9488
SWIDTH 1120 0
DWIDTH 14 0
BBX 7 6 2 -2
BITMAP
FE
02
02
02
02
02
ENDCHAR
STARTCHAR uni2511
ENCODING 9489
SWIDTH 1120 0
DWIDTH 14 0
BBX 7 6 2 -2
BITMAP
FE
02
02
02
02
02
ENDCHAR
STARTCHAR uni2512
ENCODING 9490
SWIDTH 1120 0
DWIDTH 14 0
BBX 7 6 2 -2
BITMAP
FE
02
02
02
02
02
ENDCHAR
STARTCHAR uni2513
ENCODING 9491
SWIDTH 1120 0
DWIDTH 14 0
BBX 7 6 2 -2
BITMAP
FE
02
02
02
02
02
ENDCHAR
STARTCHAR SF020000
ENCODING 9492
SWIDTH 1120 0
DWIDTH 14 0
BBX 7 7 3 3
BITMAP
80
80
80
80
80
80
FE
ENDCHAR
STARTCHAR uni2515
ENCODING 9493
SWIDTH 1120 0
DWIDTH 14 0
BBX 7 7 3 3
BITMAP
80
80
80
80
80
80
FE
ENDCHAR
STARTCHAR uni2516
ENCODING 9494
SWIDTH 1120 0
DWIDTH 14 0
BBX 7 7 3 3
BITMAP
80
80
80
80
80
80
FE
ENDCHAR
STARTCHAR uni2517
ENCODING 9495
SWIDTH 1120 0
DWIDTH 14 0
BBX 7 7 3 3
BITMAP
80
80
80
80
80
80
FE
ENDCHAR
STARTCHAR SF040000
ENCODING 9496
SWIDTH 1120 0
DWIDTH 14 0
BBX 7 7 2 3
BITMAP
02
02
02
02
02
02
FE
ENDCHAR
STARTCHAR uni2519
ENCODING 9497
SWIDTH 1120 0
DWIDTH 14 0
BBX 7 7 2 3
BITMAP
02
02
02
02
02
02
FE
ENDCHAR
STARTCHAR uni251A
ENCODING 9498
SWIDTH 1120 0
DWIDTH 14 0
BBX 7 7 2 3
BITMAP
02
02
02
02
02
02
FE
ENDCHAR
STARTCHAR uni251B
ENCODING 9499
SWIDTH 1120 0
DWIDTH 14 0
BBX 7 7 2 3
BITMAP
02
02
02
02
02
02
FE
ENDCHAR
STARTCHAR SF080000
ENCODING 9500
SWIDTH 1120 0
DWIDTH 14 0
BBX 7 12 3 -2
BITMAP
80
80
80
80
80
80
FE
80
80
80
80
80
ENDCHAR
STARTCHAR uni251D
ENCODING 9501
SWIDTH 1120 0
DWIDTH 14 0
BBX 7 12 3 -2
BITMAP
80
80
80
80
80
80
FE
80
80
80
80
80
ENDCHAR
STARTCHAR uni251E
ENCODING 9502
SWIDTH 1120 0
DWIDTH 14 0
BBX 7 12 3 -2
BITMAP
80
80
80
80
80
80
FE
80
80
80
80
80
ENDCHAR
STARTCHAR uni251F
ENCODING 9503
SWIDTH 1120 0
DWIDTH 14 0
BBX 7 12 3 -2
BITMAP
80
80
80
80
80
80
FE
80
80
80
80
80
ENDCHAR
STARTCHAR uni2520
ENCODING 9504
SWIDTH 1120 0
DWIDTH 14 0
BBX 7 12 3 -2
BITMAP
80
80
80
80
80
80
FE
80
80
80
80
80
ENDCHAR
STARTCHAR uni2521
ENCODING 9505
SWIDTH 1120 0
DWIDTH 14 0
BBX 7 12 3 -2
BITMAP
80
80
80
80
80
80
FE
80
80
80
80
80
ENDCHAR
STARTCHAR uni2522
ENCODING 9506
SWIDTH 1120 0
DWIDTH 14 0
BBX 7 12 3 -2
BITMAP
80
80
80
80
80
80
FE
80
80
80
80
80
ENDCHAR
STARTCHAR uni2523
ENCODING 9507
SWIDTH 1120 0
DWIDTH 14 0
BBX 7 12 3 -2
BITMAP
80
80
80
80
80
80
FE
80
80
80
80
80
ENDCHAR
STARTCHAR SF090000
ENCODING 9508
SWIDTH 1120 0
DWIDTH 14 0
BBX 7 12 2 -2
BITMAP
02
02
02
02
02
02
FE
02
02
02
02
02
ENDCHAR
STARTCHAR uni2525
ENCODING 9509
SWIDTH 1120 0
DWIDTH 14 0
BBX 7 12 2 -2
BITMAP
02
02
02
02
02
02
FE
02
02
02
02
02
ENDCHAR
STARTCHAR uni2526
ENCODING 9510
SWIDTH 1120 0
DWIDTH 14 0
BBX 7 12 2 -2
BITMAP
02
02
02
02
02
02
FE
02
02
02
02
02
ENDCHAR
STARTCHAR uni2527
ENCODING 9511
SWIDTH 1120 0
DWIDTH 14 0
BBX 7 12 2 -2
BITMAP
02
02
02
02
02
02
FE
02
02
02
02
02
ENDCHAR
STARTCHAR uni2528
ENCODING 9512
SWIDTH 1120 0
DWIDTH 14 0
BBX 7 12 2 -2
BITMAP
02
02
02
02
02
02
FE
02
02
02
02
02
ENDCHAR
STARTCHAR uni2529
ENCODING 9513
SWIDTH 1120 0
DWIDTH 14 0
BBX 7 12 2 -2
BITMAP
02
02
02
02
02
02
FE
02
02
02
02
02
ENDCHAR
STARTCHAR uni252A
ENCODING 9514
SWIDTH 1120 0
DWIDTH 14 0
BBX 7 12 2 -2
BITMAP
02
02
02
02
02
02
FE
02
02
02
02
02
ENDCHAR
STARTCHAR uni252B
ENCODING 9515
SWIDTH 1120 0
DWIDTH 14 0
BBX 7 12 2 -2
BITMAP
02
02
02
02
02
02
FE
02
02
02
02
02
ENDCHAR
STARTCHAR SF060000
ENCODING 9516
SWIDTH 1120 0
DWIDTH 14 0
BBX 13 6 -1 -2
BITMAP
FFF8
0200
0200
0200
0200
0200
ENDCHAR
STARTCHAR uni252D
ENCODING 9517
SWIDTH 1120 0
DWIDTH 14 0
BBX 13 6 -1 -2
BITMAP
FFF8
0200
0200
0200
0200
0200
ENDCHAR
STARTCHAR uni252E
ENCODING 9518
SWIDTH 1120 0
DWIDTH 14 0
BBX 13 6 -1 -2
BITMAP
FFF8
0200
0200
0200
0200
0200
ENDCHAR
STARTCHAR uni252F
ENCODING 9519
SWIDTH 1120 0
DWIDTH 14 0
BBX 13 6 -1 -2
BITMAP
FFF8
0200
0200
0200
0200
0200
ENDCHAR
STARTCHAR uni2530
ENCODING 9520
SWIDTH 1120 0
DWIDTH 14 0
BBX 13 6 0 -2
BITMAP
FFF8
0200
0200
0200
0200
0200
ENDCHAR
STARTCHAR uni2531
ENCODING 9521
SWIDTH 1120 0
DWIDTH 14 0
BBX 13 6 0 -2
BITMAP
FFF8
0200
0200
0200
0200
0200
ENDCHAR
STARTCHAR uni2532
ENCODING 9522
SWIDTH 1120 0
DWIDTH 14 0
BBX 13 6 0 -2
BITMAP
FFF8
0200
0200
0200
0200
0200
ENDCHAR
STARTCHAR uni2533
ENCODING 9523
SWIDTH 1120 0
DWIDTH 14 0
BBX 13 6 0 -2
BITMAP
FFF8
0200
0200
0200
0200
0200
ENDCHAR
STARTCHAR SF070000
ENCODING 9524
SWIDTH 1120 0
DWIDTH 14 0
BBX 13 7 -1 3
BITMAP
0200
0200
0200
0200
0200
0200
FFF8
ENDCHAR
STARTCHAR uni2535
ENCODING 9525
SWIDTH 1120 0
DWIDTH 14 0
BBX 13 7 -1 3
BITMAP
0200
0200
0200
0200
0200
0200
FFF8
ENDCHAR
STARTCHAR uni2536
ENCODING 9526
SWIDTH 1120 0
DWIDTH 14 0
BBX 13 7 -1 3
BITMAP
0200
0200
0200
0200
0200
0200
FFF8
ENDCHAR
STARTCHAR uni2537
ENCODING 9527
SWIDTH 1120 0
DWIDTH 14 0
BBX 13 7 -1 3
BITMAP
0200
0200
0200
0200
0200
0200
FFF8
ENDCHAR
STARTCHAR uni2538
ENCODING 9528
SWIDTH 1120 0
DWIDTH 14 0
BBX 13 7 0 3
BITMAP
0200
0200
0200
0200
0200
0200
FFF8
ENDCHAR
STARTCHAR uni2539
ENCODING 9529
SWIDTH 1120 0
DWIDTH 14 0
BBX 13 7 0 3
BITMAP
0200
0200
0200
0200
0200
0200
FFF8
ENDCHAR
STARTCHAR uni253A
ENCODING 9530
SWIDTH 1120 0
DWIDTH 14 0
BBX 13 7 0 3
BITMAP
0200
0200
0200
0200
0200
0200
FFF8
ENDCHAR
STARTCHAR uni253B
ENCODING 9531
SWIDTH 1120 0
DWIDTH 14 0
BBX 13 7 0 3
BITMAP
0200
0200
0200
0200
0200
0200
FFF8
ENDCHAR
STARTCHAR SF050000
ENCODING 9532
SWIDTH 1120 0
DWIDTH 14 0
BBX 13 12 -1 -2
BITMAP
0200
0200
0200
0200
0200
0200
FFF8
0200
0200
0200
0200
0200
ENDCHAR
STARTCHAR uni253D
ENCODING 9533
SWIDTH 1120 0
DWIDTH 14 0
BBX 13 12 -1 -2
BITMAP
0200
0200
0200
0200
0200
0200
FFF8
0200
0200
0200
0200
0200
ENDCHAR
STARTCHAR uni253E
ENCODING 9534
SWIDTH 1120 0
DWIDTH 14 0
BBX 13 12 -1 -2
BITMAP
0200
0200
0200
0200
0200
0200
FFF8
0200
0200
0200
0200
0200
ENDCHAR
STARTCHAR uni253F
ENCODING 9535
SWIDTH 1120 0
DWIDTH 14 0
BBX 13 11 -1 -2
BITMAP
0200
0200
0200
0200
0200
FFF8
0200
0200
0200
0200
0200
ENDCHAR
STARTCHAR uni2540
ENCODING 9536
SWIDTH 1120 0
DWIDTH 14 0
BBX 13 12 0 -2
BITMAP
0200
0200
0200
0200
0200
0200
FFF8
0400
0400
0400
0400
0400
ENDCHAR
STARTCHAR uni2541
ENCODING 9537
SWIDTH 1120 0
DWIDTH 14 0
BBX 13 12 0 -2
BITMAP
0400
0400
0400
0400
0400
0400
FFF8
0200
0200
0200
0200
0200
ENDCHAR
STARTCHAR uni2542
ENCODING 9538
SWIDTH 1120 0
DWIDTH 14 0
BBX 13 12 0 -2
BITMAP
0200
0200
0200
0200
0200
0200
FFF8
0200
0200
0200
0200
0200
ENDCHAR
STARTCHAR uni2543
ENCODING 9539
SWIDTH 1120 0
DWIDTH 14 0
BBX 13 12 0 -2
BITMAP
0200
0200
0200
0200
0200
0200
FFF8
0400
0400
0400
0400
0400
ENDCHAR
STARTCHAR uni2544
ENCODING 9540
SWIDTH 1120 0
DWIDTH 14 0
BBX 13 12 0 -2
BITMAP
0200
0200
0200
0200
0200
0200
FFF8
0400
0400
0400
0400
0400
ENDCHAR
STARTCHAR uni2545
ENCODING 9541
SWIDTH 1120 0
DWIDTH 14 0
BBX 13 12 0 -2
BITMAP
0400
0400
0400
0400
0400
0400
FFF8
0200
0200
0200
0200
0200
ENDCHAR
STARTCHAR uni2546
ENCODING 9542
SWIDTH 1120 0
DWIDTH 14 0
BBX 13 12 0 -2
BITMAP
0400
0400
0400
0400
0400
0400
FFF8
0200
0200
0200
0200
0200
ENDCHAR
STARTCHAR uni2547
ENCODING 9543
SWIDTH 1120 0
DWIDTH 14 0
BBX 13 12 0 -2
BITMAP
0200
0200
0200
0200
0200
0200
FFF8
0400
0400
0400
0400
0400
ENDCHAR
STARTCHAR uni2548
ENCODING 9544
SWIDTH 1120 0
DWIDTH 14 0
BBX 13 12 0 -2
BITMAP
0400
0400
0400
0400
0400
0400
FFF8
0200
0200
0200
0200
0200
ENDCHAR
STARTCHAR uni2549
ENCODING 9545
SWIDTH 1120 0
DWIDTH 14 0
BBX 13 12 -1 -2
BITMAP
0200
0200
0200
0200
0200
0200
FFF8
0200
0200
0200
0200
0200
ENDCHAR
STARTCHAR uni254A
ENCODING 9546
SWIDTH 1120 0
DWIDTH 14 0
BBX 13 12 0 -2
BITMAP
0200
0200
0200
0200
0200
0200
FFF8
0200
0200
0200
0200
0200
ENDCHAR
STARTCHAR uni254B
ENCODING 9547
SWIDTH 1120 0
DWIDTH 14 0
BBX 13 12 0 -2
BITMAP
0200
0200
0200
0200
0200
0200
FFF8
0200
0200
0200
0200
0200
ENDCHAR
STARTCHAR shade
ENCODING 9618
SWIDTH 1120 0
DWIDTH 14 0
BBX 10 11 1 -2
BITMAP
FFC0
B5C0
CA40
B5C0
CA40
FFC0
B5C0
E8C0
B5C0
E8C0
FFC0
ENDCHAR
STARTCHAR filledbox
ENCODING 9632
SWIDTH 1120 0
DWIDTH 14 0
BBX 10 9 1 -1
BITMAP
FFC0
FFC0
FFC0
FFC0
FFC0
FFC0
FFC0
FFC0
FFC0
ENDCHAR
STARTCHAR H22073
ENCODING 9633
SWIDTH 1120 0
DWIDTH 14 0
BBX 10 10 1 -1
BITMAP
FFC0
8040
8040
8040
8040
8040
8040
8040
8040
FFC0
ENDCHAR
STARTCHAR uni25A3
ENCODING 9635
SWIDTH 1120 0
DWIDTH 14 0
BBX 10 11 1 -2
BITMAP
FFC0
8040
8040
BF40
BF40
BF40
BF40
BF40
8040
8040
FFC0
ENDCHAR
STARTCHAR uni25A4
ENCODING 9636
SWIDTH 1120 0
DWIDTH 14 0
BBX 10 10 1 -1
BITMAP
FFC0
8040
8040
FFC0
8040
FFC0
8040
FFC0
8040
FFC0
ENDCHAR
STARTCHAR uni25A5
ENCODING 9637
SWIDTH 1120 0
DWIDTH 14 0
BBX 10 11 1 -2
BITMAP
FFC0
A940
A940
A940
A940
A940
A940
A940
A940
A940
FFC0
ENDCHAR
STARTCHAR uni25A6
ENCODING 9638
SWIDTH 1120 0
DWIDTH 14 0
BBX 10 10 1 -1
BITMAP
FFC0
A940
A940
FFC0
A940
FFC0
A940
FFC0
A940
FFC0
ENDCHAR
STARTCHAR uni25A7
ENCODING 9639
SWIDTH 1120 0
DWIDTH 14 0
BBX 10 11 1 -2
BITMAP
FFC0
C840
A440
9240
8940
84C0
C240
A140
90C0
8840
FFC0
ENDCHAR
STARTCHAR uni25A8
ENCODING 9640
SWIDTH 1120 0
DWIDTH 14 0
BBX 10 11 1 -2
BITMAP
FFC0
8840
91C0
A240
C440
8840
91C0
A240
C440
8840
FFC0
ENDCHAR
STARTCHAR uni25A9
ENCODING 9641
SWIDTH 1120 0
DWIDTH 14 0
BBX 10 10 1 -1
BITMAP
FFC0
CC40
B3C0
A340
D4C0
8840
D5C0
B340
CEC0
FFC0
ENDCHAR
STARTCHAR triagup
ENCODING 9650
SWIDTH 1120 0
DWIDTH 14 0
BBX 10 8 1 -1
BITMAP
0C00
0E00
1E00
3F00
3F00
7F80
7F80
FFC0
ENDCHAR
STARTCHAR uni25B3
ENCODING 9651
SWIDTH 1120 0
DWIDTH 14 0
BBX 10 9 1 -1
BITMAP
0800
1400
1400
2200
4100
4100
8080
8080
FFC0
ENDCHAR
STARTCHAR uni25B6
ENCODING 9654
SWIDTH 1120 0
DWIDTH 14 0
BBX 8 9 2 -1
BITMAP
80
E0
F0
FC
FF
FC
F0
E0
80
ENDCHAR
STARTCHAR uni25B7
ENCODING 9655
SWIDTH 1120 0
DWIDTH 14 0
BBX 8 9 2 -1
BITMAP
80
E0
98
84
83
86
98
A0
C0
ENDCHAR
STARTCHAR triagdn
ENCODING 9660
SWIDTH 1120 0
DWIDTH 14 0
BBX 10 8 1 0
BITMAP
FFC0
7F80
7F80
3F00
3F00
1E00
0E00
0C00
ENDCHAR
STARTCHAR uni25BD
ENCODING 9661
SWIDTH 1120 0
DWIDTH 14 0
BBX 10 9 1 -1
BITMAP
FFC0
8080
8080
4100
4100
2200
1400
1400
0800
ENDCHAR
STARTCHAR uni25C0
ENCODING 9664
SWIDTH 1120 0
DWIDTH 14 0
BBX 8 9 2 -1
BITMAP
01
07
0F
3F
FF
3F
0F
07
01
ENDCHAR
STARTCHAR uni25C1
ENCODING 9665
SWIDTH 1120 0
DWIDTH 14 0
BBX 8 9 2 -1
BITMAP
01
07
19
61
81
41
31
0D
03
ENDCHAR
STARTCHAR uni25C6
ENCODING 9670
SWIDTH 1120 0
DWIDTH 14 0
BBX 10 10 1 -1
BITMAP
0400
0E00
1F00
3F80
7F80
FFC0
7F80
3F00
1E00
0C00
ENDCHAR
STARTCHAR uni25C7
ENCODING 9671
SWIDTH 1120 0
DWIDTH 14 0
BBX 11 11 0 -2
BITMAP
0200
0D00
1080
2040
4040
8020
4040
2080
1100
0A00
0400
ENDCHAR
STARTCHAR uni25C8
ENCODING 9672
SWIDTH 1120 0
DWIDTH 14 0
BBX 11 11 0 -2
BITMAP
0200
0D00
1700
2F80
5FC0
BFE0
5FC0
2F80
1680
0900
0600
ENDCHAR
STARTCHAR circle
ENCODING 9675
SWIDTH 1120 0
DWIDTH 14 0
BBX 10 11 1 -2
BITMAP
1E00
2100
4080
8040
8040
8040
8040
8040
4080
2180
1E00
ENDCHAR
STARTCHAR uni25CE
ENCODING 9678
SWIDTH 1120 0
DWIDTH 14 0
BBX 10 11 1 -2
BITMAP
1E00
6180
5E80
A140
C0C0
C0C0
C0C0
A180
5E80
2300
1C00
ENDCHAR
STARTCHAR H18533
ENCODING 9679
SWIDTH 1120 0
DWIDTH 14 0
BBX 10 10 1 -1
BITMAP
1E00
3F80
7F80
FFC0
FFC0
FFC0
FFC0
7F80
7F80
1E00
ENDCHAR
STARTCHAR uni25D0
ENCODING 9680
SWIDTH 1120 0
DWIDTH 14 0
BBX 10 11 1 -2
BITMAP
1E00
3180
7080
F040
F040
F040
F040
F0C0
7080
3380
1E00
ENDCHAR
STARTCHAR uni25D1
ENCODING 9681
SWIDTH 1120 0
DWIDTH 14 0
BBX 10 11 1 -2
BITMAP
1E00
6300
4380
83C0
83C0
83C0
83C0
4380
4380
3200
0C00
ENDCHAR
STARTCHAR uni2605
ENCODING 9733
SWIDTH 1120 0
DWIDTH 14 0
BBX 8 8 2 0
BITMAP
18
18
18
FF
7E
3C
7C
66
ENDCHAR
STARTCHAR uni2606
ENCODING 9734
SWIDTH 1120 0
DWIDTH 14 0
BBX 8 9 2 -1
BITMAP
08
18
18
E7
81
46
44
5A
66
ENDCHAR
STARTCHAR uni260E
ENCODING 9742
SWIDTH 1120 0
DWIDTH 14 0
BBX 10 8 1 0
BITMAP
3F00
F3C0
DEC0
9240
2100
6180
7380
FF80
ENDCHAR
STARTCHAR uni260F
ENCODING 9743
SWIDTH 1120 0
DWIDTH 14 0
BBX 11 9 0 -1
BITMAP
1F80
7060
BFA0
D760
3980
3140
5140
4E40
3980
ENDCHAR
STARTCHAR uni261C
ENCODING 9756
SWIDTH 1120 0
DWIDTH 14 0
BBX 12 5 0 1
BITMAP
FFD0
7E30
1710
0F10
02E0
ENDCHAR
STARTCHAR uni261E
ENCODING 9758
SWIDTH 1120 0
DWIDTH 14 0
BBX 11 5 1 1
BITMAP
BFE0
C7C0
9F00
9600
6800
ENDCHAR
STARTCHAR female
ENCODING 9792
SWIDTH 1120 0
DWIDTH 14 0
BBX 9 11 1 -2
BITMAP
1C00
2200
2200
3200
0C00
0800
FF80
0800
0800
0800
0800
ENDCHAR
STARTCHAR male
ENCODING 9794
SWIDTH 1120 0
DWIDTH 14 0
BBX 5 11 3 -2
BITMAP
20
70
A8
28
20
20
20
D8
88
C8
70
ENDCHAR
STARTCHAR spade
ENCODING 9824
SWIDTH 1120 0
DWIDTH 14 0
BBX 8 10 2 -2
BITMAP
18
3C
7E
7E
FF
FF
FF
F7
18
18
ENDCHAR
STARTCHAR uni2661
ENCODING 9825
SWIDTH 1120 0
DWIDTH 14 0
BBX 8 10 2 -1
BITMAP
66
FF
99
81
81
81
42
44
24
18
ENDCHAR
STARTCHAR club
ENCODING 9827
SWIDTH 1120 0
DWIDTH 14 0
BBX 10 10 1 -1
BITMAP
1E00
1E00
1E00
1E00
6F80
FFC0
FFC0
FBC0
2D00
0C00
ENDCHAR
STARTCHAR uni2664
ENCODING 9828
SWIDTH 1120 0
DWIDTH 14 0
BBX 8 10 2 -2
BITMAP
18
24
42
42
81
81
99
FE
28
3C
ENDCHAR
STARTCHAR heart
ENCODING 9829
SWIDTH 1120 0
DWIDTH 14 0
BBX 10 10 1 -2
BITMAP
7780
FFC0
FFC0
FFC0
7F80
7F80
3F00
1E00
0C00
0C00
ENDCHAR
STARTCHAR uni2667
ENCODING 9831
SWIDTH 1120 0
DWIDTH 14 0
BBX 11 10 0 -2
BITMAP
1F00
1100
1100
0A00
79E0
8020
8A20
7BE0
0A00
0E00
ENDCHAR
STARTCHAR uni2668
ENCODING 9832
SWIDTH 1120 0
DWIDTH 14 0
BBX 10 10 1 -2
BITMAP
1A00
1A00
2A00
1600
1500
1600
5A40
8840
C1C0
3F00
ENDCHAR
STARTCHAR uni2669
ENCODING 9833
SWIDTH 1120 0
DWIDTH 14 0
BBX 3 10 5 -1
BITMAP
20
20
20
20
20
20
20
20
60
C0
ENDCHAR
STARTCHAR musicalnote
ENCODING 9834
SWIDTH 1120 0
DWIDTH 14 0
BBX 6 10 3 -1
BITMAP
20
30
38
2C
24
24
24
20
60
C0
ENDCHAR
STARTCHAR uni266C
ENCODING 9836
SWIDTH 1120 0
DWIDTH 14 0
BBX 8 9 2 -1
BITMAP
3F
21
3F
21
21
21
21
E7
C4
ENDCHAR
STARTCHAR uni266D
ENCODING 9837
SWIDTH 1120 0
DWIDTH 14 0
BBX 4 9 4 -1
BITMAP
80
80
80
F0
90
90
90
A0
C0
ENDCHAR
STARTCHAR uni3000
ENCODING 12288
SWIDTH 1120 0
DWIDTH 14 0
BBX 0 0 0 0
BITMAP
ENDCHAR
STARTCHAR uni3001
ENCODING 12289
SWIDTH 1120 0
DWIDTH 14 0
BBX 2 2 5 7
BITMAP
80
40
ENDCHAR
STARTCHAR uni3002
ENCODING 12290
SWIDTH 1120 0
DWIDTH 14 0
BBX 3 2 4 7
BITMAP
E0
A0
ENDCHAR
STARTCHAR uni3003
ENCODING 12291
SWIDTH 1120 0
DWIDTH 14 0
BBX 4 4 4 2
BITMAP
50
60
A0
A0
ENDCHAR
STARTCHAR uni3008
ENCODING 12296
SWIDTH 1120 0
DWIDTH 14 0
BBX 4 10 4 -2
BITMAP
20
40
40
80
80
80
40
20
10
10
ENDCHAR
STARTCHAR uni3009
ENCODING 12297
SWIDTH 1120 0
DWIDTH 14 0
BBX 4 10 4 -1
BITMAP
80
80
40
20
20
10
20
20
40
80
ENDCHAR
STARTCHAR uni300A
ENCODING 12298
SWIDTH 1120 0
DWIDTH 14 0
BBX 5 9 3 -1
BITMAP
30
30
60
60
C0
60
60
30
28
ENDCHAR
STARTCHAR uni300B
ENCODING 12299
SWIDTH 1120 0
DWIDTH 14 0
BBX 4 9 4 -1
BITMAP
C0
A0
60
50
30
30
60
C0
C0
ENDCHAR
STARTCHAR uni300C
ENCODING 12300
SWIDTH 1120 0
DWIDTH 14 0
BBX 4 6 7 4
BITMAP
F0
80
80
80
80
80
ENDCHAR
STARTCHAR uni300D
ENCODING 12301
SWIDTH 1120 0
DWIDTH 14 0
BBX 4 6 1 -2
BITMAP
10
10
10
10
10
F0
ENDCHAR
STARTCHAR uni300E
ENCODING 12302
SWIDTH 1120 0
DWIDTH 14 0
BBX 5 6 6 4
BITMAP
F8
F8
C0
C0
C0
C0
ENDCHAR
STARTCHAR uni300F
ENCODING 12303
SWIDTH 1120 0
DWIDTH 14 0
BBX 5 5 1 -2
BITMAP
18
18
18
18
F8
ENDCHAR
STARTCHAR uni3010
ENCODING 12304
SWIDTH 1120 0
DWIDTH 14 0
BBX 3 11 7 -2
BITMAP
E0
E0
C0
C0
C0
C0
C0
C0
C0
E0
E0
ENDCHAR
STARTCHAR uni3011
ENCODING 12305
SWIDTH 1120 0
DWIDTH 14 0
BBX 3 11 2 -2
BITMAP
E0
E0
60
60
60
60
60
60
60
E0
E0
ENDCHAR
STARTCHAR uni3013
ENCODING 12307
SWIDTH 1120 0
DWIDTH 14 0
BBX 8 3 2 2
BITMAP
FF
00
FF
ENDCHAR
STARTCHAR uni3014
ENCODING 12308
SWIDTH 1120 0
DWIDTH 14 0
BBX 3 11 8 -2
BITMAP
60
80
80
80
80
80
80
80
80
80
60
ENDCHAR
STARTCHAR uni3015
ENCODING 12309
SWIDTH 1120 0
DWIDTH 14 0
BBX 3 11 1 -2
BITMAP
C0
20
20
20
20
20
20
20
20
20
C0
ENDCHAR
STARTCHAR uni3041
ENCODING 12353
SWIDTH 1120 0
DWIDTH 14 0
BBX 7 7 2 -1
BITMAP
10
38
20
3E
72
92
64
ENDCHAR
STARTCHAR uni3042
ENCODING 12354
SWIDTH 1120 0
DWIDTH 14 0
BBX 9 10 1 -1
BITMAP
0800
1200
7C00
1200
1D00
3480
5480
8880
9880
6300
ENDCHAR
STARTCHAR uni3043
ENCODING 12355
SWIDTH 1120 0
DWIDTH 14 0
BBX 6 5 3 -1
BITMAP
80
88
84
84
60
ENDCHAR
STARTCHAR uni3044
ENCODING 12356
SWIDTH 1120 0
DWIDTH 14 0
BBX 9 6 1 0
BITMAP
8100
8080
8080
4080
4000
3000
ENDCHAR
STARTCHAR uni3045
ENCODING 12357
SWIDTH 1120 0
DWIDTH 14 0
BBX 3 7 5 -1
BITMAP
40
00
E0
20
20
20
40
ENDCHAR
STARTCHAR uni3046
ENCODING 12358
SWIDTH 1120 0
DWIDTH 14 0
BBX 6 10 3 -1
BITMAP
30
08
00
78
84
04
04
08
08
10
ENDCHAR
STARTCHAR uni3047
ENCODING 12359
SWIDTH 1120 0
DWIDTH 14 0
BBX 6 7 3 -2
BITMAP
10
00
70
20
30
D0
8C
ENDCHAR
STARTCHAR uni3048
ENCODING 12360
SWIDTH 1120 0
DWIDTH 14 0
BBX 8 9 2 -1
BITMAP
10
08
1C
28
10
38
28
48
87
ENDCHAR
STARTCHAR uni3049
ENCODING 12361
SWIDTH 1120 0
DWIDTH 14 0
BBX 7 7 2 -2
BITMAP
20
32
20
3E
E2
A0
40
ENDCHAR
STARTCHAR uni304A
ENCODING 12362
SWIDTH 1120 0
DWIDTH 14 0
BBX 9 10 1 -1
BITMAP
1000
1000
1100
7880
1000
1300
1C80
7080
9080
7100
ENDCHAR
STARTCHAR uni304B
ENCODING 12363
SWIDTH 1120 0
DWIDTH 14 0
BBX 10 9 1 -1
BITMAP
1000
2000
1C80
E440
2440
4400
4400
8400
1800
ENDCHAR
STARTCHAR uni304C
ENCODING 12364
SWIDTH 1120 0
DWIDTH 14 0
BBX 10 10 1 -1
BITMAP
0040
1080
2000
3C80
6480
4440
4400
4400
8400
1800
ENDCHAR
STARTCHAR uni304D
ENCODING 12365
SWIDTH 1120 0
DWIDTH 14 0
BBX 7 9 2 -1
BITMAP
10
18
2A
1C
24
3E
C0
40
38
ENDCHAR
STARTCHAR uni304E
ENCODING 12366
SWIDTH 1120 0
DWIDTH 14 0
BBX 9 10 1 -1
BITMAP
0080
1100
1800
2A00
1C00
2400
3E00
C000
4000
3C00
ENDCHAR
STARTCHAR uni304F
ENCODING 12367
SWIDTH 1120 0
DWIDTH 14 0
BBX 4 9 4 -1
BITMAP
10
20
40
80
80
40
20
20
10
ENDCHAR
STARTCHAR uni3050
ENCODING 12368
SWIDTH 1120 0
DWIDTH 14 0
BBX 7 9 2 -1
BITMAP
10
12
20
40
80
40
20
10
08
ENDCHAR
STARTCHAR uni3051
ENCODING 12369
SWIDTH 1120 0
DWIDTH 14 0
BBX 8 9 1 -1
BITMAP
40
41
8F
81
81
82
82
42
44
ENDCHAR
STARTCHAR uni3052
ENCODING 12370
SWIDTH 1120 0
DWIDTH 14 0
BBX 10 10 1 -1
BITMAP
0040
0280
8280
9F00
8200
8200
8200
C200
8400
0400
ENDCHAR
STARTCHAR uni3053
ENCODING 12371
SWIDTH 1120 0
DWIDTH 14 0
BBX 8 8 2 0
BITMAP
3E
00
00
00
00
80
80
7F
ENDCHAR
STARTCHAR uni3054
ENCODING 12372
SWIDTH 1120 0
DWIDTH 14 0
BBX 9 8 1 0
BITMAP
3E00
0000
0080
0000
0000
8000
8000
7E00
ENDCHAR
STARTCHAR uni3055
ENCODING 12373
SWIDTH 1120 0
DWIDTH 14 0
BBX 7 8 2 -1
BITMAP
0E
78
04
02
7E
80
40
38
ENDCHAR
STARTCHAR uni3056
ENCODING 12374
SWIDTH 1120 0
DWIDTH 14 0
BBX 9 10 1 -1
BITMAP
0080
0000
0E00
7800
0400
0200
7E00
8000
4000
3800
ENDCHAR
STARTCHAR uni3057
ENCODING 12375
SWIDTH 1120 0
DWIDTH 14 0
BBX 7 9 2 -1
BITMAP
40
40
80
80
80
80
80
42
3C
ENDCHAR
STARTCHAR uni3058
ENCODING 12376
SWIDTH 1120 0
DWIDTH 14 0
BBX 7 10 2 -1
BITMAP
40
40
40
40
80
80
80
82
44
38
ENDCHAR
STARTCHAR uni3059
ENCODING 12377
SWIDTH 1120 0
DWIDTH 14 0
BBX 8 9 2 -1
BITMAP
08
0F
F8
38
48
48
38
10
20
ENDCHAR
STARTCHAR uni305A
ENCODING 12378
SWIDTH 1120 0
DWIDTH 14 0
BBX 8 10 2 -1
BITMAP
08
08
FF
08
38
48
48
38
10
20
ENDCHAR
STARTCHAR uni305B
ENCODING 12379
SWIDTH 1120 0
DWIDTH 14 0
BBX 10 9 1 -1
BITMAP
0100
0100
21C0
FF00
2100
2200
2000
1000
0F80
ENDCHAR
STARTCHAR uni305C
ENCODING 12380
SWIDTH 1120 0
DWIDTH 14 0
BBX 10 9 1 0
BITMAP
0040
2280
2200
7FC0
A200
2200
2600
2000
1F00
ENDCHAR
STARTCHAR uni305D
ENCODING 12381
SWIDTH 1120 0
DWIDTH 14 0
BBX 7 9 2 -1
BITMAP
02
24
08
1E
E8
10
10
10
0C
ENDCHAR
STARTCHAR uni305E
ENCODING 12382
SWIDTH 1120 0
DWIDTH 14 0
BBX 10 9 1 -1
BITMAP
0240
2400
0800
1F00
E800
1000
1000
1000
0E00
ENDCHAR
STARTCHAR uni305F
ENCODING 12383
SWIDTH 1120 0
DWIDTH 14 0
BBX 8 9 2 -1
BITMAP
20
20
C0
43
40
40
80
88
87
ENDCHAR
STARTCHAR uni3060
ENCODING 12384
SWIDTH 1120 0
DWIDTH 14 0
BBX 10 9 1 -1
BITMAP
0040
2080
F000
2700
4000
4000
4800
4800
8780
ENDCHAR
STARTCHAR uni3061
ENCODING 12385
SWIDTH 1120 0
DWIDTH 14 0
BBX 8 9 2 -1
BITMAP
20
24
F8
40
4E
71
01
01
0E
ENDCHAR
STARTCHAR uni3062
ENCODING 12386
SWIDTH 1120 0
DWIDTH 14 0
BBX 8 9 2 -1
BITMAP
20
45
F8
40
4E
71
01
03
1C
ENDCHAR
STARTCHAR uni3063
ENCODING 12387
SWIDTH 1120 0
DWIDTH 14 0
BBX 6 5 3 -1
BITMAP
18
E4
04
04
18
ENDCHAR
STARTCHAR uni3064
ENCODING 12388
SWIDTH 1120 0
DWIDTH 14 0
BBX 10 7 1 0
BITMAP
0F00
F080
0040
0040
0080
0100
0600
ENDCHAR
STARTCHAR uni3065
ENCODING 12389
SWIDTH 1120 0
DWIDTH 14 0
BBX 10 9 1 0
BITMAP
0040
0080
0E00
F180
0080
0080
0080
0100
0E00
ENDCHAR
STARTCHAR uni3066
ENCODING 12390
SWIDTH 1120 0
DWIDTH 14 0
BBX 8 9 2 -1
BITMAP
0F
F4
08
10
10
10
10
08
06
ENDCHAR
STARTCHAR uni3067
ENCODING 12391
SWIDTH 1120 0
DWIDTH 14 0
BBX 10 9 1 -1
BITMAP
0700
FC00
0840
1080
1000
1000
1000
0800
0600
ENDCHAR
STARTCHAR uni3068
ENCODING 12392
SWIDTH 1120 0
DWIDTH 14 0
BBX 7 9 2 -1
BITMAP
20
22
24
18
20
40
80
40
3C
ENDCHAR
STARTCHAR uni3069
ENCODING 12393
SWIDTH 1120 0
DWIDTH 14 0
BBX 9 10 1 -1
BITMAP
0080
2100
2200
2400
1800
2000
4000
8000
4000
3C00
ENDCHAR
STARTCHAR uni306A
ENCODING 12394
SWIDTH 1120 0
DWIDTH 14 0
BBX 9 10 2 -1
BITMAP
2000
4000
E200
4180
8400
8400
0400
1C00
2700
3800
ENDCHAR
STARTCHAR uni306B
ENCODING 12395
SWIDTH 1120 0
DWIDTH 14 0
BBX 9 8 1 0
BITMAP
4000
4780
4000
8000
8000
8000
4800
4780
ENDCHAR
STARTCHAR uni306C
ENCODING 12396
SWIDTH 1120 0
DWIDTH 14 0
BBX 9 8 1 -1
BITMAP
4800
5F00
6880
B080
9080
9280
A580
4200
ENDCHAR
STARTCHAR uni306D
ENCODING 12397
SWIDTH 1120 0
DWIDTH 14 0
BBX 10 9 1 -1
BITMAP
2000
2000
7700
3880
2080
6080
A380
2540
2200
ENDCHAR
STARTCHAR uni306E
ENCODING 12398
SWIDTH 1120 0
DWIDTH 14 0
BBX 10 8 1 0
BITMAP
0E00
3580
4880
8840
8840
9040
9080
6100
ENDCHAR
STARTCHAR uni306F
ENCODING 12399
SWIDTH 1120 0
DWIDTH 14 0
BBX 9 9 1 -1
BITMAP
4000
4200
8F00
8200
8200
8200
8F00
D180
4E00
ENDCHAR
STARTCHAR uni3070
ENCODING 12400
SWIDTH 1120 0
DWIDTH 14 0
BBX 10 10 1 -1
BITMAP
0040
4280
8200
9F00
8200
8200
8200
8F00
9280
0C00
ENDCHAR
STARTCHAR uni3071
ENCODING 12401
SWIDTH 1120 0
DWIDTH 14 0
BBX 10 9 1 -1
BITMAP
42C0
82C0
9F00
8200
8200
8200
8E00
D380
0C00
ENDCHAR
STARTCHAR uni3072
ENCODING 12402
SWIDTH 1120 0
DWIDTH 14 0
BBX 10 9 1 -1
BITMAP
0200
6100
4280
4240
4200
8200
4200
4400
3800
ENDCHAR
STARTCHAR uni3073
ENCODING 12403
SWIDTH 1120 0
DWIDTH 14 0
BBX 10 10 1 -1
BITMAP
0040
2200
E200
4300
8280
8200
8200
8200
4400
3800
ENDCHAR
STARTCHAR uni3074
ENCODING 12404
SWIDTH 1120 0
DWIDTH 14 0
BBX 10 9 1 -1
BITMAP
23C0
E2C0
4300
8280
8200
8200
8200
4400
3800
ENDCHAR
STARTCHAR uni3075
ENCODING 12405
SWIDTH 1120 0
DWIDTH 14 0
BBX 10 9 1 -1
BITMAP
0800
0400
0000
0000
0800
0480
8440
4200
0400
ENDCHAR
STARTCHAR uni3076
ENCODING 12406
SWIDTH 1120 0
DWIDTH 14 0
BBX 10 9 1 -1
BITMAP
0800
0400
0080
0000
0800
0480
8440
4200
0400
ENDCHAR
STARTCHAR uni3077
ENCODING 12407
SWIDTH 1120 0
DWIDTH 14 0
BBX 10 9 1 -1
BITMAP
0800
0580
0140
0080
0800
0480
8440
4200
0400
ENDCHAR
STARTCHAR uni3078
ENCODING 12408
SWIDTH 1120 0
DWIDTH 14 0
BBX 10 5 1 1
BITMAP
1000
2800
4600
8100
00C0
ENDCHAR
STARTCHAR uni3079
ENCODING 12409
SWIDTH 1120 0
DWIDTH 14 0
BBX 10 6 1 1
BITMAP
0080
1100
2800
4600
8100
00C0
ENDCHAR
STARTCHAR uni307A
ENCODING 12410
SWIDTH 1120 0
DWIDTH 14 0
BBX 10 6 1 1
BITMAP
01C0
1140
2880
4600
8100
00C0
ENDCHAR
STARTCHAR uni307B
ENCODING 12411
SWIDTH 1120 0
DWIDTH 14 0
BBX 10 9 1 -1
BITMAP
4F80
4100
8100
8F00
8100
8100
8700
59C0
4E00
ENDCHAR
STARTCHAR uni307C
ENCODING 12412
SWIDTH 1120 0
DWIDTH 14 0
BBX 9 9 1 -1
BITMAP
5F80
8200
8200
9F00
8200
8200
8E00
B380
9C00
ENDCHAR
STARTCHAR uni307D
ENCODING 12413
SWIDTH 1120 0
DWIDTH 14 0
BBX 10 9 1 -1
BITMAP
1F80
0340
82C0
9E00
8200
8200
8E00
B380
9C00
ENDCHAR
STARTCHAR uni307E
ENCODING 12414
SWIDTH 1120 0
DWIDTH 14 0
BBX 6 9 2 -1
BITMAP
08
08
3C
08
7C
08
08
FC
78
ENDCHAR
STARTCHAR uni307F
ENCODING 12415
SWIDTH 1120 0
DWIDTH 14 0
BBX 9 9 1 -1
BITMAP
0800
1800
0800
1100
3900
E700
A280
A200
4400
ENDCHAR
STARTCHAR uni3080
ENCODING 12416
SWIDTH 1120 0
DWIDTH 14 0
BBX 10 9 1 -1
BITMAP
1000
7880
1040
7000
9000
9000
6080
2080
1F00
ENDCHAR
STARTCHAR uni3081
ENCODING 12417
SWIDTH 1120 0
DWIDTH 14 0
BBX 10 9 1 -1
BITMAP
0200
4400
5F00
2480
6880
9840
9080
6880
0300
ENDCHAR
STARTCHAR uni3082
ENCODING 12418
SWIDTH 1120 0
DWIDTH 14 0
BBX 7 9 3 -1
BITMAP
40
40
F0
40
84
C4
82
84
78
ENDCHAR
STARTCHAR uni3083
ENCODING 12419
SWIDTH 1120 0
DWIDTH 14 0
BBX 5 4 4 0
BITMAP
38
C8
B0
40
ENDCHAR
STARTCHAR uni3084
ENCODING 12420
SWIDTH 1120 0
DWIDTH 14 0
BBX 9 8 2 0
BITMAP
9000
4F00
7080
A080
2700
2000
1000
1000
ENDCHAR
STARTCHAR uni3085
ENCODING 12421
SWIDTH 1120 0
DWIDTH 14 0
BBX 7 6 2 -1
BITMAP
40
9C
AA
52
14
18
ENDCHAR
STARTCHAR uni3086
ENCODING 12422
SWIDTH 1120 0
DWIDTH 14 0
BBX 10 9 1 -1
BITMAP
4200
4300
4EC0
B240
A240
C240
4A80
4500
0800
ENDCHAR
STARTCHAR uni3087
ENCODING 12423
SWIDTH 1120 0
DWIDTH 14 0
BBX 6 6 3 -1
BITMAP
10
14
18
10
78
90
ENDCHAR
STARTCHAR uni3088
ENCODING 12424
SWIDTH 1120 0
DWIDTH 14 0
BBX 8 10 2 -1
BITMAP
08
08
0B
0C
08
08
08
7C
8B
70
ENDCHAR
STARTCHAR uni3089
ENCODING 12425
SWIDTH 1120 0
DWIDTH 14 0
BBX 7 9 3 -1
BITMAP
40
00
80
80
BC
C2
02
04
18
ENDCHAR
STARTCHAR uni308A
ENCODING 12426
SWIDTH 1120 0
DWIDTH 14 0
BBX 6 9 3 -1
BITMAP
40
84
84
84
84
88
08
08
10
ENDCHAR
STARTCHAR uni308B
ENCODING 12427
SWIDTH 1120 0
DWIDTH 14 0
BBX 8 9 2 -1
BITMAP
7C
08
10
3E
41
81
39
2A
1C
ENDCHAR
STARTCHAR uni308C
ENCODING 12428
SWIDTH 1120 0
DWIDTH 14 0
BBX 10 9 1 -1
BITMAP
2000
2000
7700
3900
2100
6100
A200
A240
2180
ENDCHAR
STARTCHAR uni308D
ENCODING 12429
SWIDTH 1120 0
DWIDTH 14 0
BBX 7 9 3 -1
BITMAP
F8
10
20
40
7C
82
02
04
18
ENDCHAR
STARTCHAR uni308E
ENCODING 12430
SWIDTH 1120 0
DWIDTH 14 0
BBX 7 6 3 -1
BITMAP
40
60
7C
C2
44
48
ENDCHAR
STARTCHAR uni308F
ENCODING 12431
SWIDTH 1120 0
DWIDTH 14 0
BBX 9 10 2 -1
BITMAP
2000
2000
3000
E700
3880
6080
A080
A080
2100
2200
ENDCHAR
STARTCHAR uni3090
ENCODING 12432
SWIDTH 1120 0
DWIDTH 14 0
BBX 9 9 1 -1
BITMAP
1C00
0400
0800
1F00
3080
5080
9480
AA80
4700
ENDCHAR
STARTCHAR uni3091
ENCODING 12433
SWIDTH 1120 0
DWIDTH 14 0
BBX 8 9 2 -1
BITMAP
3C
18
1E
62
3A
1E
66
B9
10
ENDCHAR
STARTCHAR uni3092
ENCODING 12434
SWIDTH 1120 0
DWIDTH 14 0
BBX 8 9 2 -1
BITMAP
10
30
40
7B
8C
30
40
20
1C
ENDCHAR
STARTCHAR uni3093
ENCODING 12435
SWIDTH 1120 0
DWIDTH 14 0
BBX 9 9 1 -1
BITMAP
0800
0800
0800
1000
2000
3C00
4400
4480
8300
ENDCHAR
STARTCHAR uni30A1
ENCODING 12449
SWIDTH 1120 0
DWIDTH 14 0
BBX 6 6 3 -1
BITMAP
FC
08
30
20
40
40
ENDCHAR
STARTCHAR uni30A2
ENCODING 12450
SWIDTH 1120 0
DWIDTH 14 0
BBX 8 8 2 0
BITMAP
FF
01
12
14
10
20
20
C0
ENDCHAR
STARTCHAR uni30A3
ENCODING 12451
SWIDTH 1120 0
DWIDTH 14 0
BBX 5 6 4 -1
BITMAP
08
10
60
A0
20
20
ENDCHAR
STARTCHAR uni30A4
ENCODING 12452
SWIDTH 1120 0
DWIDTH 14 0
BBX 8 9 2 -1
BITMAP
01
02
0C
18
E8
08
08
08
08
ENDCHAR
STARTCHAR uni30A5
ENCODING 12453
SWIDTH 1120 0
DWIDTH 14 0
BBX 6 5 3 -1
BITMAP
FC
84
88
10
20
ENDCHAR
STARTCHAR uni30A6
ENCODING 12454
SWIDTH 1120 0
DWIDTH 14 0
BBX 7 9 2 -1
BITMAP
10
FE
82
82
02
02
04
08
10
ENDCHAR
STARTCHAR uni30A7
ENCODING 12455
SWIDTH 1120 0
DWIDTH 14 0
BBX 7 5 2 -2
BITMAP
7C
10
10
10
FE
ENDCHAR
STARTCHAR uni30A8
ENCODING 12456
SWIDTH 1120 0
DWIDTH 14 0
BBX 9 6 1 1
BITMAP
7F00
0800
0800
0800
0800
FF80
ENDCHAR
STARTCHAR uni30A9
ENCODING 12457
SWIDTH 1120 0
DWIDTH 14 0
BBX 6 6 3 -1
BITMAP
10
FC
30
50
90
30
ENDCHAR
STARTCHAR uni30AA
ENCODING 12458
SWIDTH 1120 0
DWIDTH 14 0
BBX 9 8 2 0
BITMAP
0400
0400
FF80
0C00
1400
2400
C400
1C00
ENDCHAR
STARTCHAR uni30AB
ENCODING 12459
SWIDTH 1120 0
DWIDTH 14 0
BBX 8 9 2 -1
BITMAP
10
10
FF
11
11
22
42
82
0E
ENDCHAR
STARTCHAR uni30AC
ENCODING 12460
SWIDTH 1120 0
DWIDTH 14 0
BBX 8 9 2 -1
BITMAP
10
11
FF
11
11
22
42
82
0E
ENDCHAR
STARTCHAR uni30AD
ENCODING 12461
SWIDTH 1120 0
DWIDTH 14 0
BBX 8 9 2 -1
BITMAP
10
10
7C
10
13
FC
08
08
08
ENDCHAR
STARTCHAR uni30AE
ENCODING 12462
SWIDTH 1120 0
DWIDTH 14 0
BBX 9 8 1 0
BITMAP
1080
1000
7E00
0800
0B00
FC00
0800
0800
ENDCHAR
STARTCHAR uni30AF
ENCODING 12463
SWIDTH 1120 0
DWIDTH 14 0
BBX 8 8 2 -1
BITMAP
1F
22
42
04
08
18
20
C0
ENDCHAR
STARTCHAR uni30B0
ENCODING 12464
SWIDTH 1120 0
DWIDTH 14 0
BBX 10 10 1 -1
BITMAP
0040
1000
1F00
2200
4200
0400
0800
1000
2000
C000
ENDCHAR
STARTCHAR uni30B1
ENCODING 12465
SWIDTH 1120 0
DWIDTH 14 0
BBX 9 8 2 -1
BITMAP
2000
3F80
4400
8400
0800
0800
1000
2000
ENDCHAR
STARTCHAR uni30B2
ENCODING 12466
SWIDTH 1120 0
DWIDTH 14 0
BBX 10 10 1 -1
BITMAP
0040
1080
2000
3F80
4400
8400
0400
0800
0800
3000
ENDCHAR
STARTCHAR uni30B3
ENCODING 12467
SWIDTH 1120 0
DWIDTH 14 0
BBX 7 7 3 0
BITMAP
FE
02
02
02
02
FE
02
ENDCHAR
STARTCHAR uni30B4
ENCODING 12468
SWIDTH 1120 0
DWIDTH 14 0
BBX 9 9 1 0
BITMAP
0080
0080
FE00
0200
0200
0200
0200
FE00
0200
ENDCHAR
STARTCHAR uni30B5
ENCODING 12469
SWIDTH 1120 0
DWIDTH 14 0
BBX 8 9 2 -1
BITMAP
24
24
FF
24
24
24
08
08
10
ENDCHAR
STARTCHAR uni30B6
ENCODING 12470
SWIDTH 1120 0
DWIDTH 14 0
BBX 10 10 1 -1
BITMAP
0040
2280
2200
FF80
2200
2200
2200
0400
0400
1800
ENDCHAR
STARTCHAR uni30B7
ENCODING 12471
SWIDTH 1120 0
DWIDTH 14 0
BBX 8 8 2 0
BITMAP
60
00
00
C1
02
04
08
70
ENDCHAR
STARTCHAR uni30B8
ENCODING 12472
SWIDTH 1120 0
DWIDTH 14 0
BBX 8 8 2 0
BITMAP
41
22
00
C1
02
04
08
30
ENDCHAR
STARTCHAR uni30B9
ENCODING 12473
SWIDTH 1120 0
DWIDTH 14 0
BBX 8 7 2 0
BITMAP
7E
04
04
08
14
22
C1
ENDCHAR
STARTCHAR uni30BA
ENCODING 12474
SWIDTH 1120 0
DWIDTH 14 0
BBX 9 8 1 0
BITMAP
0080
7E00
0200
0400
0400
1A00
2100
C000
ENDCHAR
STARTCHAR uni30BB
ENCODING 12475
SWIDTH 1120 0
DWIDTH 14 0
BBX 10 9 1 -1
BITMAP
1000
1000
17C0
F880
1100
1000
1000
1080
0F00
ENDCHAR
STARTCHAR uni30BC
ENCODING 12476
SWIDTH 1120 0
DWIDTH 14 0
BBX 11 10 0 -1
BITMAP
0020
1040
1000
17C0
F880
1100
1000
1000
1080
0F00
ENDCHAR
STARTCHAR uni30BD
ENCODING 12477
SWIDTH 1120 0
DWIDTH 14 0
BBX 8 9 2 -1
BITMAP
01
82
42
02
04
04
08
10
20
ENDCHAR
STARTCHAR uni30BE
ENCODING 12478
SWIDTH 1120 0
DWIDTH 14 0
BBX 9 9 1 -1
BITMAP
0080
8100
4200
0200
0400
0400
0800
1000
2000
ENDCHAR
STARTCHAR uni30BF
ENCODING 12479
SWIDTH 1120 0
DWIDTH 14 0
BBX 8 8 2 -1
BITMAP
1F
22
42
0C
08
08
30
C0
ENDCHAR
STARTCHAR uni30C0
ENCODING 12480
SWIDTH 1120 0
DWIDTH 14 0
BBX 9 9 1 -1
BITMAP
1080
1F00
2200
4200
0C00
0400
0800
3000
C000
ENDCHAR
STARTCHAR uni30C1
ENCODING 12481
SWIDTH 1120 0
DWIDTH 14 0
BBX 10 9 1 -1
BITMAP
0300
1C00
0400
FFC0
0400
0800
0800
1000
2000
ENDCHAR
STARTCHAR uni30C2
ENCODING 12482
SWIDTH 1120 0
DWIDTH 14 0
BBX 10 9 1 -1
BITMAP
0640
3880
0800
FF80
0800
0800
1000
1000
6000
ENDCHAR
STARTCHAR uni30C3
ENCODING 12483
SWIDTH 1120 0
DWIDTH 14 0
BBX 6 5 3 -1
BITMAP
A4
88
08
10
20
ENDCHAR
STARTCHAR uni30C4
ENCODING 12484
SWIDTH 1120 0
DWIDTH 14 0
BBX 8 8 2 -1
BITMAP
10
91
01
02
04
04
08
30
ENDCHAR
STARTCHAR uni30C5
ENCODING 12485
SWIDTH 1120 0
DWIDTH 14 0
BBX 10 10 1 -1
BITMAP
00C0
0000
9080
9100
0100
0200
0200
0400
0800
3000
ENDCHAR
STARTCHAR uni30C6
ENCODING 12486
SWIDTH 1120 0
DWIDTH 14 0
BBX 8 9 2 -1
BITMAP
7E
00
00
FF
08
08
10
10
60
ENDCHAR
STARTCHAR uni30C7
ENCODING 12487
SWIDTH 1120 0
DWIDTH 14 0
BBX 10 9 1 -1
BITMAP
7E40
0080
0000
FF80
0800
0800
0800
1000
6000
ENDCHAR
STARTCHAR uni30C8
ENCODING 12488
SWIDTH 1120 0
DWIDTH 14 0
BBX 4 9 4 -1
BITMAP
80
80
80
80
E0
90
80
80
80
ENDCHAR
STARTCHAR uni30C9
ENCODING 12489
SWIDTH 1120 0
DWIDTH 14 0
BBX 5 9 3 -1
BITMAP
80
88
80
C0
B0
80
80
80
80
ENDCHAR
STARTCHAR uni30CA
ENCODING 12490
SWIDTH 1120 0
DWIDTH 14 0
BBX 10 9 1 -1
BITMAP
0400
0400
FFC0
0400
0800
0800
0800
1000
2000
ENDCHAR
STARTCHAR uni30CB
ENCODING 12491
SWIDTH 1120 0
DWIDTH 14 0
BBX 8 6 2 1
BITMAP
7E
00
00
00
00
FF
ENDCHAR
STARTCHAR uni30CC
ENCODING 12492
SWIDTH 1120 0
DWIDTH 14 0
BBX 8 9 2 -1
BITMAP
7F
02
02
12
0C
0A
10
20
C0
ENDCHAR
STARTCHAR uni30CD
ENCODING 12493
SWIDTH 1120 0
DWIDTH 14 0
BBX 8 9 2 -1
BITMAP
08
7F
02
04
0A
39
C8
08
08
ENDCHAR
STARTCHAR uni30CE
ENCODING 12494
SWIDTH 1120 0
DWIDTH 14 0
BBX 7 8 3 0
BITMAP
02
04
08
08
10
20
40
80
ENDCHAR
STARTCHAR uni30CF
ENCODING 12495
SWIDTH 1120 0
DWIDTH 14 0
BBX 10 6 1 1
BITMAP
1000
1100
2080
2080
4040
8000
ENDCHAR
STARTCHAR uni30D0
ENCODING 12496
SWIDTH 1120 0
DWIDTH 14 0
BBX 10 7 1 1
BITMAP
0040
0000
2200
2100
4080
4080
8080
ENDCHAR
STARTCHAR uni30D1
ENCODING 12497
SWIDTH 1120 0
DWIDTH 14 0
BBX 11 7 1 1
BITMAP
00E0
02C0
2200
2100
2100
4080
8080
ENDCHAR
STARTCHAR uni30D2
ENCODING 12498
SWIDTH 1120 0
DWIDTH 14 0
BBX 7 7 2 0
BITMAP
82
8C
70
80
80
80
7E
ENDCHAR
STARTCHAR uni30D3
ENCODING 12499
SWIDTH 1120 0
DWIDTH 14 0
BBX 8 9 2 0
BITMAP
01
82
8C
B0
C0
80
80
80
FC
ENDCHAR
STARTCHAR uni30D4
ENCODING 12500
SWIDTH 1120 0
DWIDTH 14 0
BBX 8 9 2 0
BITMAP
03
83
86
98
E0
80
80
80
7E
ENDCHAR
STARTCHAR uni30D5
ENCODING 12501
SWIDTH 1120 0
DWIDTH 14 0
BBX 8 8 2 -1
BITMAP
FF
01
02
02
04
08
10
60
ENDCHAR
STARTCHAR uni30D6
ENCODING 12502
SWIDTH 1120 0
DWIDTH 14 0
BBX 9 9 1 -1
BITMAP
0080
FF00
0100
0100
0200
0400
0400
1800
2000
ENDCHAR
STARTCHAR uni30D7
ENCODING 12503
SWIDTH 1120 0
DWIDTH 14 0
BBX 10 10 1 -1
BITMAP
01C0
0180
FF00
0100
0200
0200
0400
0800
1000
2000
ENDCHAR
STARTCHAR uni30D8
ENCODING 12504
SWIDTH 1120 0
DWIDTH 14 0
BBX 10 5 1 1
BITMAP
1000
2C00
4200
8100
00C0
ENDCHAR
STARTCHAR uni30D9
ENCODING 12505
SWIDTH 1120 0
DWIDTH 14 0
BBX 10 7 1 1
BITMAP
0100
0100
1000
2C00
4200
8100
00C0
ENDCHAR
STARTCHAR uni30DA
ENCODING 12506
SWIDTH 1120 0
DWIDTH 14 0
BBX 10 7 1 1
BITMAP
0300
0280
1100
2C00
4200
8100
00C0
ENDCHAR
STARTCHAR uni30DB
ENCODING 12507
SWIDTH 1120 0
DWIDTH 14 0
BBX 9 9 2 -1
BITMAP
0800
0800
FF80
0800
4800
8900
8900
0800
3000
ENDCHAR
STARTCHAR uni30DC
ENCODING 12508
SWIDTH 1120 0
DWIDTH 14 0
BBX 9 9 2 -1
BITMAP
0800
0800
FF80
0800
4800
8900
8900
0800
3000
ENDCHAR
STARTCHAR uni30DD
ENCODING 12509
SWIDTH 1120 0
DWIDTH 14 0
BBX 9 10 2 -1
BITMAP
0300
0A80
0900
FF80
0800
4800
8900
8900
0800
3000
ENDCHAR
STARTCHAR uni30DE
ENCODING 12510
SWIDTH 1120 0
DWIDTH 14 0
BBX 8 7 2 0
BITMAP
FF
01
02
04
28
10
08
ENDCHAR
STARTCHAR uni30DF
ENCODING 12511
SWIDTH 1120 0
DWIDTH 14 0
BBX 4 8 4 0
BITMAP
C0
30
00
C0
20
00
E0
10
ENDCHAR
STARTCHAR uni30E0
ENCODING 12512
SWIDTH 1120 0
DWIDTH 14 0
BBX 9 8 1 0
BITMAP
0C00
0800
0800
1000
1000
2100
E180
1E80
ENDCHAR
STARTCHAR uni30E1
ENCODING 12513
SWIDTH 1120 0
DWIDTH 14 0
BBX 8 8 2 0
BITMAP
01
02
12
0C
04
1A
20
C0
ENDCHAR
STARTCHAR uni30E2
ENCODING 12514
SWIDTH 1120 0
DWIDTH 14 0
BBX 9 7 2 0
BITMAP
7E00
1000
1000
FF80
1000
1000
1F00
ENDCHAR
STARTCHAR uni30E3
ENCODING 12515
SWIDTH 1120 0
DWIDTH 14 0
BBX 5 4 4 0
BITMAP
B8
50
40
40
ENDCHAR
STARTCHAR uni30E4
ENCODING 12516
SWIDTH 1120 0
DWIDTH 14 0
BBX 8 8 2 0
BITMAP
20
20
3F
E1
22
10
10
10
ENDCHAR
STARTCHAR uni30E5
ENCODING 12517
SWIDTH 1120 0
DWIDTH 14 0
BBX 6 5 3 -1
BITMAP
78
08
08
10
FC
ENDCHAR
STARTCHAR uni30E6
ENCODING 12518
SWIDTH 1120 0
DWIDTH 14 0
BBX 10 6 1 1
BITMAP
3E00
0200
0200
0200
0200
FFC0
ENDCHAR
STARTCHAR uni30E7
ENCODING 12519
SWIDTH 1120 0
DWIDTH 14 0
BBX 5 5 4 -1
BITMAP
F8
08
F8
08
F8
ENDCHAR
STARTCHAR uni30E8
ENCODING 12520
SWIDTH 1120 0
DWIDTH 14 0
BBX 7 7 3 0
BITMAP
FE
02
02
FE
02
02
FE
ENDCHAR
STARTCHAR uni30E9
ENCODING 12521
SWIDTH 1120 0
DWIDTH 14 0
BBX 8 9 2 -1
BITMAP
7E
00
00
FF
02
02
04
08
30
ENDCHAR
STARTCHAR uni30EA
ENCODING 12522
SWIDTH 1120 0
DWIDTH 14 0
BBX 5 9 3 -1
BITMAP
80
88
88
88
88
08
08
10
20
ENDCHAR
STARTCHAR uni30EB
ENCODING 12523
SWIDTH 1120 0
DWIDTH 14 0
BBX 10 8 1 0
BITMAP
0400
2400
2400
2400
2440
4480
4700
8000
ENDCHAR
STARTCHAR uni30EC
ENCODING 12524
SWIDTH 1120 0
DWIDTH 14 0
BBX 8 8 2 0
BITMAP
80
80
80
81
82
8C
B0
C0
ENDCHAR
STARTCHAR uni30ED
ENCODING 12525
SWIDTH 1120 0
DWIDTH 14 0
BBX 6 7 3 0
BITMAP
FC
84
84
84
84
FC
84
ENDCHAR
STARTCHAR uni30EE
ENCODING 12526
SWIDTH 1120 0
DWIDTH 14 0
BBX 6 6 3 -1
BITMAP
FC
84
84
08
08
10
ENDCHAR
STARTCHAR uni30EF
ENCODING 12527
SWIDTH 1120 0
DWIDTH 14 0
BBX 8 9 2 -1
BITMAP
FF
81
81
81
02
02
02
04
08
ENDCHAR
STARTCHAR uni30F0
ENCODING 12528
SWIDTH 1120 0
DWIDTH 14 0
BBX 10 9 1 -1
BITMAP
0200
0200
7F80
2200
2200
FFC0
0200
0200
0200
ENDCHAR
STARTCHAR uni30F1
ENCODING 12529
SWIDTH 1120 0
DWIDTH 14 0
BBX 9 7 1 0
BITMAP
3F80
0100
0A00
0800
0800
0800
FF80
ENDCHAR
STARTCHAR uni30F2
ENCODING 12530
SWIDTH 1120 0
DWIDTH 14 0
BBX 8 9 2 -1
BITMAP
FF
02
02
FE
04
04
08
10
60
ENDCHAR
STARTCHAR uni30F3
ENCODING 12531
SWIDTH 1120 0
DWIDTH 14 0
BBX 8 8 2 0
BITMAP
80
40
00
01
02
0C
30
C0
ENDCHAR
STARTCHAR uni30F4
ENCODING 12532
SWIDTH 1120 0
DWIDTH 14 0
BBX 10 9 1 -1
BITMAP
08C0
0800
FF00
8100
8100
0100
0200
0400
0800
ENDCHAR
STARTCHAR uni30F5
ENCODING 12533
SWIDTH 1120 0
DWIDTH 14 0
BBX 6 6 3 -2
BITMAP
20
7C
24
24
48
80
ENDCHAR
STARTCHAR uni30F6
ENCODING 12534
SWIDTH 1120 0
DWIDTH 14 0
BBX 6 5 3 -1
BITMAP
40
7C
90
10
20
ENDCHAR
STARTCHAR uni3131
ENCODING 12593
SWIDTH 1120 0
DWIDTH 14 0
BBX 8 6 2 1
BITMAP
FF
01
01
01
01
01
ENDCHAR
STARTCHAR uni3132
ENCODING 12594
SWIDTH 1120 0
DWIDTH 14 0
BBX 8 6 2 0
BITMAP
FF
11
11
11
11
01
ENDCHAR
STARTCHAR uni3133
ENCODING 12595
SWIDTH 1120 0
DWIDTH 14 0
BBX 10 6 1 1
BITMAP
F100
1100
1100
1280
1280
1440
ENDCHAR
STARTCHAR uni3134
ENCODING 12596
SWIDTH 1120 0
DWIDTH 14 0
BBX 8 6 2 1
BITMAP
80
80
80
80
80
FF
ENDCHAR
STARTCHAR uni3135
ENCODING 12597
SWIDTH 1120 0
DWIDTH 14 0
BBX 9 7 1 0
BITMAP
8780
8200
8300
8300
8480
8080
E000
ENDCHAR
STARTCHAR uni3136
ENCODING 12598
SWIDTH 1120 0
DWIDTH 14 0
BBX 10 7 1 0
BITMAP
8300
8000
8FC0
8380
8480
8480
E780
ENDCHAR
STARTCHAR uni3137
ENCODING 12599
SWIDTH 1120 0
DWIDTH 14 0
BBX 8 5 2 2
BITMAP
FE
80
80
80
FF
ENDCHAR
STARTCHAR uni3138
ENCODING 12600
SWIDTH 1120 0
DWIDTH 14 0
BBX 9 6 1 1
BITMAP
F780
8400
8400
8400
8400
F780
ENDCHAR
STARTCHAR uni3139
ENCODING 12601
SWIDTH 1120 0
DWIDTH 14 0
BBX 8 7 2 0
BITMAP
FE
02
02
FE
80
80
FF
ENDCHAR
STARTCHAR uni313A
ENCODING 12602
SWIDTH 1120 0
DWIDTH 14 0
BBX 9 7 2 0
BITMAP
F780
1080
1080
F080
8080
8080
F080
ENDCHAR
STARTCHAR uni313B
ENCODING 12603
SWIDTH 1120 0
DWIDTH 14 0
BBX 8 7 2 0
BITMAP
F7
15
15
F5
85
87
F9
ENDCHAR
STARTCHAR uni313C
ENCODING 12604
SWIDTH 1120 0
DWIDTH 14 0
BBX 9 7 1 0
BITMAP
F400
1480
1780
7480
4480
4480
7F80
ENDCHAR
STARTCHAR uni313D
ENCODING 12605
SWIDTH 1120 0
DWIDTH 14 0
BBX 10 7 1 0
BITMAP
F100
1100
1100
F300
8280
8280
F440
ENDCHAR
STARTCHAR uni313E
ENCODING 12606
SWIDTH 1120 0
DWIDTH 14 0
BBX 9 7 1 0
BITMAP
F780
1400
1400
F780
8400
8400
FF80
ENDCHAR
STARTCHAR uni313F
ENCODING 12607
SWIDTH 1120 0
DWIDTH 14 0
BBX 10 7 1 0
BITMAP
F780
1480
1500
F500
8500
87C0
F000
ENDCHAR
STARTCHAR uni3140
ENCODING 12608
SWIDTH 1120 0
DWIDTH 14 0
BBX 10 7 1 0
BITMAP
F300
1000
1FC0
F380
8480
8480
F780
ENDCHAR
STARTCHAR uni3141
ENCODING 12609
SWIDTH 1120 0
DWIDTH 14 0
BBX 8 6 2 1
BITMAP
FF
81
81
81
81
FF
ENDCHAR
STARTCHAR uni3142
ENCODING 12610
SWIDTH 1120 0
DWIDTH 14 0
BBX 8 6 2 1
BITMAP
81
81
FF
81
81
FF
ENDCHAR
STARTCHAR uni3143
ENCODING 12611
SWIDTH 1120 0
DWIDTH 14 0
BBX 9 6 1 1
BITMAP
9280
9280
F380
9280
9280
F380
ENDCHAR
STARTCHAR uni3144
ENCODING 12612
SWIDTH 1120 0
DWIDTH 14 0
BBX 10 7 1 0
BITMAP
9100
9100
F100
9300
9280
F280
0440
ENDCHAR
STARTCHAR uni3145
ENCODING 12613
SWIDTH 1120 0
DWIDTH 14 0
BBX 10 6 1 0
BITMAP
0800
0C00
0C00
1200
2100
C0C0
ENDCHAR
STARTCHAR uni3146
ENCODING 12614
SWIDTH 1120 0
DWIDTH 14 0
BBX 8 6 2 1
BITMAP
20
24
24
66
8A
11
ENDCHAR
STARTCHAR uni3147
ENCODING 12615
SWIDTH 1120 0
DWIDTH 14 0
BBX 8 7 2 0
BITMAP
3C
C3
81
81
81
C3
3C
ENDCHAR
STARTCHAR uni3148
ENCODING 12616
SWIDTH 1120 0
DWIDTH 14 0
BBX 8 6 2 1
BITMAP
FF
10
18
24
42
81
ENDCHAR
STARTCHAR uni3149
ENCODING 12617
SWIDTH 1120 0
DWIDTH 14 0
BBX 8 6 2 1
BITMAP
FF
44
64
6A
9A
91
ENDCHAR
STARTCHAR uni314A
ENCODING 12618
SWIDTH 1120 0
DWIDTH 14 0
BBX 8 6 2 1
BITMAP
3C
00
FF
10
2C
C3
ENDCHAR
STARTCHAR uni314B
ENCODING 12619
SWIDTH 1120 0
DWIDTH 14 0
BBX 8 5 2 2
BITMAP
FF
01
01
FD
01
ENDCHAR
STARTCHAR uni314C
ENCODING 12620
SWIDTH 1120 0
DWIDTH 14 0
BBX 8 6 2 1
BITMAP
FE
80
80
FE
80
FF
ENDCHAR
STARTCHAR uni314D
ENCODING 12621
SWIDTH 1120 0
DWIDTH 14 0
BBX 8 6 2 1
BITMAP
FF
00
00
44
44
FF
ENDCHAR
STARTCHAR uni314E
ENCODING 12622
SWIDTH 1120 0
DWIDTH 14 0
BBX 8 7 2 0
BITMAP
3C
FF
00
3C
42
42
3C
ENDCHAR
STARTCHAR uni314F
ENCODING 12623
SWIDTH 1120 0
DWIDTH 14 0
BBX 4 11 4 -2
BITMAP
80
80
80
80
80
F0
80
80
80
80
80
ENDCHAR
STARTCHAR uni3150
ENCODING 12624
SWIDTH 1120 0
DWIDTH 14 0
BBX 4 11 4 -2
BITMAP
90
90
90
90
90
F0
90
90
90
90
90
ENDCHAR
STARTCHAR uni3151
ENCODING 12625
SWIDTH 1120 0
DWIDTH 14 0
BBX 4 11 4 -2
BITMAP
80
80
80
F0
80
80
80
F0
80
80
80
ENDCHAR
STARTCHAR uni3152
ENCODING 12626
SWIDTH 1120 0
DWIDTH 14 0
BBX 4 11 4 -2
BITMAP
90
90
90
F0
90
90
F0
90
90
90
10
ENDCHAR
STARTCHAR uni3153
ENCODING 12627
SWIDTH 1120 0
DWIDTH 14 0
BBX 4 11 4 -2
BITMAP
10
10
10
10
F0
10
10
10
10
10
10
ENDCHAR
STARTCHAR uni3154
ENCODING 12628
SWIDTH 1120 0
DWIDTH 14 0
BBX 6 11 3 -2
BITMAP
14
14
14
14
F4
14
14
14
14
14
04
ENDCHAR
STARTCHAR uni3155
ENCODING 12629
SWIDTH 1120 0
DWIDTH 14 0
BBX 5 11 3 -2
BITMAP
08
08
08
F8
08
08
F8
08
08
08
08
ENDCHAR
STARTCHAR uni3156
ENCODING 12630
SWIDTH 1120 0
DWIDTH 14 0
BBX 6 11 3 -2
BITMAP
14
14
14
F4
14
14
F4
14
14
14
04
ENDCHAR
STARTCHAR uni3157
ENCODING 12631
SWIDTH 1120 0
DWIDTH 14 0
BBX 11 5 0 1
BITMAP
0400
0400
0400
0400
FFE0
ENDCHAR
STARTCHAR uni3158
ENCODING 12632
SWIDTH 1120 0
DWIDTH 14 0
BBX 10 11 1 -2
BITMAP
0100
0100
0100
1100
1100
11C0
1100
FF00
0100
0100
0100
ENDCHAR
STARTCHAR uni3159
ENCODING 12633
SWIDTH 1120 0
DWIDTH 14 0
BBX 9 11 2 -2
BITMAP
0480
0480
0480
2480
2480
2780
2480
FC80
0480
0480
0080
ENDCHAR
STARTCHAR uni315A
ENCODING 12634
SWIDTH 1120 0
DWIDTH 14 0
BBX 7 11 3 -2
BITMAP
02
02
02
22
22
22
22
7E
82
02
02
ENDCHAR
STARTCHAR uni315B
ENCODING 12635
SWIDTH 1120 0
DWIDTH 14 0
BBX 10 6 1 1
BITMAP
1100
1100
1100
1100
1100
FFC0
ENDCHAR
STARTCHAR uni315C
ENCODING 12636
SWIDTH 1120 0
DWIDTH 14 0
BBX 11 8 1 -2
BITMAP
FFE0
0400
0400
0400
0400
0400
0400
0400
ENDCHAR
STARTCHAR uni315D
ENCODING 12637
SWIDTH 1120 0
DWIDTH 14 0
BBX 8 11 2 -2
BITMAP
01
01
01
FF
11
1F
11
11
11
11
01
ENDCHAR
STARTCHAR uni315E
ENCODING 12638
SWIDTH 1120 0
DWIDTH 14 0
BBX 10 10 1 -1
BITMAP
0040
0140
0140
FD40
1140
1740
1140
1140
1140
0140
ENDCHAR
STARTCHAR uni315F
ENCODING 12639
SWIDTH 1120 0
DWIDTH 14 0
BBX 8 11 2 -2
BITMAP
01
01
01
0F
F1
11
11
11
11
01
01
ENDCHAR
STARTCHAR uni3160
ENCODING 12640
SWIDTH 1120 0
DWIDTH 14 0
BBX 10 8 1 -2
BITMAP
FFC0
1200
1200
1200
1200
1200
1200
1000
ENDCHAR
STARTCHAR uni3161
ENCODING 12641
SWIDTH 1120 0
DWIDTH 14 0
BBX 10 1 1 3
BITMAP
FFC0
ENDCHAR
STARTCHAR uni3162
ENCODING 12642
SWIDTH 1120 0
DWIDTH 14 0
BBX 8 11 2 -2
BITMAP
01
01
01
01
01
01
3F
C1
01
01
01
ENDCHAR
STARTCHAR uni3163
ENCODING 12643
SWIDTH 1120 0
DWIDTH 14 0
BBX 1 11 5 -2
BITMAP
80
80
80
80
80
80
80
80
80
80
80
ENDCHAR
STARTCHAR uni3164
ENCODING 12644
SWIDTH 1120 0
DWIDTH 14 0
BBX 0 0 0 0
BITMAP
ENDCHAR
STARTCHAR uni3165
ENCODING 12645
SWIDTH 1120 0
DWIDTH 14 0
BBX 10 6 1 1
BITMAP
8400
8400
8400
8400
8400
F7C0
ENDCHAR
STARTCHAR uni3166
ENCODING 12646
SWIDTH 1120 0
DWIDTH 14 0
BBX 10 6 1 1
BITMAP
8780
8400
8400
8400
8400
E7C0
ENDCHAR
STARTCHAR uni3167
ENCODING 12647
SWIDTH 1120 0
DWIDTH 14 0
BBX 10 7 1 0
BITMAP
8100
8100
8100
8280
8280
9440
6000
ENDCHAR
STARTCHAR uni3168
ENCODING 12648
SWIDTH 1120 0
DWIDTH 14 0
BBX 9 6 1 0
BITMAP
8200
8500
8500
8880
8780
E000
ENDCHAR
STARTCHAR uni3169
ENCODING 12649
SWIDTH 1120 0
DWIDTH 14 0
BBX 10 7 1 0
BITMAP
FC00
2500
2500
E580
8580
8640
F000
ENDCHAR
STARTCHAR uni316A
ENCODING 12650
SWIDTH 1120 0
DWIDTH 14 0
BBX 9 7 1 0
BITMAP
F780
1400
1400
F400
8400
8400
F780
ENDCHAR
STARTCHAR uni316B
ENCODING 12651
SWIDTH 1120 0
DWIDTH 14 0
BBX 10 7 1 0
BITMAP
F480
3480
3C80
F580
9540
9C00
4000
ENDCHAR
STARTCHAR uni316C
ENCODING 12652
SWIDTH 1120 0
DWIDTH 14 0
BBX 9 7 1 0
BITMAP
F000
1100
1100
F300
8480
8480
FF80
ENDCHAR
STARTCHAR uni316D
ENCODING 12653
SWIDTH 1120 0
DWIDTH 14 0
BBX 10 7 1 0
BITMAP
F7C0
1000
1000
F780
8480
F480
0300
ENDCHAR
STARTCHAR uni316E
ENCODING 12654
SWIDTH 1120 0
DWIDTH 14 0
BBX 10 6 1 1
BITMAP
0040
F440
97C0
9440
9440
F7C0
ENDCHAR
STARTCHAR uni316F
ENCODING 12655
SWIDTH 1120 0
DWIDTH 14 0
BBX 9 5 1 1
BITMAP
F000
9200
9300
9300
F480
ENDCHAR
STARTCHAR uni3170
ENCODING 12656
SWIDTH 1120 0
DWIDTH 14 0
BBX 9 5 1 1
BITMAP
F100
9300
9500
9480
F780
ENDCHAR
STARTCHAR uni3171
ENCODING 12657
SWIDTH 1120 0
DWIDTH 14 0
BBX 6 9 3 -1
BITMAP
FC
84
84
FC
78
84
84
88
70
ENDCHAR
STARTCHAR uni3172
ENCODING 12658
SWIDTH 1120 0
DWIDTH 14 0
BBX 10 6 1 1
BITMAP
0BC0
8840
F840
8840
8840
F840
ENDCHAR
STARTCHAR uni3173
ENCODING 12659
SWIDTH 1120 0
DWIDTH 14 0
BBX 9 6 1 1
BITMAP
1000
9780
F400
9400
9400
F780
ENDCHAR
STARTCHAR uni3174
ENCODING 12660
SWIDTH 1120 0
DWIDTH 14 0
BBX 10 6 1 1
BITMAP
15C0
9440
F440
9C40
9A40
F140
ENDCHAR
STARTCHAR uni3175
ENCODING 12661
SWIDTH 1120 0
DWIDTH 14 0
BBX 10 7 1 0
BITMAP
A9C0
A900
E900
A900
B900
B5C0
E000
ENDCHAR
STARTCHAR uni3176
ENCODING 12662
SWIDTH 1120 0
DWIDTH 14 0
BBX 10 6 1 1
BITMAP
9780
9100
F100
9300
9480
F440
ENDCHAR
STARTCHAR uni3177
ENCODING 12663
SWIDTH 1120 0
DWIDTH 14 0
BBX 9 6 1 1
BITMAP
9780
9400
F400
9780
9400
F780
ENDCHAR
STARTCHAR uni3178
ENCODING 12664
SWIDTH 1120 0
DWIDTH 14 0
BBX 6 10 3 -2
BITMAP
84
FC
84
FC
00
30
CC
84
8C
78
ENDCHAR
STARTCHAR uni3179
ENCODING 12665
SWIDTH 1120 0
DWIDTH 14 0
BBX 8 10 2 -2
BITMAP
99
FF
99
FF
00
3C
62
42
44
38
ENDCHAR
STARTCHAR uni317A
ENCODING 12666
SWIDTH 1120 0
DWIDTH 14 0
BBX 10 6 1 1
BITMAP
17C0
1040
1040
2840
4840
C640
ENDCHAR
STARTCHAR uni317B
ENCODING 12667
SWIDTH 1120 0
DWIDTH 14 0
BBX 11 6 1 1
BITMAP
0200
2200
2200
2200
5200
8BE0
ENDCHAR
STARTCHAR uni317C
ENCODING 12668
SWIDTH 1120 0
DWIDTH 14 0
BBX 10 6 1 1
BITMAP
2780
2400
2400
6400
5400
8FC0
ENDCHAR
STARTCHAR uni317D
ENCODING 12669
SWIDTH 1120 0
DWIDTH 14 0
BBX 10 6 1 1
BITMAP
2240
2240
23C0
6240
5240
8BC0
ENDCHAR
STARTCHAR uni317E
ENCODING 12670
SWIDTH 1120 0
DWIDTH 14 0
BBX 10 6 1 1
BITMAP
27C0
2100
2100
5280
5280
8C40
ENDCHAR
STARTCHAR uni317F
ENCODING 12671
SWIDTH 1120 0
DWIDTH 14 0
BBX 8 6 2 0
BITMAP
18
28
24
42
82
FF
ENDCHAR
STARTCHAR uni3180
ENCODING 12672
SWIDTH 1120 0
DWIDTH 14 0
BBX 10 7 1 0
BITMAP
7100
9680
8C40
8C40
9440
9480
6300
ENDCHAR
STARTCHAR uni3181
ENCODING 12673
SWIDTH 1120 0
DWIDTH 14 0
BBX 6 5 3 1
BITMAP
78
84
84
CC
78
ENDCHAR
STARTCHAR uni3182
ENCODING 12674
SWIDTH 1120 0
DWIDTH 14 0
BBX 10 6 1 0
BITMAP
2100
D100
8B00
8A80
4C40
3000
ENDCHAR
STARTCHAR uni3183
ENCODING 12675
SWIDTH 1120 0
DWIDTH 14 0
BBX 10 7 1 0
BITMAP
2000
7300
8B00
8C80
8C80
9FC0
7000
ENDCHAR
STARTCHAR uni3184
ENCODING 12676
SWIDTH 1120 0
DWIDTH 14 0
BBX 8 10 2 -2
BITMAP
7E
24
24
FF
00
3C
42
42
66
18
ENDCHAR
STARTCHAR uni3185
ENCODING 12677
SWIDTH 1120 0
DWIDTH 14 0
BBX 10 7 1 0
BITMAP
7380
F800
07C0
7380
9440
9440
7380
ENDCHAR
STARTCHAR uni3186
ENCODING 12678
SWIDTH 1120 0
DWIDTH 14 0
BBX 10 8 1 -1
BITMAP
FFC0
0000
1E00
3300
2100
2100
2100
1E00
ENDCHAR
STARTCHAR uni3187
ENCODING 12679
SWIDTH 1120 0
DWIDTH 14 0
BBX 9 10 2 -1
BITMAP
0200
0200
0200
5200
5380
5200
5200
7F80
8200
0200
ENDCHAR
STARTCHAR uni3188
ENCODING 12680
SWIDTH 1120 0
DWIDTH 14 0
BBX 9 10 1 -1
BITMAP
0180
0180
0180
2980
2980
2980
2980
FF80
0180
0180
ENDCHAR
STARTCHAR uni3189
ENCODING 12681
SWIDTH 1120 0
DWIDTH 14 0
BBX 8 10 2 -1
BITMAP
01
01
21
29
29
29
29
FF
01
01
ENDCHAR
STARTCHAR uni318A
ENCODING 12682
SWIDTH 1120 0
DWIDTH 14 0
BBX 8 10 2 -1
BITMAP
01
01
01
FD
2B
29
2B
29
29
01
ENDCHAR
STARTCHAR uni318B
ENCODING 12683
SWIDTH 1120 0
DWIDTH 14 0
BBX 9 10 2 -1
BITMAP
0280
0280
0280
FA80
5680
5280
5680
5280
5280
0080
ENDCHAR
STARTCHAR uni318C
ENCODING 12684
SWIDTH 1120 0
DWIDTH 14 0
BBX 8 10 2 -1
BITMAP
01
01
01
01
FF
29
29
29
29
01
ENDCHAR
STARTCHAR uni318D
ENCODING 12685
SWIDTH 1120 0
DWIDTH 14 0
BBX 2 2 5 3
BITMAP
C0
C0
ENDCHAR
STARTCHAR uni318E
ENCODING 12686
SWIDTH 1120 0
DWIDTH 14 0
BBX 6 10 3 -1
BITMAP
04
04
04
04
C4
C4
04
04
04
04
ENDCHAR
STARTCHAR uni3200
ENCODING 12800
SWIDTH 1120 0
DWIDTH 14 0
BBX 12 10 0 -1
BITMAP
2000
4040
8020
BF90
8090
8090
8090
80A0
40C0
0040
ENDCHAR
STARTCHAR uni3201
ENCODING 12801
SWIDTH 1120 0
DWIDTH 14 0
BBX 12 10 0 -1
BITMAP
2000
4040
8020
9010
9010
9010
9010
9FE0
4040
0040
ENDCHAR
STARTCHAR uni3202
ENCODING 12802
SWIDTH 1120 0
DWIDTH 14 0
BBX 12 10 0 -1
BITMAP
2000
4040
8020
9FD0
9010
9010
9010
9FE0
4040
0040
ENDCHAR
STARTCHAR uni3203
ENCODING 12803
SWIDTH 1120 0
DWIDTH 14 0
BBX 12 10 0 -1
BITMAP
2000
4040
8020
BF90
8090
9F90
9010
9FE0
4040
0040
ENDCHAR
STARTCHAR uni3204
ENCODING 12804
SWIDTH 1120 0
DWIDTH 14 0
BBX 12 10 0 -1
BITMAP
2000
4040
8020
9F90
9090
9090
9090
9FA0
4040
0040
ENDCHAR
STARTCHAR uni3205
ENCODING 12805
SWIDTH 1120 0
DWIDTH 14 0
BBX 12 10 0 -1
BITMAP
2000
4040
90A0
9090
9F90
9090
9090
9FA0
4040
0040
ENDCHAR
STARTCHAR uni3206
ENCODING 12806
SWIDTH 1120 0
DWIDTH 14 0
BBX 12 10 0 -1
BITMAP
2000
4040
8020
8410
8410
8610
8910
B0E0
4040
0040
ENDCHAR
STARTCHAR uni3207
ENCODING 12807
SWIDTH 1120 0
DWIDTH 14 0
BBX 12 10 0 -1
BITMAP
2000
4040
8020
8F10
9090
9090
9090
8F20
4040
0040
ENDCHAR
STARTCHAR uni3208
ENCODING 12808
SWIDTH 1120 0
DWIDTH 14 0
BBX 12 10 0 -1
BITMAP
2000
4000
8020
9F90
8410
8610
8A10
91A0
4040
0040
ENDCHAR
STARTCHAR uni3209
ENCODING 12809
SWIDTH 1120 0
DWIDTH 14 0
BBX 12 10 0 -1
BITMAP
2000
4040
8F20
8010
9F90
8410
8610
8920
50C0
0040
ENDCHAR
STARTCHAR uni320A
ENCODING 12810
SWIDTH 1120 0
DWIDTH 14 0
BBX 12 10 0 -1
BITMAP
2000
4040
8020
9F90
8090
9E90
8090
80A0
40C0
0040
ENDCHAR
STARTCHAR uni320B
ENCODING 12811
SWIDTH 1120 0
DWIDTH 14 0
BBX 12 9 0 -1
BITMAP
4040
4020
9FD0
9010
9FD0
9010
9FE0
4040
0040
ENDCHAR
STARTCHAR uni320C
ENCODING 12812
SWIDTH 1120 0
DWIDTH 14 0
BBX 12 10 0 -1
BITMAP
2000
4040
8020
9F90
8010
8910
8910
BFE0
4040
0040
ENDCHAR
STARTCHAR uni320D
ENCODING 12813
SWIDTH 1120 0
DWIDTH 14 0
BBX 12 10 0 -1
BITMAP
2000
4040
8F20
8010
9F90
8F10
9090
90A0
4F40
0040
ENDCHAR
STARTCHAR uni320E
ENCODING 12814
SWIDTH 1120 0
DWIDTH 14 0
BBX 12 10 0 -1
BITMAP
2000
40C0
80A0
BC90
8490
88D0
8890
90A0
40C0
00C0
ENDCHAR
STARTCHAR uni320F
ENCODING 12815
SWIDTH 1120 0
DWIDTH 14 0
BBX 12 10 0 -1
BITMAP
2000
40C0
80A0
A090
A090
A0D0
A090
9CA0
40C0
00C0
ENDCHAR
STARTCHAR uni3210
ENCODING 12816
SWIDTH 1120 0
DWIDTH 14 0
BBX 12 10 0 -1
BITMAP
2000
4080
80A0
BC90
A090
A0D0
A090
BEA0
40C0
00C0
ENDCHAR
STARTCHAR uni3211
ENCODING 12817
SWIDTH 1120 0
DWIDTH 14 0
BBX 12 10 0 -1
BITMAP
2000
40C0
80A0
BC90
8490
BCD0
A090
9CA0
40C0
00C0
ENDCHAR
STARTCHAR uni3212
ENCODING 12818
SWIDTH 1120 0
DWIDTH 14 0
BBX 12 10 0 -1
BITMAP
2000
40C0
80A0
BC90
A490
A4D0
BC90
80A0
40C0
00C0
ENDCHAR
STARTCHAR uni3213
ENCODING 12819
SWIDTH 1120 0
DWIDTH 14 0
BBX 12 10 0 -1
BITMAP
2000
40C0
A4A0
A490
BC90
A4D0
A490
BCA0
40C0
00C0
ENDCHAR
STARTCHAR uni3214
ENCODING 12820
SWIDTH 1120 0
DWIDTH 14 0
BBX 12 10 0 -1
BITMAP
2000
40C0
88A0
8890
9890
98D0
9490
A2A0
40C0
00C0
ENDCHAR
STARTCHAR uni3215
ENCODING 12821
SWIDTH 1120 0
DWIDTH 14 0
BBX 12 10 0 -1
BITMAP
2000
40C0
98A0
A490
A490
A4D0
A490
98A0
40C0
00C0
ENDCHAR
STARTCHAR uni3216
ENCODING 12822
SWIDTH 1120 0
DWIDTH 14 0
BBX 12 10 0 -1
BITMAP
2000
40C0
80A0
9E90
8890
88D0
9490
92A0
40C0
00C0
ENDCHAR
STARTCHAR uni3217
ENCODING 12823
SWIDTH 1120 0
DWIDTH 14 0
BBX 12 10 0 -1
BITMAP
2000
40C0
8CA0
8090
9E90
88D0
8890
94A0
62C0
00C0
ENDCHAR
STARTCHAR uni3218
ENCODING 12824
SWIDTH 1120 0
DWIDTH 14 0
BBX 12 10 0 -1
BITMAP
2000
40C0
80A0
9C90
8490
8CD0
9490
88A0
70C0
00C0
ENDCHAR
STARTCHAR uni3219
ENCODING 12825
SWIDTH 1120 0
DWIDTH 14 0
BBX 12 10 0 -1
BITMAP
2000
40C0
80A0
9E90
9090
9ED0
9090
90A0
4EC0
00C0
ENDCHAR
STARTCHAR uni321A
ENCODING 12826
SWIDTH 1120 0
DWIDTH 14 0
BBX 12 10 0 -1
BITMAP
2000
40C0
BEA0
8090
9090
94D0
9490
BEA0
40C0
00C0
ENDCHAR
STARTCHAR uni321B
ENCODING 12827
SWIDTH 1120 0
DWIDTH 14 0
BBX 12 11 0 -2
BITMAP
2000
40C0
4CA0
8090
BE90
9CD0
A290
A2A0
9CC0
40C0
2000
ENDCHAR
STARTCHAR uni321C
ENCODING 12828
SWIDTH 1120 0
DWIDTH 14 0
BBX 12 9 0 -1
BITMAP
5FA0
8220
8E10
9190
BFF0
8210
8220
4220
4200
ENDCHAR
STARTCHAR uni3260
ENCODING 12896
SWIDTH 1120 0
DWIDTH 14 0
BBX 11 11 0 -2
BITMAP
0F80
3040
4020
BFA0
80A0
80A0
80A0
80A0
4020
2040
1D80
ENDCHAR
STARTCHAR uni3261
ENCODING 12897
SWIDTH 1120 0
DWIDTH 14 0
BBX 11 11 0 -2
BITMAP
0F80
3040
4020
9020
9020
9020
9020
9FE0
4020
2040
1D80
ENDCHAR
STARTCHAR uni3262
ENCODING 12898
SWIDTH 1120 0
DWIDTH 14 0
BBX 11 11 0 -2
BITMAP
0F80
3040
4020
9FE0
9020
9020
9020
9FE0
4020
2040
1D80
ENDCHAR
STARTCHAR uni3263
ENCODING 12899
SWIDTH 1120 0
DWIDTH 14 0
BBX 11 11 0 -2
BITMAP
0F80
3040
4020
BFA0
80A0
9FA0
9020
9FE0
4020
2040
1D80
ENDCHAR
STARTCHAR uni3264
ENCODING 12900
SWIDTH 1120 0
DWIDTH 14 0
BBX 11 11 0 -2
BITMAP
0F80
3040
4020
9FA0
90A0
90A0
90A0
9FA0
4020
2040
1D80
ENDCHAR
STARTCHAR uni3265
ENCODING 12901
SWIDTH 1120 0
DWIDTH 14 0
BBX 11 11 0 -2
BITMAP
0F80
3040
50A0
90A0
9FA0
90A0
90A0
9FA0
4020
2040
1D80
ENDCHAR
STARTCHAR uni3266
ENCODING 12902
SWIDTH 1120 0
DWIDTH 14 0
BBX 11 11 0 -2
BITMAP
0F80
3040
4020
8420
8620
8A20
91A0
A060
4020
2040
1D80
ENDCHAR
STARTCHAR uni3267
ENCODING 12903
SWIDTH 1120 0
DWIDTH 14 0
BBX 11 11 0 -2
BITMAP
0F80
3040
4020
8F20
90A0
90A0
90A0
8F20
4020
2040
1D80
ENDCHAR
STARTCHAR uni3268
ENCODING 12904
SWIDTH 1120 0
DWIDTH 14 0
BBX 11 11 0 -2
BITMAP
0F80
3040
4020
9FA0
8420
8620
8920
90A0
4020
2040
1D80
ENDCHAR
STARTCHAR uni3269
ENCODING 12905
SWIDTH 1120 0
DWIDTH 14 0
BBX 11 11 0 -2
BITMAP
0F80
3040
4F20
8020
9FA0
8420
8620
8920
50A0
2040
1D80
ENDCHAR
STARTCHAR uni326A
ENCODING 12906
SWIDTH 1120 0
DWIDTH 14 0
BBX 11 11 0 -2
BITMAP
0F80
3040
4020
9FA0
80A0
BFA0
80A0
80A0
4020
2040
1D80
ENDCHAR
STARTCHAR uni326B
ENCODING 12907
SWIDTH 1120 0
DWIDTH 14 0
BBX 11 12 0 -3
BITMAP
0F00
30C0
4020
9FE0
9020
9FE0
9020
9FE0
8020
4040
3080
0F00
ENDCHAR
STARTCHAR uni326C
ENCODING 12908
SWIDTH 1120 0
DWIDTH 14 0
BBX 11 11 0 -2
BITMAP
0F80
3040
4020
9FA0
8020
8920
8920
BFE0
4020
2040
1D80
ENDCHAR
STARTCHAR uni326D
ENCODING 12909
SWIDTH 1120 0
DWIDTH 14 0
BBX 11 11 0 -2
BITMAP
0F80
3040
4F20
9FA0
8020
8F20
90A0
90A0
4F20
2040
1D80
ENDCHAR
STARTCHAR uni326E
ENCODING 12910
SWIDTH 1120 0
DWIDTH 14 0
BBX 11 11 0 -2
BITMAP
0F80
30C0
40A0
9CA0
84A0
84E0
88A0
90A0
40A0
2040
1D80
ENDCHAR
STARTCHAR uni326F
ENCODING 12911
SWIDTH 1120 0
DWIDTH 14 0
BBX 11 11 0 -2
BITMAP
0F80
30C0
40A0
90A0
90A0
90E0
91A0
8EA0
40A0
2040
1D80
ENDCHAR
STARTCHAR uni3270
ENCODING 12912
SWIDTH 1120 0
DWIDTH 14 0
BBX 11 11 0 -2
BITMAP
0F80
3040
40A0
BCA0
A0A0
A0E0
A0A0
BCA0
40A0
2040
1D80
ENDCHAR
STARTCHAR uni3271
ENCODING 12913
SWIDTH 1120 0
DWIDTH 14 0
BBX 11 11 0 -2
BITMAP
0F80
30C0
40A0
BCA0
84A0
BCE0
A0A0
9CA0
40A0
2040
1D80
ENDCHAR
STARTCHAR uni3272
ENCODING 12914
SWIDTH 1120 0
DWIDTH 14 0
BBX 11 11 0 -2
BITMAP
0F80
30C0
40A0
BEA0
A2A0
A2E0
BEA0
80A0
40A0
2040
1D80
ENDCHAR
STARTCHAR uni3273
ENCODING 12915
SWIDTH 1120 0
DWIDTH 14 0
BBX 11 11 0 -2
BITMAP
0F80
30C0
64A0
A4A0
BCA0
A4E0
A4A0
BCA0
40A0
2040
1D80
ENDCHAR
STARTCHAR uni3274
ENCODING 12916
SWIDTH 1120 0
DWIDTH 14 0
BBX 11 11 0 -2
BITMAP
0F80
30C0
48A0
88A0
88A0
94E0
A4A0
82A0
40A0
2040
1D80
ENDCHAR
STARTCHAR uni3275
ENCODING 12917
SWIDTH 1120 0
DWIDTH 14 0
BBX 12 11 0 -2
BITMAP
0F80
3040
5CA0
A290
A290
A2D0
A290
9C90
40A0
20C0
1D80
ENDCHAR
STARTCHAR uni3276
ENCODING 12918
SWIDTH 1120 0
DWIDTH 14 0
BBX 11 11 0 -2
BITMAP
0F80
30C0
40A0
9EA0
88A0
88E0
94A0
92A0
40A0
2040
1D80
ENDCHAR
STARTCHAR uni3277
ENCODING 12919
SWIDTH 1120 0
DWIDTH 14 0
BBX 11 11 0 -2
BITMAP
0F80
30C0
4CA0
80A0
9EA0
88E0
88A0
94A0
62A0
2040
1D80
ENDCHAR
STARTCHAR uni3278
ENCODING 12920
SWIDTH 1120 0
DWIDTH 14 0
BBX 11 11 0 -2
BITMAP
0F80
30C0
40A0
9EA0
84A0
9CE0
84A0
88A0
50A0
2040
1D80
ENDCHAR
STARTCHAR uni3279
ENCODING 12921
SWIDTH 1120 0
DWIDTH 14 0
BBX 11 11 0 -2
BITMAP
0F80
3040
40A0
9EA0
90A0
9EE0
90A0
90A0
4EA0
20C0
1D00
ENDCHAR
STARTCHAR uni327A
ENCODING 12922
SWIDTH 1120 0
DWIDTH 14 0
BBX 11 11 0 -2
BITMAP
0F80
30C0
40A0
BEA0
90A0
94E0
94A0
BEA0
40A0
2040
1D80
ENDCHAR
STARTCHAR uni327B
ENCODING 12923
SWIDTH 1120 0
DWIDTH 14 0
BBX 11 11 0 -2
BITMAP
0F80
30C0
5CA0
80A0
BEA0
BEE0
A2A0
BEA0
40A0
2040
1D80
ENDCHAR
STARTCHAR uni327F
ENCODING 12927
SWIDTH 1120 0
DWIDTH 14 0
BBX 10 11 1 -2
BITMAP
1E00
6100
4080
9240
9400
DDC0
1240
9240
4080
2100
1E00
ENDCHAR
STARTCHAR uni3380
ENCODING 13184
SWIDTH 1120 0
DWIDTH 14 0
BBX 10 11 1 -2
BITMAP
0100
0100
0300
F280
8A80
8C80
8F80
9440
D040
A000
8000
ENDCHAR
STARTCHAR uni3381
ENCODING 13185
SWIDTH 1120 0
DWIDTH 14 0
BBX 10 8 1 0
BITMAP
0100
0300
F300
9280
9480
9380
9480
9440
ENDCHAR
STARTCHAR uni3382
ENCODING 13186
SWIDTH 1120 0
DWIDTH 14 0
BBX 10 9 1 -1
BITMAP
0300
0300
2280
4A80
4B80
4C40
9440
E400
8000
ENDCHAR
STARTCHAR uni3383
ENCODING 13187
SWIDTH 1120 0
DWIDTH 14 0
BBX 11 8 0 0
BITMAP
0080
0140
FD40
9540
95E0
9520
9620
9400
ENDCHAR
STARTCHAR uni3384
ENCODING 13188
SWIDTH 1120 0
DWIDTH 14 0
BBX 10 9 1 -1
BITMAP
8100
8300
8300
B280
E480
A380
9480
8C40
0440
ENDCHAR
STARTCHAR uni3388
ENCODING 13192
SWIDTH 1120 0
DWIDTH 14 0
BBX 12 9 0 -1
BITMAP
0010
0010
0190
7A90
8090
8390
8490
4A90
3340
ENDCHAR
STARTCHAR uni3389
ENCODING 13193
SWIDTH 1120 0
DWIDTH 14 0
BBX 12 8 0 0
BITMAP
8010
8010
8DD0
B150
D050
D1D0
B150
ADD0
ENDCHAR
STARTCHAR uni338A
ENCODING 13194
SWIDTH 1120 0
DWIDTH 14 0
BBX 10 11 1 -2
BITMAP
07C0
0400
0400
F400
8F80
8C00
8C00
8C00
D400
A000
8000
ENDCHAR
STARTCHAR uni338B
ENCODING 13195
SWIDTH 1120 0
DWIDTH 14 0
BBX 11 9 1 0
BITMAP
03E0
0200
0200
F200
93C0
9200
9200
9200
9200
ENDCHAR
STARTCHAR uni338C
ENCODING 13196
SWIDTH 1120 0
DWIDTH 14 0
BBX 12 11 0 -2
BITMAP
01F0
0100
0100
0300
23E0
2500
4500
4500
7D00
8000
8000
ENDCHAR
STARTCHAR uni338D
ENCODING 13197
SWIDTH 1120 0
DWIDTH 14 0
BBX 11 10 0 -3
BITMAP
0400
25E0
2A40
4A40
49C0
4A00
7BE0
8220
8340
0080
ENDCHAR
STARTCHAR uni338E
ENCODING 13198
SWIDTH 1120 0
DWIDTH 14 0
BBX 11 9 0 -3
BITMAP
EC00
97C0
9640
97C0
9680
9780
9460
0220
01C0
ENDCHAR
STARTCHAR uni338F
ENCODING 13199
SWIDTH 1120 0
DWIDTH 14 0
BBX 10 11 1 -3
BITMAP
8000
8000
8BC0
9480
A480
E500
9600
8780
0840
0680
0100
ENDCHAR
STARTCHAR uni3390
ENCODING 13200
SWIDTH 1120 0
DWIDTH 14 0
BBX 11 9 0 0
BITMAP
0400
8400
8400
85E0
FC40
8440
8480
8500
85E0
ENDCHAR
STARTCHAR uni3391
ENCODING 13201
SWIDTH 1120 0
DWIDTH 14 0
BBX 12 9 0 0
BITMAP
0100
8900
8900
89E0
AF20
C940
A940
A980
89F0
ENDCHAR
STARTCHAR uni3392
ENCODING 13202
SWIDTH 1120 0
DWIDTH 14 0
BBX 12 9 0 0
BITMAP
0100
8D00
8D00
8D60
DF20
ED40
ED40
ED40
AD70
ENDCHAR
STARTCHAR uni3393
ENCODING 13203
SWIDTH 1120 0
DWIDTH 14 0
BBX 13 10 -1 -1
BITMAP
0280
7280
4280
82B0
8390
9AA0
8AA0
8AC0
4AB8
3000
ENDCHAR
STARTCHAR uni3394
ENCODING 13204
SWIDTH 1120 0
DWIDTH 14 0
BBX 12 9 0 0
BITMAP
0100
E900
4900
49F0
4F20
4940
4940
4980
49F0
ENDCHAR
STARTCHAR uni3395
ENCODING 13205
SWIDTH 1120 0
DWIDTH 14 0
BBX 12 10 0 -2
BITMAP
00E0
00A0
02A0
22A0
24C0
44C0
4490
7CA0
8040
8000
ENDCHAR
STARTCHAR uni3396
ENCODING 13206
SWIDTH 1120 0
DWIDTH 14 0
BBX 10 10 1 -1
BITMAP
0080
0180
0240
FA80
AA80
AA80
AB00
AA40
A940
0080
ENDCHAR
STARTCHAR uni3397
ENCODING 13207
SWIDTH 1120 0
DWIDTH 14 0
BBX 10 9 1 -1
BITMAP
0980
0A80
6A80
9A80
8B00
8B00
8A40
5980
2000
ENDCHAR
STARTCHAR uni3398
ENCODING 13208
SWIDTH 1120 0
DWIDTH 14 0
BBX 10 9 1 -1
BITMAP
8180
8280
8280
B280
E300
A300
9240
8A80
0100
ENDCHAR
STARTCHAR uni3399
ENCODING 13209
SWIDTH 1120 0
DWIDTH 14 0
BBX 10 10 1 -1
BITMAP
2000
4000
4000
E6C0
4B40
4A40
4A40
4A40
4A40
0240
ENDCHAR
STARTCHAR uni339A
ENCODING 13210
SWIDTH 1120 0
DWIDTH 14 0
BBX 10 6 1 0
BITMAP
F7C0
9540
9540
9540
9540
9540
ENDCHAR
STARTCHAR uni339B
ENCODING 13211
SWIDTH 1120 0
DWIDTH 14 0
BBX 12 8 0 -2
BITMAP
07F0
2650
2A50
4A50
4A50
7A50
8000
8000
ENDCHAR
STARTCHAR uni339C
ENCODING 13212
SWIDTH 1120 0
DWIDTH 14 0
BBX 10 6 1 0
BITMAP
FFC0
AD40
AD40
AD40
AD40
AD40
ENDCHAR
STARTCHAR uni339D
ENCODING 13213
SWIDTH 1120 0
DWIDTH 14 0
BBX 12 7 0 -1
BITMAP
3BB0
42D0
8290
8290
8290
7A90
0290
ENDCHAR
STARTCHAR uni339E
ENCODING 13214
SWIDTH 1120 0
DWIDTH 14 0
BBX 10 8 1 0
BITMAP
8000
8000
8FC0
9540
A540
E540
9540
8D40
ENDCHAR
STARTCHAR uni339F
ENCODING 13215
SWIDTH 1120 0
DWIDTH 14 0
BBX 12 9 0 0
BITMAP
0010
0020
0020
FBE0
AAA0
AAA0
AAA0
AAA0
AAA0
ENDCHAR
STARTCHAR uni33A0
ENCODING 13216
SWIDTH 1120 0
DWIDTH 14 0
BBX 11 9 0 -1
BITMAP
0020
0000
7000
8BE0
82A0
82A0
8AA0
52A0
22A0
ENDCHAR
STARTCHAR uni33A1
ENCODING 13217
SWIDTH 1120 0
DWIDTH 14 0
BBX 10 9 1 0
BITMAP
0040
0000
0080
3F80
4880
8880
8880
8880
0880
ENDCHAR
STARTCHAR uni33A2
ENCODING 13218
SWIDTH 1120 0
DWIDTH 14 0
BBX 12 9 0 0
BITMAP
0030
8000
8020
87E0
B4A0
A4A0
E4A0
94A0
8CA0
ENDCHAR
STARTCHAR uni33A3
ENCODING 13219
SWIDTH 1120 0
DWIDTH 14 0
BBX 12 10 0 -1
BITMAP
0010
0010
0000
03C0
FAA0
AAA0
AAA0
AAA0
AAA0
02A0
ENDCHAR
STARTCHAR uni33A4
ENCODING 13220
SWIDTH 1120 0
DWIDTH 14 0
BBX 11 10 0 -1
BITMAP
0020
0000
0000
73E0
8AA0
82A0
82A0
8AA0
52A0
22A0
ENDCHAR
STARTCHAR uni33A5
ENCODING 13221
SWIDTH 1120 0
DWIDTH 14 0
BBX 10 9 1 0
BITMAP
0040
0040
0000
3F80
4880
8880
8880
8880
0880
ENDCHAR
STARTCHAR uni33A6
ENCODING 13222
SWIDTH 1120 0
DWIDTH 14 0
BBX 12 10 0 -1
BITMAP
0020
8010
8000
87C0
B4A0
A4A0
E4A0
94A0
8CA0
04A0
ENDCHAR
STARTCHAR uni33A7
ENCODING 13223
SWIDTH 1120 0
DWIDTH 14 0
BBX 12 11 0 -2
BITMAP
FE00
9200
9220
9240
9280
0300
04E0
0900
10E0
2010
00E0
ENDCHAR
STARTCHAR uni33A8
ENCODING 13224
SWIDTH 1120 0
DWIDTH 14 0
BBX 12 11 0 -2
BITMAP
FC00
9200
9220
9240
9280
0330
05C0
0900
10C0
2120
00C0
ENDCHAR
STARTCHAR uni33A9
ENCODING 13225
SWIDTH 1120 0
DWIDTH 14 0
BBX 11 10 1 -1
BITMAP
F000
8800
8800
89C0
F240
80C0
8340
8440
82A0
0100
ENDCHAR
STARTCHAR uni33AA
ENCODING 13226
SWIDTH 1120 0
DWIDTH 14 0
BBX 12 9 0 -1
BITMAP
8E00
8900
89E0
A920
CEE0
A920
A920
88F0
0800
ENDCHAR
STARTCHAR uni33AB
ENCODING 13227
SWIDTH 1120 0
DWIDTH 14 0
BBX 12 9 0 0
BITMAP
9600
9500
9500
9520
9620
F420
D4E0
D4A0
0070
ENDCHAR
STARTCHAR uni33AC
ENCODING 13228
SWIDTH 1120 0
DWIDTH 14 0
BBX 13 10 -1 -1
BITMAP
3000
5300
4280
82D0
9A90
8B90
8A70
4A50
3A38
0200
ENDCHAR
STARTCHAR uni33AD
ENCODING 13229
SWIDTH 1120 0
DWIDTH 14 0
BBX 11 9 0 -1
BITMAP
0020
0020
2EA0
4B60
8320
9F20
9320
15E0
0800
ENDCHAR
STARTCHAR uni33AE
ENCODING 13230
SWIDTH 1120 0
DWIDTH 14 0
BBX 11 11 0 -2
BITMAP
0100
0100
8F00
9D00
AD00
12C0
0100
06C0
0840
1020
2000
ENDCHAR
STARTCHAR uni33AF
ENCODING 13231
SWIDTH 1120 0
DWIDTH 14 0
BBX 11 11 0 -2
BITMAP
0200
1200
9E00
9A00
AA00
14C0
0100
06E0
0880
3060
0020
ENDCHAR
STARTCHAR uni33B0
ENCODING 13232
SWIDTH 1120 0
DWIDTH 14 0
BBX 11 7 0 -1
BITMAP
39C0
4A20
4500
84E0
4820
A920
90C0
ENDCHAR
STARTCHAR uni33B1
ENCODING 13233
SWIDTH 1120 0
DWIDTH 14 0
BBX 10 6 1 0
BITMAP
F780
9440
9200
91C0
9440
8280
ENDCHAR
STARTCHAR uni33B2
ENCODING 13234
SWIDTH 1120 0
DWIDTH 14 0
BBX 12 8 0 -2
BITMAP
22E0
2510
4480
4470
4510
BCA0
8040
8000
ENDCHAR
STARTCHAR uni33B3
ENCODING 13235
SWIDTH 1120 0
DWIDTH 14 0
BBX 10 6 1 0
BITMAP
FBC0
AC40
AB00
A8C0
A840
ABC0
ENDCHAR
STARTCHAR uni33B4
ENCODING 13236
SWIDTH 1120 0
DWIDTH 14 0
BBX 11 9 0 -1
BITMAP
0020
0220
3A40
4A40
8640
8540
4980
A880
9000
ENDCHAR
STARTCHAR uni33B5
ENCODING 13237
SWIDTH 1120 0
DWIDTH 14 0
BBX 11 8 0 0
BITMAP
0420
0440
7240
8A40
8A40
8A80
8980
0980
ENDCHAR
STARTCHAR uni33B6
ENCODING 13238
SWIDTH 1120 0
DWIDTH 14 0
BBX 12 10 0 -2
BITMAP
0110
0120
0320
2320
44A0
44C0
44C0
7C40
8000
8000
ENDCHAR
STARTCHAR uni33B7
ENCODING 13239
SWIDTH 1120 0
DWIDTH 14 0
BBX 11 8 0 0
BITMAP
0200
0220
FE20
9640
9540
9540
9540
9580
ENDCHAR
STARTCHAR uni33B8
ENCODING 13240
SWIDTH 1120 0
DWIDTH 14 0
BBX 10 8 1 0
BITMAP
8040
8440
8480
B480
E480
A300
9300
8900
ENDCHAR
STARTCHAR uni33B9
ENCODING 13241
SWIDTH 1120 0
DWIDTH 14 0
BBX 11 8 0 0
BITMAP
8500
8520
CD20
D520
D540
B4C0
B4C0
8440
ENDCHAR
STARTCHAR uni33BA
ENCODING 13242
SWIDTH 1120 0
DWIDTH 14 0
BBX 11 9 0 -1
BITMAP
0480
04A0
7DA0
8DA0
8BA0
8B60
8B40
D040
A000
ENDCHAR
STARTCHAR uni33BB
ENCODING 13243
SWIDTH 1120 0
DWIDTH 14 0
BBX 10 8 1 0
BITMAP
0900
0940
F940
9B40
9B40
9780
9580
8480
ENDCHAR
STARTCHAR uni33BC
ENCODING 13244
SWIDTH 1120 0
DWIDTH 14 0
BBX 12 10 0 -2
BITMAP
0090
0490
26A0
2B60
4B60
4B60
4920
B120
8000
8000
ENDCHAR
STARTCHAR uni33BD
ENCODING 13245
SWIDTH 1120 0
DWIDTH 14 0
BBX 11 9 0 -1
BITMAP
0480
04A0
FDA0
ABA0
AB60
AB60
A960
A900
8000
ENDCHAR
STARTCHAR uni33BE
ENCODING 13246
SWIDTH 1120 0
DWIDTH 14 0
BBX 11 8 0 0
BITMAP
8480
84A0
85A0
B5A0
E3A0
A3A0
9340
8840
ENDCHAR
STARTCHAR uni33BF
ENCODING 13247
SWIDTH 1120 0
DWIDTH 14 0
BBX 11 8 0 0
BITMAP
8880
8DA0
8DA0
DBA0
EB60
EB60
E940
A800
ENDCHAR
STARTCHAR uni33C0
ENCODING 13248
SWIDTH 1120 0
DWIDTH 14 0
BBX 12 9 0 0
BITMAP
01E0
8130
8310
8210
B210
E120
A140
90C0
8BF0
ENDCHAR
STARTCHAR uni33C1
ENCODING 13249
SWIDTH 1120 0
DWIDTH 14 0
BBX 12 9 0 0
BITMAP
01E0
8930
8B10
8A10
DA10
E920
E940
E8C0
ABF0
ENDCHAR
STARTCHAR uni33C2
ENCODING 13250
SWIDTH 1120 0
DWIDTH 14 0
BBX 12 6 0 0
BITMAP
E3E0
92A0
32A0
D2A0
92A0
92B0
ENDCHAR
STARTCHAR uni33C3
ENCODING 13251
SWIDTH 1120 0
DWIDTH 14 0
BBX 10 11 1 -2
BITMAP
E000
9000
9000
9340
E4C0
9C40
8840
8440
9CC0
6340
0040
ENDCHAR
STARTCHAR uni33C4
ENCODING 13252
SWIDTH 1120 0
DWIDTH 14 0
BBX 11 7 0 -1
BITMAP
39E0
4200
8200
8200
8200
49E0
3000
ENDCHAR
STARTCHAR uni33C5
ENCODING 13253
SWIDTH 1120 0
DWIDTH 14 0
BBX 11 9 0 -1
BITMAP
0020
0020
39A0
4660
8420
8420
4620
2A60
1180
ENDCHAR
STARTCHAR uni33C6
ENCODING 13254
SWIDTH 1120 0
DWIDTH 14 0
BBX 11 12 0 -3
BITMAP
C400
8800
0800
9000
9400
5400
25E0
26A0
45C0
44E0
40A0
0040
ENDCHAR
STARTCHAR uni33C7
ENCODING 13255
SWIDTH 1120 0
DWIDTH 14 0
BBX 12 10 0 -1
BITMAP
3000
4800
8000
81C0
8220
8220
8220
8220
4A50
3180
ENDCHAR
STARTCHAR uni33C8
ENCODING 13256
SWIDTH 1120 0
DWIDTH 14 0
BBX 11 10 1 -1
BITMAP
03C0
0C40
0C20
7C40
9BC0
0A20
0A20
1A20
BBC0
4000
ENDCHAR
STARTCHAR uni33C9
ENCODING 13257
SWIDTH 1120 0
DWIDTH 14 0
BBX 11 11 0 -2
BITMAP
3800
4800
4000
8020
8D20
8540
8540
44C0
3C80
0080
0080
ENDCHAR
STARTCHAR uni33CA
ENCODING 13258
SWIDTH 1120 0
DWIDTH 14 0
BBX 10 8 1 0
BITMAP
8000
8000
A380
D480
9180
9680
9480
8340
ENDCHAR
STARTCHAR uni33CF
ENCODING 13263
SWIDTH 1120 0
DWIDTH 14 0
BBX 8 8 2 0
BITMAP
82
82
8F
92
A2
E2
92
82
ENDCHAR
STARTCHAR uni33D0
ENCODING 13264
SWIDTH 1120 0
DWIDTH 14 0
BBX 8 9 2 0
BITMAP
80
80
80
BF
A5
A5
A5
A5
A5
ENDCHAR
STARTCHAR uni33D3
ENCODING 13267
SWIDTH 1120 0
DWIDTH 14 0
BBX 7 8 2 0
BITMAP
80
80
82
94
88
8C
94
82
ENDCHAR
STARTCHAR uni33D6
ENCODING 13270
SWIDTH 1120 0
DWIDTH 14 0
BBX 10 8 1 0
BITMAP
0040
0040
FB40
AD40
AD40
AD40
AD40
AB40
ENDCHAR
STARTCHAR uni33D8
ENCODING 13272
SWIDTH 1120 0
DWIDTH 14 0
BBX 12 8 0 -2
BITMAP
F3E0
8AA0
8AA0
8AA0
8AA0
D2B0
A000
8000
ENDCHAR
STARTCHAR uni33DB
ENCODING 13275
SWIDTH 1120 0
DWIDTH 14 0
BBX 8 6 2 0
BITMAP
F5
86
44
34
8C
54
ENDCHAR
STARTCHAR uni33DC
ENCODING 13276
SWIDTH 1120 0
DWIDTH 14 0
BBX 11 9 0 0
BITMAP
3800
4400
8400
4000
3A20
0540
0540
4540
2880
ENDCHAR
STARTCHAR uni33DD
ENCODING 13277
SWIDTH 1120 0
DWIDTH 14 0
BBX 12 9 0 0
BITMAP
9100
9500
9500
B5E0
B510
7610
6A10
4A10
0120
ENDCHAR
STARTCHAR uni4E00
ENCODING 19968
SWIDTH 1120 0
DWIDTH 14 0
BBX 10 1 1 3
BITMAP
FFC0
ENDCHAR
STARTCHAR uni4E01
ENCODING 19969
SWIDTH 1120 0
DWIDTH 14 0
BBX 10 9 1 -1
BITMAP
FFC0
0400
0400
0400
0400
0400
0400
0400
1C00
ENDCHAR
STARTCHAR uni4E03
ENCODING 19971
SWIDTH 1120 0
DWIDTH 14 0
BBX 11 8 1 -1
BITMAP
0800
0800
0860
FF80
0800
0840
0840
0F80
ENDCHAR
STARTCHAR uni4E07
ENCODING 19975
SWIDTH 1120 0
DWIDTH 14 0
BBX 11 10 0 -2
BITMAP
FFE0
0800
0800
0F80
0880
1080
1080
2080
4000
0100
ENDCHAR
STARTCHAR uni4E08
ENCODING 19976
SWIDTH 1120 0
DWIDTH 14 0
BBX 10 10 1 -1
BITMAP
0400
0400
FFC0
0400
2400
5400
1800
0800
1600
E1C0
ENDCHAR
STARTCHAR uni4E09
ENCODING 19977
SWIDTH 1120 0
DWIDTH 14 0
BBX 10 7 1 0
BITMAP
7F80
0000
0000
3F80
0000
0000
FFC0
ENDCHAR
STARTCHAR uni4E0A
ENCODING 19978
SWIDTH 1120 0
DWIDTH 14 0
BBX 11 9 0 -1
BITMAP
0400
0400
0400
07C0
0400
0400
0400
0400
FFE0
ENDCHAR
STARTCHAR uni4E0B
ENCODING 19979
SWIDTH 1120 0
DWIDTH 14 0
BBX 10 9 1 -1
BITMAP
FFC0
0800
0800
0C00
0B00
0800
0800
0800
0800
ENDCHAR
STARTCHAR uni4E0D
ENCODING 19981
SWIDTH 1120 0
DWIDTH 14 0
BBX 10 9 1 -1
BITMAP
FFC0
0400
0800
1900
2880
C840
0840
0800
0800
ENDCHAR
STARTCHAR uni4E11
ENCODING 19985
SWIDTH 1120 0
DWIDTH 14 0
BBX 12 9 0 -1
BITMAP
7F80
0880
0880
0880
7FF0
0880
0880
0880
FFF0
ENDCHAR
STARTCHAR uni4E14
ENCODING 19988
SWIDTH 1120 0
DWIDTH 14 0
BBX 10 9 1 -1
BITMAP
3F00
2100
3F00
2100
2100
3F00
2100
2100
FFC0
ENDCHAR
STARTCHAR uni4E15
ENCODING 19989
SWIDTH 1120 0
DWIDTH 14 0
BBX 11 9 1 -1
BITMAP
FFE0
0400
0600
0D00
1480
6440
0400
0400
FFC0
ENDCHAR
STARTCHAR uni4E16
ENCODING 19990
SWIDTH 1120 0
DWIDTH 14 0
BBX 10 11 1 -2
BITMAP
2500
2500
2500
FFC0
2500
2500
2700
2500
2000
3FC0
2000
ENDCHAR
STARTCHAR uni4E18
ENCODING 19992
SWIDTH 1120 0
DWIDTH 14 0
BBX 10 9 1 -1
BITMAP
0300
3C00
2000
3FC0
2200
2200
2200
2200
FFC0
ENDCHAR
STARTCHAR uni4E19
ENCODING 19993
SWIDTH 1120 0
DWIDTH 14 0
BBX 11 9 1 -1
BITMAP
FFE0
0400
7FC0
4440
4C40
5340
4040
4040
40C0
ENDCHAR
STARTCHAR uni4E1E
ENCODING 19998
SWIDTH 1120 0
DWIDTH 14 0
BBX 10 9 1 -1
BITMAP
3F80
0100
7600
1680
2500
2500
C480
0440
7F80
ENDCHAR
STARTCHAR uni4E2D
ENCODING 20013
SWIDTH 1120 0
DWIDTH 14 0
BBX 8 11 2 -2
BITMAP
08
08
08
FF
89
89
FF
89
08
08
08
ENDCHAR
STARTCHAR uni4E32
ENCODING 20018
SWIDTH 1120 0
DWIDTH 14 0
BBX 8 11 2 -2
BITMAP
10
10
FF
91
FF
FF
91
FF
91
10
10
ENDCHAR
STARTCHAR uni4E38
ENCODING 20024
SWIDTH 1120 0
DWIDTH 14 0
BBX 11 12 0 -3
BITMAP
0800
0800
0800
7F00
0900
0900
3100
1900
2100
2100
C120
00C0
ENDCHAR
STARTCHAR uni4E39
ENCODING 20025
SWIDTH 1120 0
DWIDTH 14 0
BBX 10 10 1 -2
BITMAP
3F00
2900
2900
2100
FFC0
2100
2100
4100
4100
8300
ENDCHAR
STARTCHAR uni4E3B
ENCODING 20027
SWIDTH 1120 0
DWIDTH 14 0
BBX 11 9 0 -1
BITMAP
0400
7FC0
0400
0400
0400
3F80
0400
0400
FFE0
ENDCHAR
STARTCHAR uni4E42
ENCODING 20034
SWIDTH 1120 0
DWIDTH 14 0
BBX 10 9 1 -1
BITMAP
2100
6200
1200
1200
1400
0C00
0C00
3300
C0C0
ENDCHAR
STARTCHAR uni4E43
ENCODING 20035
SWIDTH 1120 0
DWIDTH 14 0
BBX 9 10 2 -2
BITMAP
FE00
2400
2400
2780
2480
2080
4100
4100
8100
0200
ENDCHAR
STARTCHAR uni4E45
ENCODING 20037
SWIDTH 1120 0
DWIDTH 14 0
BBX 10 9 1 -1
BITMAP
1000
1E00
2200
4400
0400
0A00
1200
2180
C040
ENDCHAR
STARTCHAR uni4E4B
ENCODING 20043
SWIDTH 1120 0
DWIDTH 14 0
BBX 9 10 1 -2
BITMAP
0800
0800
FF00
0100
0200
0400
5800
A000
B000
0F80
ENDCHAR
STARTCHAR uni4E4D
ENCODING 20045
SWIDTH 1120 0
DWIDTH 14 0
BBX 10 11 2 -2
BITMAP
2000
2000
7FC0
4800
8800
0F80
0800
0F80
0800
0800
0800
ENDCHAR
STARTCHAR uni4E4E
ENCODING 20046
SWIDTH 1120 0
DWIDTH 14 0
BBX 11 11 1 -2
BITMAP
0180
3E00
0400
2500
2400
FFE0
0400
0400
0400
0400
1C00
ENDCHAR
STARTCHAR uni4E4F
ENCODING 20047
SWIDTH 1120 0
DWIDTH 14 0
BBX 9 9 1 -1
BITMAP
FF80
0800
0800
FF00
0200
0C00
5000
E000
3F80
ENDCHAR
STARTCHAR uni4E56
ENCODING 20054
SWIDTH 1120 0
DWIDTH 14 0
BBX 11 9 0 -1
BITMAP
3F80
0400
FFE0
0400
0D00
7D80
0D00
0D20
3CC0
ENDCHAR
STARTCHAR uni4E58
ENCODING 20056
SWIDTH 1120 0
DWIDTH 14 0
BBX 11 11 1 -2
BITMAP
0780
1C00
FFE0
1600
7780
1640
7780
0E00
3580
C440
0400
ENDCHAR
STARTCHAR uni4E59
ENCODING 20057
SWIDTH 1120 0
DWIDTH 14 0
BBX 9 9 1 -1
BITMAP
FE00
0800
1000
2000
4000
8000
8000
8080
7F80
ENDCHAR
STARTCHAR uni4E5D
ENCODING 20061
SWIDTH 1120 0
DWIDTH 14 0
BBX 11 9 0 -1
BITMAP
0800
0800
7F00
0900
1100
1100
1120
2120
C1C0
ENDCHAR
STARTCHAR uni4E5E
ENCODING 20062
SWIDTH 1120 0
DWIDTH 14 0
BBX 10 11 1 -2
BITMAP
1000
2000
3FC0
4000
BF00
0200
0C00
1000
2040
2040
3F80
ENDCHAR
STARTCHAR uni4E5F
ENCODING 20063
SWIDTH 1120 0
DWIDTH 14 0
BBX 10 9 1 -1
BITMAP
0400
2400
2580
3E80
E480
2480
2500
2400
3FC0
ENDCHAR
STARTCHAR uni4E6B
ENCODING 20075
SWIDTH 1120 0
DWIDTH 14 0
BBX 10 9 1 -1
BITMAP
FBC0
2A40
4BC0
9240
0000
FF00
0800
3040
C080
ENDCHAR
STARTCHAR uni4E6D
ENCODING 20077
SWIDTH 1120 0
DWIDTH 14 0
BBX 11 10 0 -1
BITMAP
FFE0
1000
1FC0
7040
1FC0
0000
7FC0
0300
1C00
6060
ENDCHAR
STARTCHAR uni4E73
ENCODING 20083
SWIDTH 1120 0
DWIDTH 14 0
BBX 9 11 1 -2
BITMAP
5800
6200
8600
0200
FE00
0A00
1E00
F200
1200
6280
0100
ENDCHAR
STARTCHAR uni4E76
ENCODING 20086
SWIDTH 1120 0
DWIDTH 14 0
BBX 10 11 1 -2
BITMAP
0900
FF80
7F80
7F80
7F80
4880
FF80
0400
1800
6040
FF80
ENDCHAR
STARTCHAR uni4E77
ENCODING 20087
SWIDTH 1120 0
DWIDTH 14 0
BBX 10 10 1 -1
BITMAP
C200
0A00
9280
2500
4600
9800
3F00
0600
3800
4040
ENDCHAR
STARTCHAR uni4E7E
ENCODING 20094
SWIDTH 1120 0
DWIDTH 14 0
BBX 10 11 1 -2
BITMAP
2000
FA00
23C0
FC00
F880
8F00
F900
2200
FC00
2440
27C0
ENDCHAR
STARTCHAR uni4E82
ENCODING 20098
SWIDTH 1120 0
DWIDTH 14 0
BBX 11 11 1 -2
BITMAP
1C00
E100
7900
0900
1100
FD00
8500
BD00
B500
AD20
8DC0
ENDCHAR
STARTCHAR uni4E86
ENCODING 20102
SWIDTH 1120 0
DWIDTH 14 0
BBX 9 9 2 -1
BITMAP
FF80
0200
0400
0800
0800
0800
0800
0800
3000
ENDCHAR
STARTCHAR uni4E88
ENCODING 20104
SWIDTH 1120 0
DWIDTH 14 0
BBX 10 9 1 -1
BITMAP
7F00
0300
0C00
FFC0
0440
0480
0400
0400
0C00
ENDCHAR
STARTCHAR uni4E8B
ENCODING 20107
SWIDTH 1120 0
DWIDTH 14 0
BBX 11 11 0 -2
BITMAP
0400
7FC0
0400
3FC0
3FC0
7FC0
0440
FFE0
7FC0
0440
0800
ENDCHAR
STARTCHAR uni4E8C
ENCODING 20108
SWIDTH 1120 0
DWIDTH 14 0
BBX 10 7 1 0
BITMAP
7F80
0000
0000
0000
0000
0000
FFC0
ENDCHAR
STARTCHAR uni4E8E
ENCODING 20110
SWIDTH 1120 0
DWIDTH 14 0
BBX 10 9 1 -1
BITMAP
7F80
0400
0400
FFC0
0400
0400
0400
0400
1C00
ENDCHAR
STARTCHAR uni4E90
ENCODING 20112
SWIDTH 1120 0
DWIDTH 14 0
BBX 10 9 1 -1
BITMAP
7F80
1000
FFC0
2000
3F80
2080
0100
0100
0700
ENDCHAR
STARTCHAR uni4E91
ENCODING 20113
SWIDTH 1120 0
DWIDTH 14 0
BBX 10 9 1 -1
BITMAP
7F80
0000
0000
FFC0
1000
2100
2080
3F80
E040
ENDCHAR
STARTCHAR uni4E92
ENCODING 20114
SWIDTH 1120 0
DWIDTH 14 0
BBX 10 9 1 -1
BITMAP
FF80
2000
1F00
2100
2200
2200
3E00
2200
FFC0
ENDCHAR
STARTCHAR uni4E94
ENCODING 20116
SWIDTH 1120 0
DWIDTH 14 0
BBX 9 7 2 0
BITMAP
FF80
1000
7E00
2200
2200
2200
FF80
ENDCHAR
STARTCHAR uni4E95
ENCODING 20117
SWIDTH 1120 0
DWIDTH 14 0
BBX 10 11 1 -2
BITMAP
1000
1200
1200
FF80
1200
1200
FFC0
2200
2200
4200
8200
ENDCHAR
STARTCHAR uni4E98
ENCODING 20120
SWIDTH 1120 0
DWIDTH 14 0
BBX 10 9 1 -1
BITMAP
FFC0
0000
7F80
4080
7F80
4080
7F80
0000
FFC0
ENDCHAR
STARTCHAR uni4E9B
ENCODING 20123
SWIDTH 1120 0
DWIDTH 14 0
BBX 10 10 1 -2
BITMAP
2200
62C0
7B00
6200
6200
7BC0
BF00
0000
0000
FFC0
ENDCHAR
STARTCHAR uni4E9E
ENCODING 20126
SWIDTH 1120 0
DWIDTH 14 0
BBX 12 9 0 -1
BITMAP
7FF0
0900
39C0
2940
2040
39C0
0900
0900
FFF0
ENDCHAR
STARTCHAR uni4EA1
ENCODING 20129
SWIDTH 1120 0
DWIDTH 14 0
BBX 10 9 1 -1
BITMAP
0800
FFC0
8000
8000
8000
8000
8000
8000
FF80
ENDCHAR
STARTCHAR uni4EA2
ENCODING 20130
SWIDTH 1120 0
DWIDTH 14 0
BBX 10 10 1 -2
BITMAP
0800
FF80
0000
1E00
1200
1200
1200
2200
C240
03C0
ENDCHAR
STARTCHAR uni4EA4
ENCODING 20132
SWIDTH 1120 0
DWIDTH 14 0
BBX 11 10 0 -2
BITMAP
0400
FFE0
0000
1080
6000
1900
0500
0600
0D00
70E0
ENDCHAR
STARTCHAR uni4EA5
ENCODING 20133
SWIDTH 1120 0
DWIDTH 14 0
BBX 10 10 1 -2
BITMAP
3F00
FFC0
0800
3100
1200
0C00
7100
0600
1B00
60C0
ENDCHAR
STARTCHAR uni4EA6
ENCODING 20134
SWIDTH 1120 0
DWIDTH 14 0
BBX 10 11 1 -2
BITMAP
0400
0400
FFC0
0A00
0A80
4A80
8A80
1240
1200
2600
4000
ENDCHAR
STARTCHAR uni4EA8
ENCODING 20136
SWIDTH 1120 0
DWIDTH 14 0
BBX 10 10 1 -2
BITMAP
FFC0
0000
3F00
3F00
7F00
0A00
0400
0400
0400
0800
ENDCHAR
STARTCHAR uni4EAB
ENCODING 20139
SWIDTH 1120 0
DWIDTH 14 0
BBX 10 10 1 -2
BITMAP
FFC0
3F00
2100
3F00
7F80
0200
FFC0
0400
0400
1800
ENDCHAR
STARTCHAR uni4EAC
ENCODING 20140
SWIDTH 1120 0
DWIDTH 14 0
BBX 11 11 1 -2
BITMAP
0400
0400
7FE0
3F00
2100
2100
3F00
0400
2500
C4C0
0C00
ENDCHAR
STARTCHAR uni4EAD
ENCODING 20141
SWIDTH 1120 0
DWIDTH 14 0
BBX 10 11 1 -2
BITMAP
0400
FFC0
0000
3F80
0000
FFC0
8040
BFC0
0400
0400
0C00
ENDCHAR
STARTCHAR uni4EAE
ENCODING 20142
SWIDTH 1120 0
DWIDTH 14 0
BBX 10 10 1 -2
BITMAP
FFC0
3F00
2100
3F00
FFC0
8040
1400
1400
2480
C300
ENDCHAR
STARTCHAR uni4EB6
ENCODING 20150
SWIDTH 1120 0
DWIDTH 14 0
BBX 10 9 1 -1
BITMAP
FFC0
7F80
7E80
7E80
7F80
3F00
3F00
3F00
FFC0
ENDCHAR
STARTCHAR uni4EBA
ENCODING 20154
SWIDTH 1120 0
DWIDTH 14 0
BBX 10 8 1 -1
BITMAP
0800
0800
0C00
1400
1200
2100
4080
8040
ENDCHAR
STARTCHAR uni4EC0
ENCODING 20160
SWIDTH 1120 0
DWIDTH 14 0
BBX 11 11 0 -2
BITMAP
1100
1100
2100
2FE0
6100
A100
2100
2100
2100
2100
2000
ENDCHAR
STARTCHAR uni4EC1
ENCODING 20161
SWIDTH 1120 0
DWIDTH 14 0
BBX 9 9 2 -1
BITMAP
2000
5F80
4000
C000
4000
4000
4000
7F80
4000
ENDCHAR
STARTCHAR uni4EC4
ENCODING 20164
SWIDTH 1120 0
DWIDTH 14 0
BBX 10 9 1 -1
BITMAP
7FC0
4400
4400
4400
4400
4A00
4900
9080
A040
ENDCHAR
STARTCHAR uni4EC7
ENCODING 20167
SWIDTH 1120 0
DWIDTH 14 0
BBX 10 10 1 -2
BITMAP
2400
2400
5F00
C500
4500
4500
4900
4900
5100
40C0
ENDCHAR
STARTCHAR uni4ECA
ENCODING 20170
SWIDTH 1120 0
DWIDTH 14 0
BBX 10 11 1 -2
BITMAP
0800
0C00
1200
2100
FEC0
0000
7F00
0100
0200
0400
0400
ENDCHAR
STARTCHAR uni4ECB
ENCODING 20171
SWIDTH 1120 0
DWIDTH 14 0
BBX 10 10 1 -2
BITMAP
0C00
1200
2180
D040
1200
1200
1200
2200
4200
0200
ENDCHAR
STARTCHAR uni4ECD
ENCODING 20173
SWIDTH 1120 0
DWIDTH 14 0
BBX 10 11 1 -2
BITMAP
1000
1F80
2480
6500
A5C0
2440
2840
2840
2840
3040
3380
ENDCHAR
STARTCHAR uni4ED4
ENCODING 20180
SWIDTH 1120 0
DWIDTH 14 0
BBX 10 10 1 -2
BITMAP
2F80
4100
4600
C200
5FC0
4200
4100
4100
4200
4600
ENDCHAR
STARTCHAR uni4ED5
ENCODING 20181
SWIDTH 1120 0
DWIDTH 14 0
BBX 11 9 0 -1
BITMAP
1100
1100
2100
6FE0
A100
2100
2100
2100
2FE0
ENDCHAR
STARTCHAR uni4ED6
ENCODING 20182
SWIDTH 1120 0
DWIDTH 14 0
BBX 11 10 0 -1
BITMAP
0100
0100
1560
27A0
6520
A520
2560
2500
2420
27E0
ENDCHAR
STARTCHAR uni4ED7
ENCODING 20183
SWIDTH 1120 0
DWIDTH 14 0
BBX 11 11 1 -2
BITMAP
2000
2100
4100
5FC0
C100
4900
4500
4200
4200
4580
1860
ENDCHAR
STARTCHAR uni4ED8
ENCODING 20184
SWIDTH 1120 0
DWIDTH 14 0
BBX 10 11 1 -2
BITMAP
0100
1100
2100
7FC0
A100
A100
2500
2100
2100
2100
0200
ENDCHAR
STARTCHAR uni4ED9
ENCODING 20185
SWIDTH 1120 0
DWIDTH 14 0
BBX 9 10 2 -2
BITMAP
2200
2200
5280
D280
5280
5280
5280
5280
5F80
1080
ENDCHAR
STARTCHAR uni4EDD
ENCODING 20189
SWIDTH 1120 0
DWIDTH 14 0
BBX 11 10 0 -1
BITMAP
0400
0A00
0900
1080
6060
3F80
0400
0400
0400
FFE0
ENDCHAR
STARTCHAR uni4EDF
ENCODING 20191
SWIDTH 1120 0
DWIDTH 14 0
BBX 10 11 1 -2
BITMAP
2000
4080
4F00
4200
C200
5FC0
4200
4200
4200
4200
0200
ENDCHAR
STARTCHAR uni4EE3
ENCODING 20195
SWIDTH 1120 0
DWIDTH 14 0
BBX 11 11 0 -2
BITMAP
0200
0A80
1200
23E0
6F80
A200
2100
2100
2100
2080
2060
ENDCHAR
STARTCHAR uni4EE4
ENCODING 20196
SWIDTH 1120 0
DWIDTH 14 0
BBX 9 11 2 -2
BITMAP
1000
1800
6400
8300
3C80
0000
FE00
1200
1200
1600
1000
ENDCHAR
STARTCHAR uni4EE5
ENCODING 20197
SWIDTH 1120 0
DWIDTH 14 0
BBX 10 9 1 -1
BITMAP
4000
5080
4880
4080
4100
4100
5100
E6C0
1800
ENDCHAR
STARTCHAR uni4EF0
ENCODING 20208
SWIDTH 1120 0
DWIDTH 14 0
BBX 9 10 2 -1
BITMAP
2000
5F80
5280
D280
5280
5280
5680
7A80
4300
4200
ENDCHAR
STARTCHAR uni4EF2
ENCODING 20210
SWIDTH 1120 0
DWIDTH 14 0
BBX 10 11 1 -2
BITMAP
0200
1200
1200
2FC0
6A40
AA40
2FC0
2A40
2200
2200
2200
ENDCHAR
STARTCHAR uni4EF6
ENCODING 20214
SWIDTH 1120 0
DWIDTH 14 0
BBX 11 11 0 -2
BITMAP
0100
1500
1900
2FE0
6100
A100
2FE0
2100
2100
2100
0100
ENDCHAR
STARTCHAR uni4EF7
ENCODING 20215
SWIDTH 1120 0
DWIDTH 14 0
BBX 10 10 1 -2
BITMAP
2600
4A00
4900
51C0
C900
4900
4900
4900
5100
4000
ENDCHAR
STARTCHAR uni4EFB
ENCODING 20219
SWIDTH 1120 0
DWIDTH 14 0
BBX 10 9 1 -1
BITMAP
01C0
2E00
4200
C200
5FC0
4200
4200
4200
5FC0
ENDCHAR
STARTCHAR uni4F01
ENCODING 20225
SWIDTH 1120 0
DWIDTH 14 0
BBX 11 9 0 -1
BITMAP
0200
0600
0900
31C0
D120
11E0
1100
1100
7FE0
ENDCHAR
STARTCHAR uni4F09
ENCODING 20233
SWIDTH 1120 0
DWIDTH 14 0
BBX 11 11 0 -2
BITMAP
1100
2100
2FE0
6000
A380
2280
2280
2280
2480
2880
0040
ENDCHAR
STARTCHAR uni4F0A
ENCODING 20234
SWIDTH 1120 0
DWIDTH 14 0
BBX 11 10 0 -2
BITMAP
17C0
1140
2FE0
6140
A140
27C0
2200
2200
2200
2400
ENDCHAR
STARTCHAR uni4F0B
ENCODING 20235
SWIDTH 1120 0
DWIDTH 14 0
BBX 11 10 0 -2
BITMAP
1F80
2480
2480
27E0
6620
A540
2940
2880
30C0
2320
ENDCHAR
STARTCHAR uni4F0D
ENCODING 20237
SWIDTH 1120 0
DWIDTH 14 0
BBX 10 11 1 -2
BITMAP
2000
2FC0
4200
4400
CF80
4480
4480
4480
4480
5FC0
4000
ENDCHAR
STARTCHAR uni4F0E
ENCODING 20238
SWIDTH 1120 0
DWIDTH 14 0
BBX 10 11 1 -2
BITMAP
0200
1200
1FC0
2200
6200
BF80
2C80
2480
2300
2300
3CC0
ENDCHAR
STARTCHAR uni4F0F
ENCODING 20239
SWIDTH 1120 0
DWIDTH 14 0
BBX 11 10 1 -2
BITMAP
2200
2200
4200
DFC0
4200
4200
4500
4900
4880
5060
ENDCHAR
STARTCHAR uni4F10
ENCODING 20240
SWIDTH 1120 0
DWIDTH 14 0
BBX 11 11 0 -2
BITMAP
0200
1240
2200
2FE0
6200
A240
2180
2100
2680
2060
2000
ENDCHAR
STARTCHAR uni4F11
ENCODING 20241
SWIDTH 1120 0
DWIDTH 14 0
BBX 11 11 0 -2
BITMAP
1100
1100
2100
6FE0
A100
2380
2580
2540
2920
2100
0100
ENDCHAR
STARTCHAR uni4F2F
ENCODING 20271
SWIDTH 1120 0
DWIDTH 14 0
BBX 10 11 1 -2
BITMAP
0100
0200
1FC0
2840
6840
AFC0
2840
2840
2840
2FC0
2840
ENDCHAR
STARTCHAR uni4F34
ENCODING 20276
SWIDTH 1120 0
DWIDTH 14 0
BBX 10 10 1 -1
BITMAP
2200
2200
4A80
D240
4F80
4200
5FC0
4200
4200
4200
ENDCHAR
STARTCHAR uni4F36
ENCODING 20278
SWIDTH 1120 0
DWIDTH 14 0
BBX 10 10 1 -1
BITMAP
2000
4400
4600
4900
DFC0
4000
5F80
4480
4480
4400
ENDCHAR
STARTCHAR uni4F38
ENCODING 20280
SWIDTH 1120 0
DWIDTH 14 0
BBX 10 11 1 -2
BITMAP
1200
1200
2FC0
2A40
6FC0
AA40
2A40
2FC0
2A40
2200
0200
ENDCHAR
STARTCHAR uni4F3A
ENCODING 20282
SWIDTH 1120 0
DWIDTH 14 0
BBX 9 11 2 -2
BITMAP
2000
3F80
4080
FE80
4080
5E80
5280
5E80
5280
4080
4100
ENDCHAR
STARTCHAR uni4F3C
ENCODING 20284
SWIDTH 1120 0
DWIDTH 14 0
BBX 10 10 1 -1
BITMAP
2000
5480
5480
D280
5080
5080
5280
5D80
6240
4C00
ENDCHAR
STARTCHAR uni4F3D
ENCODING 20285
SWIDTH 1120 0
DWIDTH 14 0
BBX 10 10 1 -1
BITMAP
2800
29C0
5F40
CB40
4B40
4B40
5340
5340
63C0
6540
ENDCHAR
STARTCHAR uni4F43
ENCODING 20291
SWIDTH 1120 0
DWIDTH 14 0
BBX 10 11 1 -2
BITMAP
1000
1FC0
2940
6940
A940
AFC0
2940
2940
2940
2FC0
2840
ENDCHAR
STARTCHAR uni4F46
ENCODING 20294
SWIDTH 1120 0
DWIDTH 14 0
BBX 10 11 1 -2
BITMAP
2000
2F80
6880
4880
CF80
4880
4880
4F80
4880
5FC0
4000
ENDCHAR
STARTCHAR uni4F47
ENCODING 20295
SWIDTH 1120 0
DWIDTH 14 0
BBX 12 11 0 -2
BITMAP
1000
1100
2FE0
2820
6820
AFF0
2080
2080
2080
2080
2380
ENDCHAR
STARTCHAR uni4F48
ENCODING 20296
SWIDTH 1120 0
DWIDTH 14 0
BBX 10 10 1 -1
BITMAP
2000
4200
5FC0
C500
CFC0
5940
4940
4940
4940
4100
ENDCHAR
STARTCHAR uni4F4D
ENCODING 20301
SWIDTH 1120 0
DWIDTH 14 0
BBX 11 10 0 -1
BITMAP
1000
1100
2100
6FE0
A000
2480
2480
2280
2080
2FE0
ENDCHAR
STARTCHAR uni4F4E
ENCODING 20302
SWIDTH 1120 0
DWIDTH 14 0
BBX 12 9 0 -1
BITMAP
1380
2D00
2900
6FE0
A900
2880
2E80
2050
2FB0
ENDCHAR
STARTCHAR uni4F4F
ENCODING 20303
SWIDTH 1120 0
DWIDTH 14 0
BBX 10 10 1 -1
BITMAP
2000
2200
4200
DFC0
4200
4200
4F80
4200
4200
5FC0
ENDCHAR
STARTCHAR uni4F50
ENCODING 20304
SWIDTH 1120 0
DWIDTH 14 0
BBX 10 10 1 -1
BITMAP
2000
2400
4400
DFC0
4800
4800
4F80
5200
6200
5FC0
ENDCHAR
STARTCHAR uni4F51
ENCODING 20305
SWIDTH 1120 0
DWIDTH 14 0
BBX 11 10 1 -2
BITMAP
2200
4200
5FE0
C400
47C0
4440
4C40
4440
47C0
4440
ENDCHAR
STARTCHAR uni4F55
ENCODING 20309
SWIDTH 1120 0
DWIDTH 14 0
BBX 11 9 0 -1
BITMAP
1000
1FE0
2040
6740
A540
2740
2540
2040
21C0
ENDCHAR
STARTCHAR uni4F59
ENCODING 20313
SWIDTH 1120 0
DWIDTH 14 0
BBX 11 11 0 -2
BITMAP
0400
0C00
1200
2180
DF40
0400
7FC0
0400
1480
6460
0C00
ENDCHAR
STARTCHAR uni4F5A
ENCODING 20314
SWIDTH 1120 0
DWIDTH 14 0
BBX 10 11 1 -2
BITMAP
2000
2A00
5200
5FC0
C200
5FC0
4200
4500
4900
5080
4000
ENDCHAR
STARTCHAR uni4F5B
ENCODING 20315
SWIDTH 1120 0
DWIDTH 14 0
BBX 11 11 0 -2
BITMAP
0200
1280
1FE0
22A0
6FE0
AA80
2FE0
2AA0
24A0
24E0
2880
ENDCHAR
STARTCHAR uni4F5C
ENCODING 20316
SWIDTH 1120 0
DWIDTH 14 0
BBX 11 10 1 -1
BITMAP
1400
1800
2FE0
7200
B200
23C0
2200
23C0
2200
2200
ENDCHAR
STARTCHAR uni4F69
ENCODING 20329
SWIDTH 1120 0
DWIDTH 14 0
BBX 11 11 0 -2
BITMAP
1000
2FC0
2840
6F40
AFC0
2EC0
2EC0
2EC0
2EC0
3240
1220
ENDCHAR
STARTCHAR uni4F6F
ENCODING 20335
SWIDTH 1120 0
DWIDTH 14 0
BBX 11 10 0 -1
BITMAP
0040
1280
2FE0
2100
6FC0
A100
3FE0
2100
2100
2100
ENDCHAR
STARTCHAR uni4F70
ENCODING 20336
SWIDTH 1120 0
DWIDTH 14 0
BBX 10 10 1 -2
BITMAP
1FC0
2200
2FC0
6840
A840
2FC0
2840
2840
2FC0
2840
ENDCHAR
STARTCHAR uni4F73
ENCODING 20339
SWIDTH 1120 0
DWIDTH 14 0
BBX 10 11 1 -2
BITMAP
0200
2200
5FC0
C200
5FC0
4200
4200
5FC0
4200
4200
1FC0
ENDCHAR
STARTCHAR uni4F76
ENCODING 20342
SWIDTH 1120 0
DWIDTH 14 0
BBX 10 10 1 -2
BITMAP
2200
3FC0
4200
4F80
C000
4F80
4880
4880
4F80
0880
ENDCHAR
STARTCHAR uni4F7A
ENCODING 20346
SWIDTH 1120 0
DWIDTH 14 0
BBX 11 11 0 -2
BITMAP
1000
1700
2100
2280
67E0
A100
2100
27C0
2100
2FE0
2000
ENDCHAR
STARTCHAR uni4F7E
ENCODING 20350
SWIDTH 1120 0
DWIDTH 14 0
BBX 11 10 0 -1
BITMAP
1000
2780
2480
2840
67E0
A7C0
2440
27C0
2840
2840
ENDCHAR
STARTCHAR uni4F7F
ENCODING 20351
SWIDTH 1120 0
DWIDTH 14 0
BBX 10 11 1 -2
BITMAP
0200
2200
5FC0
4200
CFC0
4A40
4FC0
4A40
4C00
4600
39C0
ENDCHAR
STARTCHAR uni4F81
ENCODING 20353
SWIDTH 1120 0
DWIDTH 14 0
BBX 11 11 1 -2
BITMAP
2000
2A00
4A00
4FC0
D200
7FE0
4500
4500
4900
4920
51C0
ENDCHAR
STARTCHAR uni4F83
ENCODING 20355
SWIDTH 1120 0
DWIDTH 14 0
BBX 11 10 1 -1
BITMAP
2000
5F80
5080
5F80
C200
4A80
4A80
4A80
5280
42E0
ENDCHAR
STARTCHAR uni4F84
ENCODING 20356
SWIDTH 1120 0
DWIDTH 14 0
BBX 10 9 1 -1
BITMAP
3FC0
4200
4480
DFC0
4200
5FC0
4200
4200
5FC0
ENDCHAR
STARTCHAR uni4F86
ENCODING 20358
SWIDTH 1120 0
DWIDTH 14 0
BBX 9 10 1 -2
BITMAP
0800
FF80
0800
4900
2A80
1C00
2A00
C900
0880
0800
ENDCHAR
STARTCHAR uni4F88
ENCODING 20360
SWIDTH 1120 0
DWIDTH 14 0
BBX 11 11 0 -2
BITMAP
1100
13C0
2480
6300
A200
2080
21E0
2240
2480
2100
0600
ENDCHAR
STARTCHAR uni4F8A
ENCODING 20362
SWIDTH 1120 0
DWIDTH 14 0
BBX 12 11 0 -2
BITMAP
1100
1500
2540
6300
AFE0
2280
2280
2480
2480
2890
2060
ENDCHAR
STARTCHAR uni4F8B
ENCODING 20363
SWIDTH 1120 0
DWIDTH 14 0
BBX 10 9 1 -1
BITMAP
3E40
4940
4F40
CD40
5540
4D40
4940
5840
40C0
ENDCHAR
STARTCHAR uni4F8D
ENCODING 20365
SWIDTH 1120 0
DWIDTH 14 0
BBX 11 11 1 -2
BITMAP
0200
2200
4FC0
C200
5FE0
4000
4080
5FE0
4480
4080
0180
ENDCHAR
STARTCHAR uni4F8F
ENCODING 20367
SWIDTH 1120 0
DWIDTH 14 0
BBX 11 11 0 -2
BITMAP
0100
1100
2FE0
2900
6100
AFE0
2100
2380
2540
3920
0100
ENDCHAR
STARTCHAR uni4F91
ENCODING 20369
SWIDTH 1120 0
DWIDTH 14 0
BBX 10 10 1 -2
BITMAP
2000
5FC0
4780
C480
C780
4480
4780
4480
4480
4400
ENDCHAR
STARTCHAR uni4F96
ENCODING 20374
SWIDTH 1120 0
DWIDTH 14 0
BBX 10 9 1 -1
BITMAP
0800
1400
2300
DEC0
7F80
5480
7F80
5480
5580
ENDCHAR
STARTCHAR uni4F98
ENCODING 20376
SWIDTH 1120 0
DWIDTH 14 0
BBX 10 10 1 -2
BITMAP
2200
5FC0
5340
C600
4200
5FC0
4200
4200
4240
0180
ENDCHAR
STARTCHAR uni4F9B
ENCODING 20379
SWIDTH 1120 0
DWIDTH 14 0
BBX 10 11 1 -2
BITMAP
0500
0500
2500
5FC0
C500
4500
5FC0
4000
4900
50C0
4000
ENDCHAR
STARTCHAR uni4F9D
ENCODING 20381
SWIDTH 1120 0
DWIDTH 14 0
BBX 10 10 1 -1
BITMAP
2200
2200
5FC0
C500
4500
5980
6900
4880
4A40
5400
ENDCHAR
STARTCHAR uni4FAE
ENCODING 20398
SWIDTH 1120 0
DWIDTH 14 0
BBX 10 11 1 -2
BITMAP
2000
2000
2FC0
5F80
D080
5280
7FC0
5280
4FC0
5300
4000
ENDCHAR
STARTCHAR uni4FAF
ENCODING 20399
SWIDTH 1120 0
DWIDTH 14 0
BBX 12 10 0 -1
BITMAP
13C0
1040
2FF0
6400
A7E0
2100
2FE0
2300
2280
2C60
ENDCHAR
STARTCHAR uni4FB5
ENCODING 20405
SWIDTH 1120 0
DWIDTH 14 0
BBX 11 11 0 -2
BITMAP
1000
17C0
2FE0
67C0
A000
2FE0
2FE0
2280
2100
2280
0460
ENDCHAR
STARTCHAR uni4FB6
ENCODING 20406
SWIDTH 1120 0
DWIDTH 14 0
BBX 10 11 1 -2
BITMAP
17C0
1440
2440
6440
A7C0
2540
2FC0
2840
2840
2FC0
0840
ENDCHAR
STARTCHAR uni4FBF
ENCODING 20415
SWIDTH 1120 0
DWIDTH 14 0
BBX 11 10 0 -2
BITMAP
1FE0
27E0
2520
67E0
A520
27E0
2500
2300
2EE0
2000
ENDCHAR
STARTCHAR uni4FC2
ENCODING 20418
SWIDTH 1120 0
DWIDTH 14 0
BBX 12 11 0 -2
BITMAP
1000
17C0
2640
6280
A120
2FE0
2110
2500
2940
2120
0100
ENDCHAR
STARTCHAR uni4FC3
ENCODING 20419
SWIDTH 1120 0
DWIDTH 14 0
BBX 10 11 1 -2
BITMAP
2000
2FC0
4840
C840
C780
4200
43C0
4A00
4A00
5600
0180
ENDCHAR
STARTCHAR uni4FC4
ENCODING 20420
SWIDTH 1120 0
DWIDTH 14 0
BBX 12 11 0 -2
BITMAP
1000
2680
2CA0
6480
BFF0
2480
2480
2CA0
3440
25C0
2C30
ENDCHAR
STARTCHAR uni4FC9
ENCODING 20425
SWIDTH 1120 0
DWIDTH 14 0
BBX 11 11 0 -2
BITMAP
1000
17E0
2100
67C0
A240
2FE0
2000
27E0
2420
27E0
2420
ENDCHAR
STARTCHAR uni4FCA
ENCODING 20426
SWIDTH 1120 0
DWIDTH 14 0
BBX 11 10 1 -1
BITMAP
2200
2480
5F80
C140
4920
44C0
4780
4D00
4200
5DC0
ENDCHAR
STARTCHAR uni4FCE
ENCODING 20430
SWIDTH 1120 0
DWIDTH 14 0
BBX 11 9 1 -1
BITMAP
2780
4480
6480
6780
8480
4780
6480
9480
0FE0
ENDCHAR
STARTCHAR uni4FD1
ENCODING 20433
SWIDTH 1120 0
DWIDTH 14 0
BBX 10 11 1 -2
BITMAP
2000
4F80
4300
4FC0
C940
4FC0
4940
4FC0
4940
4940
09C0
ENDCHAR
STARTCHAR uni4FD3
ENCODING 20435
SWIDTH 1120 0
DWIDTH 14 0
BBX 10 11 1 -2
BITMAP
2000
5FC0
4100
CA80
4A80
4040
5FC0
4200
4200
5FC0
4000
ENDCHAR
STARTCHAR uni4FD4
ENCODING 20436
SWIDTH 1120 0
DWIDTH 14 0
BBX 11 11 1 -2
BITMAP
2000
2F80
4F80
4880
CF80
4880
4F80
4500
4500
4920
51C0
ENDCHAR
STARTCHAR uni4FD7
ENCODING 20439
SWIDTH 1120 0
DWIDTH 14 0
BBX 10 11 1 -2
BITMAP
2400
2880
5200
C600
4980
5040
4F80
4880
4880
4F80
4880
ENDCHAR
STARTCHAR uni4FDA
ENCODING 20442
SWIDTH 1120 0
DWIDTH 14 0
BBX 11 11 0 -2
BITMAP
1000
17E0
2520
27E0
6520
A7E0
2100
2FE0
2100
2FE0
2000
ENDCHAR
STARTCHAR uni4FDD
ENCODING 20445
SWIDTH 1120 0
DWIDTH 14 0
BBX 12 10 0 -2
BITMAP
17C0
2440
27C0
6540
AFF0
2380
2540
2920
2100
2000
ENDCHAR
STARTCHAR uni4FDF
ENCODING 20447
SWIDTH 1120 0
DWIDTH 14 0
BBX 11 11 0 -2
BITMAP
1000
1200
25C0
2620
67E0
A900
2FE0
2100
2280
2440
0820
ENDCHAR
STARTCHAR uni4FE0
ENCODING 20448
SWIDTH 1120 0
DWIDTH 14 0
BBX 10 11 1 -2
BITMAP
2000
4200
5FC0
C200
4280
5A80
4200
4500
4900
50C0
4000
ENDCHAR
STARTCHAR uni4FE1
ENCODING 20449
SWIDTH 1120 0
DWIDTH 14 0
BBX 10 10 1 -2
BITMAP
2F80
5FC0
4000
CF80
4000
4F80
4F80
4880
4F80
4880
ENDCHAR
STARTCHAR uni4FEE
ENCODING 20462
SWIDTH 1120 0
DWIDTH 14 0
BBX 10 11 1 -2
BITMAP
2400
27C0
5C80
D300
5780
5940
5680
5100
5E40
4180
4E00
ENDCHAR
STARTCHAR uni4FEF
ENCODING 20463
SWIDTH 1120 0
DWIDTH 14 0
BBX 10 11 1 -2
BITMAP
2000
2200
5FC0
D080
5480
57C0
5C80
5580
5480
6480
2580
ENDCHAR
STARTCHAR uni4FF1
ENCODING 20465
SWIDTH 1120 0
DWIDTH 14 0
BBX 11 10 1 -2
BITMAP
2F80
4F80
4880
CF80
4F80
4880
5FE0
4100
4880
4000
ENDCHAR
STARTCHAR uni4FF3
ENCODING 20467
SWIDTH 1120 0
DWIDTH 14 0
BBX 11 11 1 -2
BITMAP
2500
4500
5DE0
C500
5D00
45C0
4D00
59E0
4900
4100
0100
ENDCHAR
STARTCHAR uni4FF5
ENCODING 20469
SWIDTH 1120 0
DWIDTH 14 0
BBX 12 11 0 -2
BITMAP
0100
1100
1FE0
27C0
6100
BFF0
2300
24C0
3C80
2560
2E00
ENDCHAR
STARTCHAR uni4FF8
ENCODING 20472
SWIDTH 1120 0
DWIDTH 14 0
BBX 10 10 1 -2
BITMAP
3FC0
4400
5F80
DFC0
4900
5280
4700
4F80
4200
4200
ENDCHAR
STARTCHAR uni4FFA
ENCODING 20474
SWIDTH 1120 0
DWIDTH 14 0
BBX 11 11 1 -2
BITMAP
0200
2200
4FC0
4700
DF80
4AE0
4F80
4A80
4F80
4200
41C0
ENDCHAR
STARTCHAR uni5002
ENCODING 20482
SWIDTH 1120 0
DWIDTH 14 0
BBX 11 11 1 -2
BITMAP
2800
3080
7DE0
4880
C880
4C80
7BE0
4880
5080
6080
0080
ENDCHAR
STARTCHAR uni5006
ENCODING 20486
SWIDTH 1120 0
DWIDTH 14 0
BBX 10 11 1 -2
BITMAP
2000
5FC0
4200
DFC0
5B40
5B40
5B40
52C0
5240
52C0
1200
ENDCHAR
STARTCHAR uni5009
ENCODING 20489
SWIDTH 1120 0
DWIDTH 14 0
BBX 10 11 1 -2
BITMAP
0800
1400
2300
DEC0
3F00
3F00
4100
3F00
5F80
9F80
8080
ENDCHAR
STARTCHAR uni500B
ENCODING 20491
SWIDTH 1120 0
DWIDTH 14 0
BBX 10 11 1 -2
BITMAP
1000
2FC0
2A40
6FC0
AA40
AFC0
2CC0
2FC0
2840
2FC0
2840
ENDCHAR
STARTCHAR uni500D
ENCODING 20493
SWIDTH 1120 0
DWIDTH 14 0
BBX 11 11 0 -2
BITMAP
0100
1100
1FC0
2480
6280
AFE0
27C0
2440
2440
27C0
2440
ENDCHAR
STARTCHAR uni5011
ENCODING 20497
SWIDTH 1120 0
DWIDTH 14 0
BBX 10 10 1 -2
BITMAP
3FC0
5FC0
5340
DFC0
5040
5040
5040
5040
5040
1080
ENDCHAR
STARTCHAR uni5012
ENCODING 20498
SWIDTH 1120 0
DWIDTH 14 0
BBX 10 11 1 -2
BITMAP
0040
3EC0
48C0
4AC0
DEC0
44C0
5EC0
44C0
4740
4840
4000
ENDCHAR
STARTCHAR uni5016
ENCODING 20502
SWIDTH 1120 0
DWIDTH 14 0
BBX 11 11 0 -2
BITMAP
1100
17E0
2100
6FE0
A440
2480
2FE0
2100
2FE0
2100
0100
ENDCHAR
STARTCHAR uni5019
ENCODING 20505
SWIDTH 1120 0
DWIDTH 14 0
BBX 11 10 1 -2
BITMAP
2780
3080
5FE0
D000
57C0
5FE0
5100
5280
4C60
4000
ENDCHAR
STARTCHAR uni501A
ENCODING 20506
SWIDTH 1120 0
DWIDTH 14 0
BBX 10 11 1 -2
BITMAP
0200
2FC0
4500
C880
4000
5FC0
4F80
4980
4F80
4080
4180
ENDCHAR
STARTCHAR uni501C
ENCODING 20508
SWIDTH 1120 0
DWIDTH 14 0
BBX 10 11 1 -2
BITMAP
2000
5FC0
5F40
5240
DFC0
5240
57C0
54C0
67C0
6440
00C0
ENDCHAR
STARTCHAR uni501E
ENCODING 20510
SWIDTH 1120 0
DWIDTH 14 0
BBX 10 11 1 -2
BITMAP
2200
2200
5FC0
4000
DF80
5080
5F80
4200
5280
6240
4600
ENDCHAR
STARTCHAR uni501F
ENCODING 20511
SWIDTH 1120 0
DWIDTH 14 0
BBX 10 10 1 -1
BITMAP
0500
2500
5FC0
C500
5FC0
4000
4F80
4F80
4880
4F80
ENDCHAR
STARTCHAR uni5021
ENCODING 20513
SWIDTH 1120 0
DWIDTH 14 0
BBX 11 10 0 -2
BITMAP
17E0
27E0
2420
67E0
AFE0
2820
2FE0
2820
2FE0
0820
ENDCHAR
STARTCHAR uni5023
ENCODING 20515
SWIDTH 1120 0
DWIDTH 14 0
BBX 11 11 0 -2
BITMAP
1400
1480
2E80
65E0
A520
2740
2AC0
2AC0
2A80
32C0
1520
ENDCHAR
STARTCHAR uni5024
ENCODING 20516
SWIDTH 1120 0
DWIDTH 14 0
BBX 10 11 1 -2
BITMAP
0200
2200
3FC0
4780
D480
5780
5780
5780
5480
5FC0
5000
ENDCHAR
STARTCHAR uni5026
ENCODING 20518
SWIDTH 1120 0
DWIDTH 14 0
BBX 10 11 1 -2
BITMAP
2200
4C00
4F40
4600
FFC0
4900
5FC0
4900
4900
4800
4F80
ENDCHAR
STARTCHAR uni5027
ENCODING 20519
SWIDTH 1120 0
DWIDTH 14 0
BBX 11 11 0 -2
BITMAP
0100
1100
2FE0
2820
6BA0
AFE0
2100
2100
2540
2920
2000
ENDCHAR
STARTCHAR uni5028
ENCODING 20520
SWIDTH 1120 0
DWIDTH 14 0
BBX 12 11 0 -2
BITMAP
1000
17E0
2420
67E0
A480
27F0
2880
2BE0
2A20
23E0
2220
ENDCHAR
STARTCHAR uni502A
ENCODING 20522
SWIDTH 1120 0
DWIDTH 14 0
BBX 11 10 0 -2
BITMAP
1CE0
2820
2EE0
6820
AFE0
2280
2280
2480
2480
0840
ENDCHAR
STARTCHAR uni502B
ENCODING 20523
SWIDTH 1120 0
DWIDTH 14 0
BBX 11 11 0 -2
BITMAP
0100
1280
1460
2780
6000
AFC0
2AC0
2FC0
2AC0
2AC0
20C0
ENDCHAR
STARTCHAR uni502C
ENCODING 20524
SWIDTH 1120 0
DWIDTH 14 0
BBX 10 10 1 -1
BITMAP
0200
13C0
2200
2FC0
6FC0
A840
2FC0
3FC0
2200
2200
ENDCHAR
STARTCHAR uni502D
ENCODING 20525
SWIDTH 1120 0
DWIDTH 14 0
BBX 11 11 0 -2
BITMAP
0040
1780
2900
67C0
A540
2920
2FE0
2480
2300
2380
0C40
ENDCHAR
STARTCHAR uni503B
ENCODING 20539
SWIDTH 1120 0
DWIDTH 14 0
BBX 11 11 0 -2
BITMAP
1000
3FE0
29A0
6FC0
A9C0
2FC0
29A0
29A0
2FA0
3980
0180
ENDCHAR
STARTCHAR uni5043
ENCODING 20547
SWIDTH 1120 0
DWIDTH 14 0
BBX 11 10 1 -2
BITMAP
3FC0
57C0
57C0
57C0
D100
5FE0
5480
5380
5FC0
4000
ENDCHAR
STARTCHAR uni5047
ENCODING 20551
SWIDTH 1120 0
DWIDTH 14 0
BBX 10 10 1 -2
BITMAP
3DC0
5440
5DC0
D000
5FC0
5280
5D80
5180
5640
4000
ENDCHAR
STARTCHAR uni5048
ENCODING 20552
SWIDTH 1120 0
DWIDTH 14 0
BBX 10 10 1 -1
BITMAP
2000
4FC0
4FC0
C840
CFC0
47C0
5840
4B40
4FC0
4880
ENDCHAR
STARTCHAR uni5049
ENCODING 20553
SWIDTH 1120 0
DWIDTH 14 0
BBX 10 11 1 -2
BITMAP
2200
2F80
4480
DFC0
4F80
4F80
4200
4F80
4FC0
4200
0200
ENDCHAR
STARTCHAR uni504F
ENCODING 20559
SWIDTH 1120 0
DWIDTH 14 0
BBX 10 11 1 -2
BITMAP
0040
2F80
4FC0
4840
CFC0
4FC0
4B40
5FC0
5B40
4B40
0880
ENDCHAR
STARTCHAR uni5055
ENCODING 20565
SWIDTH 1120 0
DWIDTH 14 0
BBX 11 11 1 -2
BITMAP
2900
2900
4F80
4900
C920
5FC0
4F80
4880
4F80
4F80
4880
ENDCHAR
STARTCHAR uni505A
ENCODING 20570
SWIDTH 1120 0
DWIDTH 14 0
BBX 11 11 0 -2
BITMAP
1480
2480
3FE0
6540
A540
2F40
2AC0
2AC0
2E80
2BC0
0620
ENDCHAR
STARTCHAR uni505C
ENCODING 20572
SWIDTH 1120 0
DWIDTH 14 0
BBX 10 11 1 -2
BITMAP
2200
3FC0
4000
CF80
4F80
4000
5FC0
5FC0
4200
4200
0600
ENDCHAR
STARTCHAR uni5065
ENCODING 20581
SWIDTH 1120 0
DWIDTH 14 0
BBX 11 11 1 -2
BITMAP
2200
5FC0
5240
5FE0
DFC0
4A00
6F80
5F80
5200
5800
4780
ENDCHAR
STARTCHAR uni5074
ENCODING 20596
SWIDTH 1120 0
DWIDTH 14 0
BBX 10 10 1 -2
BITMAP
3E40
5340
5F40
D340
5F40
5340
5F40
4940
5240
4000
ENDCHAR
STARTCHAR uni5075
ENCODING 20597
SWIDTH 1120 0
DWIDTH 14 0
BBX 11 10 0 -1
BITMAP
1100
11E0
2100
67C0
A7C0
2440
27C0
2440
27C0
2420
ENDCHAR
STARTCHAR uni5076
ENCODING 20598
SWIDTH 1120 0
DWIDTH 14 0
BBX 10 11 1 -2
BITMAP
2000
2F80
4F80
CA80
4F80
4200
5FC0
5240
53C0
5440
10C0
ENDCHAR
STARTCHAR uni5078
ENCODING 20600
SWIDTH 1120 0
DWIDTH 14 0
BBX 10 9 1 -1
BITMAP
2E00
4500
4F80
DF40
5B40
5280
5B80
5340
5340
ENDCHAR
STARTCHAR uni5080
ENCODING 20608
SWIDTH 1120 0
DWIDTH 14 0
BBX 10 11 1 -2
BITMAP
0200
2F80
2A80
4F80
CA80
4F80
4700
4B00
4B80
5200
43C0
ENDCHAR
STARTCHAR uni5085
ENCODING 20613
SWIDTH 1120 0
DWIDTH 14 0
BBX 11 11 1 -2
BITMAP
2200
3FC0
4200
5F80
DF80
5F80
5380
4080
5FE0
4480
4100
ENDCHAR
STARTCHAR uni508D
ENCODING 20621
SWIDTH 1120 0
DWIDTH 14 0
BBX 10 12 1 -3
BITMAP
2000
4F80
5FC0
C900
5FC0
5040
5FC0
4400
4780
4880
1000
0100
ENDCHAR
STARTCHAR uni5091
ENCODING 20625
SWIDTH 1120 0
DWIDTH 14 0
BBX 11 10 0 -2
BITMAP
1440
2FE0
3B40
67E0
A940
2140
3FE0
2380
2540
0900
ENDCHAR
STARTCHAR uni5098
ENCODING 20632
SWIDTH 1120 0
DWIDTH 14 0
BBX 11 10 0 -2
BITMAP
0E00
1580
6CE0
1580
2480
1480
0D00
FFE0
0400
0400
ENDCHAR
STARTCHAR uni5099
ENCODING 20633
SWIDTH 1120 0
DWIDTH 14 0
BBX 11 11 1 -2
BITMAP
0400
2500
5FC0
7FE0
D000
57C0
57C0
5540
67C0
6540
45C0
ENDCHAR
STARTCHAR uni50AC
ENCODING 20652
SWIDTH 1120 0
DWIDTH 14 0
BBX 11 11 1 -2
BITMAP
2A40
2A40
4FC0
4900
CFE0
5900
4FC0
4900
4FC0
4FE0
0800
ENDCHAR
STARTCHAR uni50AD
ENCODING 20653
SWIDTH 1120 0
DWIDTH 14 0
BBX 10 11 1 -2
BITMAP
2200
3FC0
6F80
E280
5FC0
6F80
6FC0
6FC0
6FC0
6A40
4080
ENDCHAR
STARTCHAR uni50B2
ENCODING 20658
SWIDTH 1120 0
DWIDTH 14 0
BBX 11 11 1 -2
BITMAP
0800
3C00
4900
7DE0
CB80
5F80
4980
4D80
5480
5580
0E40
ENDCHAR
STARTCHAR uni50B3
ENCODING 20659
SWIDTH 1120 0
DWIDTH 14 0
BBX 11 11 1 -2
BITMAP
2200
3FC0
5F80
5280
DF80
5F80
5F80
5FE0
4080
4480
4180
ENDCHAR
STARTCHAR uni50B5
ENCODING 20661
SWIDTH 1120 0
DWIDTH 14 0
BBX 11 11 0 -2
BITMAP
1100
2FE0
27C0
6100
AFE0
27C0
27C0
27C0
27C0
2400
0820
ENDCHAR
STARTCHAR uni50B7
ENCODING 20663
SWIDTH 1120 0
DWIDTH 14 0
BBX 12 11 0 -2
BITMAP
0400
17C0
2FC0
27C0
6440
A7C0
3FF0
27E0
3AA0
2520
2240
ENDCHAR
STARTCHAR uni50BE
ENCODING 20670
SWIDTH 1120 0
DWIDTH 14 0
BBX 12 10 0 -2
BITMAP
13F0
29E0
2920
6FE0
A920
2BE0
2B20
25E0
2120
2000
ENDCHAR
STARTCHAR uni50C5
ENCODING 20677
SWIDTH 1120 0
DWIDTH 14 0
BBX 10 10 1 -1
BITMAP
2400
2FC0
4500
C700
4FC0
4FC0
4200
5FC0
4F80
5FC0
ENDCHAR
STARTCHAR uni50C9
ENCODING 20681
SWIDTH 1120 0
DWIDTH 14 0
BBX 10 10 1 -1
BITMAP
0800
1600
2180
DE00
7F80
4C80
7F80
2100
5B00
80C0
ENDCHAR
STARTCHAR uni50CA
ENCODING 20682
SWIDTH 1120 0
DWIDTH 14 0
BBX 11 11 0 -2
BITMAP
1000
3FE0
2FE0
6AA0
A380
3FE0
27C0
2CA0
2580
2440
07C0
ENDCHAR
STARTCHAR uni50CF
ENCODING 20687
SWIDTH 1120 0
DWIDTH 14 0
BBX 10 11 1 -2
BITMAP
0400
2F80
3900
5FC0
5FC0
C400
5B40
4D80
5680
7A40
4400
ENDCHAR
STARTCHAR uni50D1
ENCODING 20689
SWIDTH 1120 0
DWIDTH 14 0
BBX 11 11 0 -2
BITMAP
1000
17C0
2FE0
6280
A7C0
23A0
2FE0
2BA0
2AA0
2BA0
0860
ENDCHAR
STARTCHAR uni50D5
ENCODING 20693
SWIDTH 1120 0
DWIDTH 14 0
BBX 11 11 1 -2
BITMAP
0500
2D80
7FE0
4900
DFC0
4200
4F80
5FC0
4500
4880
5060
ENDCHAR
STARTCHAR uni50D6
ENCODING 20694
SWIDTH 1120 0
DWIDTH 14 0
BBX 12 9 0 -1
BITMAP
0FE0
2FE0
2000
67E0
A7E0
2FF0
2000
27E0
27E0
ENDCHAR
STARTCHAR uni50DA
ENCODING 20698
SWIDTH 1120 0
DWIDTH 14 0
BBX 11 11 1 -2
BITMAP
2200
3FC0
4200
CD80
4F80
78E0
4F80
4F80
4A00
52C0
0400
ENDCHAR
STARTCHAR uni50DE
ENCODING 20702
SWIDTH 1120 0
DWIDTH 14 0
BBX 10 11 1 -2
BITMAP
2000
2F00
5280
4F80
C880
4F80
4FC0
5040
59C0
4180
4000
ENDCHAR
STARTCHAR uni50E5
ENCODING 20709
SWIDTH 1120 0
DWIDTH 14 0
BBX 12 11 0 -2
BITMAP
1100
17E0
2100
6FF0
7EF0
A440
38F0
27E0
2280
2290
04F0
ENDCHAR
STARTCHAR uni50E7
ENCODING 20711
SWIDTH 1120 0
DWIDTH 14 0
BBX 10 11 1 -2
BITMAP
2B00
3080
7FC0
5280
D380
5F80
4000
4F80
4F80
4F80
4000
ENDCHAR
STARTCHAR uni50ED
ENCODING 20717
SWIDTH 1120 0
DWIDTH 14 0
BBX 10 10 1 -1
BITMAP
0880
3FC0
4980
7DC0
C880
55C0
5F80
5080
5F80
5F80
ENDCHAR
STARTCHAR uni50F9
ENCODING 20729
SWIDTH 1120 0
DWIDTH 14 0
BBX 10 11 1 -2
BITMAP
2000
5FC0
5FC0
D540
5FC0
4F80
4F80
4F80
4F80
4080
1040
ENDCHAR
STARTCHAR uni50FB
ENCODING 20731
SWIDTH 1120 0
DWIDTH 14 0
BBX 11 11 1 -2
BITMAP
0080
3C80
37E0
5D40
5140
DFE0
5480
75E0
5C80
5480
4080
ENDCHAR
STARTCHAR uni50FF
ENCODING 20735
SWIDTH 1120 0
DWIDTH 14 0
BBX 11 11 1 -2
BITMAP
2000
2000
7FC0
7FC0
DF80
4900
7FE0
5300
67C0
5FC0
4000
ENDCHAR
STARTCHAR uni5100
ENCODING 20736
SWIDTH 1120 0
DWIDTH 14 0
BBX 10 11 1 -2
BITMAP
2000
4800
7F80
DF80
FF80
4200
4A80
7FC0
4A80
7900
1AC0
ENDCHAR
STARTCHAR uni5101
ENCODING 20737
SWIDTH 1120 0
DWIDTH 14 0
BBX 11 10 1 -1
BITMAP
2800
4FC0
5900
4FC0
CFC0
4FE0
40C0
4D40
4F40
4840
ENDCHAR
STARTCHAR uni5104
ENCODING 20740
SWIDTH 1120 0
DWIDTH 14 0
BBX 10 11 1 -2
BITMAP
2F00
4000
5FC0
DFC0
4000
4F80
4F80
4F80
4640
54C0
4300
ENDCHAR
STARTCHAR uni5106
ENCODING 20742
SWIDTH 1120 0
DWIDTH 14 0
BBX 11 10 1 -2
BITMAP
3500
3FE0
7540
7D40
FD40
6DC0
7C80
64C0
4920
4000
ENDCHAR
STARTCHAR uni5109
ENCODING 20745
SWIDTH 1120 0
DWIDTH 14 0
BBX 10 11 1 -2
BITMAP
0200
2600
2900
7FC0
C000
5F80
5F80
4000
4900
5680
4000
ENDCHAR
STARTCHAR uni5112
ENCODING 20754
SWIDTH 1120 0
DWIDTH 14 0
BBX 9 11 2 -2
BITMAP
7F80
8400
BF80
BF80
9F00
BF80
8400
BF80
AA80
AA80
2B80
ENDCHAR
STARTCHAR uni511F
ENCODING 20767
SWIDTH 1120 0
DWIDTH 14 0
BBX 11 11 0 -2
BITMAP
0100
1140
2FE0
2BE0
6BE0
A7C0
27C0
27C0
27C0
2400
2820
ENDCHAR
STARTCHAR uni5121
ENCODING 20769
SWIDTH 1120 0
DWIDTH 14 0
BBX 10 11 1 -2
BITMAP
2000
2F80
4F80
CA80
4F80
5DC0
5DC0
5DC0
5DC0
5DC0
5540
ENDCHAR
STARTCHAR uni512A
ENCODING 20778
SWIDTH 1120 0
DWIDTH 14 0
BBX 12 11 0 -2
BITMAP
1000
1FE0
27C0
27C0
67C0
AFF0
2810
2280
2180
2F00
24E0
ENDCHAR
STARTCHAR uni5132
ENCODING 20786
SWIDTH 1120 0
DWIDTH 14 0
BBX 11 11 1 -2
BITMAP
2000
3900
7FC0
C180
5FE0
5D40
5FC0
57C0
5640
5FC0
1640
ENDCHAR
STARTCHAR uni5137
ENCODING 20791
SWIDTH 1120 0
DWIDTH 14 0
BBX 10 10 1 -2
BITMAP
3DC0
5DC0
5FC0
DFC0
D500
5FC0
5FC0
6F40
6980
35C0
ENDCHAR
STARTCHAR uni513A
ENCODING 20794
SWIDTH 1120 0
DWIDTH 14 0
BBX 10 10 1 -1
BITMAP
3400
3F00
5DC0
4980
DFC0
DD80
5D80
7FC0
4980
51C0
ENDCHAR
STARTCHAR uni513C
ENCODING 20796
SWIDTH 1120 0
DWIDTH 14 0
BBX 11 10 1 -2
BITMAP
3DC0
4000
5FC0
5480
DEC0
5B40
5F40
6AC0
6720
4000
ENDCHAR
STARTCHAR uni5140
ENCODING 20800
SWIDTH 1120 0
DWIDTH 14 0
BBX 10 9 1 -1
BITMAP
FFC0
1400
1400
1400
1400
1400
2400
2440
C780
ENDCHAR
STARTCHAR uni5141
ENCODING 20801
SWIDTH 1120 0
DWIDTH 14 0
BBX 10 11 1 -2
BITMAP
0800
1100
1100
FF80
1480
1400
1400
2400
2440
C440
0380
ENDCHAR
STARTCHAR uni5143
ENCODING 20803
SWIDTH 1120 0
DWIDTH 14 0
BBX 10 9 1 -1
BITMAP
7F00
0000
0000
FFC0
1400
1400
1400
6440
8780
ENDCHAR
STARTCHAR uni5144
ENCODING 20804
SWIDTH 1120 0
DWIDTH 14 0
BBX 10 9 1 -1
BITMAP
7F00
4100
4100
4100
7F00
1400
2440
2440
C780
ENDCHAR
STARTCHAR uni5145
ENCODING 20805
SWIDTH 1120 0
DWIDTH 14 0
BBX 11 11 0 -2
BITMAP
0400
0400
FFE0
0900
3F80
0840
0A00
1200
1220
6220
01C0
ENDCHAR
STARTCHAR uni5146
ENCODING 20806
SWIDTH 1120 0
DWIDTH 14 0
BBX 10 10 1 -2
BITMAP
1400
9480
5500
1400
1400
3700
D400
2440
27C0
C000
ENDCHAR
STARTCHAR uni5147
ENCODING 20807
SWIDTH 1120 0
DWIDTH 14 0
BBX 10 10 1 -2
BITMAP
5280
4C80
4C80
5280
7F80
5480
1400
1400
2440
C380
ENDCHAR
STARTCHAR uni5148
ENCODING 20808
SWIDTH 1120 0
DWIDTH 14 0
BBX 11 10 0 -1
BITMAP
0200
0200
1FC0
2200
0200
FFE0
0A00
1200
1220
6240
ENDCHAR
STARTCHAR uni5149
ENCODING 20809
SWIDTH 1120 0
DWIDTH 14 0
BBX 12 11 0 -2
BITMAP
0200
0240
1280
0200
FFF0
0900
0900
1100
1110
2120
40C0
ENDCHAR
STARTCHAR uni514B
ENCODING 20811
SWIDTH 1120 0
DWIDTH 14 0
BBX 11 11 0 -2
BITMAP
0400
0400
FFE0
0400
3F80
2080
3F80
2A80
0A20
1220
61C0
ENDCHAR
STARTCHAR uni514C
ENCODING 20812
SWIDTH 1120 0
DWIDTH 14 0
BBX 10 11 1 -2
BITMAP
0600
1100
2180
FF40
2100
2100
3F00
0C00
0C40
1440
6380
ENDCHAR
STARTCHAR uni514D
ENCODING 20813
SWIDTH 1120 0
DWIDTH 14 0
BBX 11 9 1 -1
BITMAP
FF80
1080
2100
FF80
4880
7F80
0C00
1420
E7C0
ENDCHAR
STARTCHAR uni514E
ENCODING 20814
SWIDTH 1120 0
DWIDTH 14 0
BBX 10 9 1 -1
BITMAP
FF00
0800
7F80
4880
7F80
5480
1400
2400
C7C0
ENDCHAR
STARTCHAR uni5152
ENCODING 20818
SWIDTH 1120 0
DWIDTH 14 0
BBX 10 10 1 -2
BITMAP
1780
6080
7F80
4080
7F80
5480
1400
2440
C440
0380
ENDCHAR
STARTCHAR uni515C
ENCODING 20828
SWIDTH 1120 0
DWIDTH 14 0
BBX 10 10 1 -2
BITMAP
3EC0
D240
9E40
9240
DEC0
8440
1400
2440
C440
0380
ENDCHAR
STARTCHAR uni5162
ENCODING 20834
SWIDTH 1120 0
DWIDTH 14 0
BBX 11 10 0 -2
BITMAP
1080
7FE0
1080
7BC0
4A40
7BC0
2A80
2A80
4E80
84E0
ENDCHAR
STARTCHAR uni5165
ENCODING 20837
SWIDTH 1120 0
DWIDTH 14 0
BBX 10 9 1 -1
BITMAP
3800
0800
0800
0C00
0C00
1200
2200
4180
8040
ENDCHAR
STARTCHAR uni5167
ENCODING 20839
SWIDTH 1120 0
DWIDTH 14 0
BBX 10 11 1 -2
BITMAP
3800
0800
FFC0
8840
8C40
8C40
9240
A140
8040
8040
01C0
ENDCHAR
STARTCHAR uni5168
ENCODING 20840
SWIDTH 1120 0
DWIDTH 14 0
BBX 10 9 1 -1
BITMAP
3C00
0C00
1200
7F80
8840
0800
3E00
0800
7F00
ENDCHAR
STARTCHAR uni5169
ENCODING 20841
SWIDTH 1120 0
DWIDTH 14 0
BBX 11 10 0 -2
BITMAP
FFE0
0400
7FE0
4420
5DA0
4CA0
55A0
4420
4420
4000
ENDCHAR
STARTCHAR uni516A
ENCODING 20842
SWIDTH 1120 0
DWIDTH 14 0
BBX 10 11 1 -2
BITMAP
3800
0C00
1200
2180
DE40
7880
5A80
6B00
4A80
4880
5800
ENDCHAR
STARTCHAR uni516B
ENCODING 20843
SWIDTH 1120 0
DWIDTH 14 0
BBX 9 9 2 -1
BITMAP
3C00
0400
2400
2400
4400
4200
8100
8100
0080
ENDCHAR
STARTCHAR uni516C
ENCODING 20844
SWIDTH 1120 0
DWIDTH 14 0
BBX 9 9 1 -1
BITMAP
0E00
0200
2200
4100
8880
0800
1200
2100
7E80
ENDCHAR
STARTCHAR uni516D
ENCODING 20845
SWIDTH 1120 0
DWIDTH 14 0
BBX 10 9 1 -1
BITMAP
0800
0800
FF80
0000
0000
1200
2100
4100
80C0
ENDCHAR
STARTCHAR uni516E
ENCODING 20846
SWIDTH 1120 0
DWIDTH 14 0
BBX 10 10 1 -2
BITMAP
1E00
2200
4100
BF80
1040
1000
1F00
2100
0200
0400
ENDCHAR
STARTCHAR uni5171
ENCODING 20849
SWIDTH 1120 0
DWIDTH 14 0
BBX 10 9 1 -1
BITMAP
1200
1200
FFC0
1200
1200
FFC0
1000
2000
C180
ENDCHAR
STARTCHAR uni5175
ENCODING 20853
SWIDTH 1120 0
DWIDTH 14 0
BBX 11 10 1 -1
BITMAP
0300
3C00
2000
3FC0
2200
2200
2200
FFE0
1100
60C0
ENDCHAR
STARTCHAR uni5176
ENCODING 20854
SWIDTH 1120 0
DWIDTH 14 0
BBX 10 11 1 -2
BITMAP
1200
1200
7FC0
1200
1E00
1E00
1200
FFC0
0000
2100
C080
ENDCHAR
STARTCHAR uni5177
ENCODING 20855
SWIDTH 1120 0
DWIDTH 14 0
BBX 10 10 1 -2
BITMAP
3F00
3F00
2100
3F00
2100
3F00
FFC0
0200
2100
C080
ENDCHAR
STARTCHAR uni5178
ENCODING 20856
SWIDTH 1120 0
DWIDTH 14 0
BBX 12 10 0 -1
BITMAP
0100
0900
3FC0
2940
3FC0
2940
2940
FFF0
1080
6060
ENDCHAR
STARTCHAR uni517C
ENCODING 20860
SWIDTH 1120 0
DWIDTH 14 0
BBX 12 11 0 -2
BITMAP
0700
1080
7FE0
0A00
7FC0
FFF0
7FC0
1B00
2A80
CA60
0A00
ENDCHAR
STARTCHAR uni5180
ENCODING 20864
SWIDTH 1120 0
DWIDTH 14 0
BBX 10 10 1 -2
BITMAP
F480
1740
F780
7F00
7F00
7F00
FFC0
FFC0
1100
6000
ENDCHAR
STARTCHAR uni5186
ENCODING 20870
SWIDTH 1120 0
DWIDTH 14 0
BBX 10 10 1 -2
BITMAP
FFC0
8840
8840
8840
FFC0
8040
8040
8040
80C0
8000
ENDCHAR
STARTCHAR uni518A
ENCODING 20874
SWIDTH 1120 0
DWIDTH 14 0
BBX 12 10 0 -2
BITMAP
39C0
2A40
2A40
2A40
FFF0
2A40
2A40
2A40
4AC0
5C00
ENDCHAR
STARTCHAR uni518D
ENCODING 20877
SWIDTH 1120 0
DWIDTH 14 0
BBX 12 10 0 -2
BITMAP
7FC0
0400
3FC0
2440
3FC0
2440
FFF0
2040
2040
20C0
ENDCHAR
STARTCHAR uni5192
ENCODING 20882
SWIDTH 1120 0
DWIDTH 14 0
BBX 10 10 1 -2
BITMAP
FFC0
BF40
BF40
8040
3F00
3F00
2100
3F00
3F00
2100
ENDCHAR
STARTCHAR uni5195
ENCODING 20885
SWIDTH 1120 0
DWIDTH 14 0
BBX 10 11 1 -2
BITMAP
7F80
4080
7F80
7F80
3E00
C200
7F80
7F80
0C00
3440
4380
ENDCHAR
STARTCHAR uni5197
ENCODING 20887
SWIDTH 1120 0
DWIDTH 14 0
BBX 10 10 1 -2
BITMAP
FF80
8080
0000
1C00
1400
1400
1400
2440
C440
0380
ENDCHAR
STARTCHAR uni51A0
ENCODING 20896
SWIDTH 1120 0
DWIDTH 14 0
BBX 10 9 1 -1
BITMAP
FFC0
8140
F140
FFC0
3100
3500
5100
5300
9FC0
ENDCHAR
STARTCHAR uni51A5
ENCODING 20901
SWIDTH 1120 0
DWIDTH 14 0
BBX 11 9 1 -1
BITMAP
FFC0
BF40
A140
3F00
2100
3F00
FFE0
1200
61C0
ENDCHAR
STARTCHAR uni51AA
ENCODING 20906
SWIDTH 1120 0
DWIDTH 14 0
BBX 10 11 1 -2
BITMAP
FFC0
9040
7F80
3F00
3F00
2100
3F00
FFC0
FF00
2580
0600
ENDCHAR
STARTCHAR uni51AC
ENCODING 20908
SWIDTH 1120 0
DWIDTH 14 0
BBX 10 10 1 -2
BITMAP
1000
1E00
2200
D400
0E00
31C0
C400
0000
0200
1C00
ENDCHAR
STARTCHAR uni51B6
ENCODING 20918
SWIDTH 1120 0
DWIDTH 14 0
BBX 10 10 1 -2
BITMAP
0400
4400
0880
1F40
0000
5F80
5080
9080
1F80
1000
ENDCHAR
STARTCHAR uni51B7
ENCODING 20919
SWIDTH 1120 0
DWIDTH 14 0
BBX 10 10 1 -2
BITMAP
8600
0900
30C0
0F00
0000
7F80
8480
8480
0580
0400
ENDCHAR
STARTCHAR uni51BD
ENCODING 20925
SWIDTH 1120 0
DWIDTH 14 0
BBX 10 9 1 -1
BITMAP
1E40
4940
0D40
1540
1540
6D40
8940
8840
10C0
ENDCHAR
STARTCHAR uni51C4
ENCODING 20932
SWIDTH 1120 0
DWIDTH 14 0
BBX 11 11 1 -2
BITMAP
0400
7FC0
0400
3F80
7FE0
0480
3F80
FFC0
9200
0E00
3980
ENDCHAR
STARTCHAR uni51C6
ENCODING 20934
SWIDTH 1120 0
DWIDTH 14 0
BBX 10 10 1 -2
BITMAP
0200
5FC0
3200
1200
1F80
5200
9F80
9200
1FC0
1000
ENDCHAR
STARTCHAR uni51C9
ENCODING 20937
SWIDTH 1120 0
DWIDTH 14 0
BBX 10 11 1 -2
BITMAP
0200
4200
1FC0
0000
1F80
1080
5F80
8200
9280
A240
0600
ENDCHAR
STARTCHAR uni51CB
ENCODING 20939
SWIDTH 1120 0
DWIDTH 14 0
BBX 10 10 1 -2
BITMAP
4FC0
2A40
0F40
0FC0
0A40
4F40
4D40
8F40
1540
10C0
ENDCHAR
STARTCHAR uni51CC
ENCODING 20940
SWIDTH 1120 0
DWIDTH 14 0
BBX 11 10 1 -1
BITMAP
0200
0FC0
4200
3FE0
0920
55C0
8F00
BA00
0600
39C0
ENDCHAR
STARTCHAR uni51CD
ENCODING 20941
SWIDTH 1120 0
DWIDTH 14 0
BBX 10 11 1 -2
BITMAP
0400
BF80
4400
1F80
1F80
5480
9F80
8600
8D00
14C0
0400
ENDCHAR
STARTCHAR uni51DC
ENCODING 20956
SWIDTH 1120 0
DWIDTH 14 0
BBX 10 10 1 -2
BITMAP
9FC0
5FC0
1740
1740
5FC0
8E00
9FC0
0700
1A80
0240
ENDCHAR
STARTCHAR uni51DD
ENCODING 20957
SWIDTH 1120 0
DWIDTH 14 0
BBX 10 10 1 -2
BITMAP
ABC0
3480
3900
27C0
7940
91C0
FD00
1700
28C0
4000
ENDCHAR
STARTCHAR uni51DE
ENCODING 20958
SWIDTH 1120 0
DWIDTH 14 0
BBX 10 9 1 -1
BITMAP
BFC0
3E40
2640
27C0
BE40
BFC0
0000
0480
9480
ENDCHAR
STARTCHAR uni51E1
ENCODING 20961
SWIDTH 1120 0
DWIDTH 14 0
BBX 10 10 1 -2
BITMAP
3E00
2200
2200
2200
7A00
2200
2200
4200
8240
0180
ENDCHAR
STARTCHAR uni51F0
ENCODING 20976
SWIDTH 1120 0
DWIDTH 14 0
BBX 12 10 0 -2
BITMAP
3F80
2480
3F80
3F80
3F80
2080
3F40
5F40
7FD0
8020
ENDCHAR
STARTCHAR uni51F1
ENCODING 20977
SWIDTH 1120 0
DWIDTH 14 0
BBX 11 10 1 -2
BITMAP
AB80
AA80
FA80
FA80
FA80
8A80
FA80
5480
64A0
0040
ENDCHAR
STARTCHAR uni51F6
ENCODING 20982
SWIDTH 1120 0
DWIDTH 14 0
BBX 9 9 1 -1
BITMAP
8280
9280
8C80
8480
8C80
9280
8080
8080
FF80
ENDCHAR
STARTCHAR uni51F8
ENCODING 20984
SWIDTH 1120 0
DWIDTH 14 0
BBX 10 10 1 -2
BITMAP
1E00
1200
1200
F3C0
9240
8040
8040
8040
FFC0
8000
ENDCHAR
STARTCHAR uni51F9
ENCODING 20985
SWIDTH 1120 0
DWIDTH 14 0
BBX 10 10 1 -2
BITMAP
F3C0
9240
9240
9240
9E40
9240
8040
8040
FFC0
8000
ENDCHAR
STARTCHAR uni51FA
ENCODING 20986
SWIDTH 1120 0
DWIDTH 14 0
BBX 8 10 2 -2
BITMAP
89
89
89
FF
89
89
89
89
FF
80
ENDCHAR
STARTCHAR uni51FD
ENCODING 20989
SWIDTH 1120 0
DWIDTH 14 0
BBX 10 10 1 -2
BITMAP
FFC0
0400
8880
9680
A480
8680
A580
8C80
FF80
8000
ENDCHAR
STARTCHAR uni5200
ENCODING 20992
SWIDTH 1120 0
DWIDTH 14 0
BBX 8 9 2 -1
BITMAP
FF
11
11
11
11
21
21
41
86
ENDCHAR
STARTCHAR uni5203
ENCODING 20995
SWIDTH 1120 0
DWIDTH 14 0
BBX 8 10 2 -2
BITMAP
FF
11
51
51
91
21
21
41
82
04
ENDCHAR
STARTCHAR uni5206
ENCODING 20998
SWIDTH 1120 0
DWIDTH 14 0
BBX 11 10 1 -2
BITMAP
3E00
0200
2200
4100
BF80
1160
1100
1100
2100
4600
ENDCHAR
STARTCHAR uni5207
ENCODING 20999
SWIDTH 1120 0
DWIDTH 14 0
BBX 9 9 2 -1
BITMAP
5F80
4480
5C80
E480
4C80
4C80
7480
0880
1100
ENDCHAR
STARTCHAR uni5208
ENCODING 21000
SWIDTH 1120 0
DWIDTH 14 0
BBX 10 9 1 -1
BITMAP
0A40
8A40
5240
3240
1240
2A40
2A40
4440
00C0
ENDCHAR
STARTCHAR uni520A
ENCODING 21002
SWIDTH 1120 0
DWIDTH 14 0
BBX 10 10 1 -2
BITMAP
7F40
1140
1140
FF40
1140
1140
1140
1040
1040
0080
ENDCHAR
STARTCHAR uni520E
ENCODING 21006
SWIDTH 1120 0
DWIDTH 14 0
BBX 10 9 1 -1
BITMAP
4040
7D40
6D40
B540
3540
5540
9540
2440
48C0
ENDCHAR
STARTCHAR uni5211
ENCODING 21009
SWIDTH 1120 0
DWIDTH 14 0
BBX 10 9 1 -1
BITMAP
FC40
2940
2940
FF40
2940
2940
2940
4940
08C0
ENDCHAR
STARTCHAR uni5217
ENCODING 21015
SWIDTH 1120 0
DWIDTH 14 0
BBX 10 9 1 -1
BITMAP
7C40
2140
3D40
2940
4940
9940
1140
2140
40C0
ENDCHAR
STARTCHAR uni521D
ENCODING 21021
SWIDTH 1120 0
DWIDTH 14 0
BBX 10 10 1 -1
BITMAP
2000
27C0
FA40
1240
2A40
F240
2A40
2440
2440
2980
ENDCHAR
STARTCHAR uni5224
ENCODING 21028
SWIDTH 1120 0
DWIDTH 14 0
BBX 10 11 1 -2
BITMAP
1000
1140
5540
1140
7D40
1140
FF40
1140
2040
0040
0080
ENDCHAR
STARTCHAR uni5225
ENCODING 21029
SWIDTH 1120 0
DWIDTH 14 0
BBX 10 10 1 -1
BITMAP
0040
7D40
4540
7D40
6540
3940
4940
4940
8840
10C0
ENDCHAR
STARTCHAR uni5229
ENCODING 21033
SWIDTH 1120 0
DWIDTH 14 0
BBX 9 11 2 -2
BITMAP
1800
6280
2280
FA80
2280
7280
AA80
2280
2080
2080
0100
ENDCHAR
STARTCHAR uni522A
ENCODING 21034
SWIDTH 1120 0
DWIDTH 14 0
BBX 10 9 1 -1
BITMAP
7D40
7540
7540
FF40
7540
7540
7540
7440
4CC0
ENDCHAR
STARTCHAR uni522E
ENCODING 21038
SWIDTH 1120 0
DWIDTH 14 0
BBX 10 9 1 -1
BITMAP
7840
1140
FF40
1140
1140
6D40
4540
4440
7CC0
ENDCHAR
STARTCHAR uni5230
ENCODING 21040
SWIDTH 1120 0
DWIDTH 14 0
BBX 10 10 1 -2
BITMAP
FD40
1140
2140
3D40
5140
7D40
1140
1040
FEC0
8000
ENDCHAR
STARTCHAR uni5236
ENCODING 21046
SWIDTH 1120 0
DWIDTH 14 0
BBX 10 11 1 -2
BITMAP
1000
5140
7D40
9140
FF40
1140
7D40
5540
5440
5440
5800
ENDCHAR
STARTCHAR uni5237
ENCODING 21047
SWIDTH 1120 0
DWIDTH 14 0
BBX 10 11 1 -2
BITMAP
7C40
44C0
44C0
7CC0
48C0
7EC0
6AC0
6AC0
AAC0
AE40
0880
ENDCHAR
STARTCHAR uni5238
ENCODING 21048
SWIDTH 1120 0
DWIDTH 14 0
BBX 10 10 1 -2
BITMAP
2100
4880
3F00
FFC0
1100
3E80
CA40
1200
2200
4000
ENDCHAR
STARTCHAR uni5239
ENCODING 21049
SWIDTH 1120 0
DWIDTH 14 0
BBX 10 11 1 -2
BITMAP
0040
3940
2940
D140
1140
FF40
1140
3940
5440
9040
1000
ENDCHAR
STARTCHAR uni523A
ENCODING 21050
SWIDTH 1120 0
DWIDTH 14 0
BBX 10 11 1 -2
BITMAP
1000
7E40
1140
FD40
9540
9540
3940
5940
5040
1040
1000
ENDCHAR
STARTCHAR uni523B
ENCODING 21051
SWIDTH 1120 0
DWIDTH 14 0
BBX 10 10 1 -2
BITMAP
7940
FD40
2140
2940
3140
2940
5140
2840
C040
0080
ENDCHAR
STARTCHAR uni5243
ENCODING 21059
SWIDTH 1120 0
DWIDTH 14 0
BBX 10 10 1 -1
BITMAP
0840
2940
FD40
1540
7940
FD40
B540
5540
9040
10C0
ENDCHAR
STARTCHAR uni5247
ENCODING 21063
SWIDTH 1120 0
DWIDTH 14 0
BBX 10 9 1 -1
BITMAP
7D40
4540
7D40
4540
7D40
4540
7D40
4840
84C0
ENDCHAR
STARTCHAR uni524A
ENCODING 21066
SWIDTH 1120 0
DWIDTH 14 0
BBX 10 9 1 -1
BITMAP
5540
5540
9140
7D40
7D40
4540
7D40
4440
44C0
ENDCHAR
STARTCHAR uni524B
ENCODING 21067
SWIDTH 1120 0
DWIDTH 14 0
BBX 10 10 1 -2
BITMAP
1280
FE80
1280
FE80
8680
FE80
3080
3180
5040
9F80
ENDCHAR
STARTCHAR uni524C
ENCODING 21068
SWIDTH 1120 0
DWIDTH 14 0
BBX 9 11 2 -2
BITMAP
2000
F880
2280
FA80
AA80
FA80
2280
7280
A880
2080
2000
ENDCHAR
STARTCHAR uni524D
ENCODING 21069
SWIDTH 1120 0
DWIDTH 14 0
BBX 10 11 1 -2
BITMAP
2200
1400
FFC0
0000
F280
9280
B280
9280
9280
B080
0180
ENDCHAR
STARTCHAR uni5254
ENCODING 21076
SWIDTH 1120 0
DWIDTH 14 0
BBX 10 11 1 -2
BITMAP
0040
7D40
7D40
4540
7D40
3D40
7540
D540
A440
5840
0080
ENDCHAR
STARTCHAR uni5256
ENCODING 21078
SWIDTH 1120 0
DWIDTH 14 0
BBX 10 10 1 -2
BITMAP
1140
FD40
4940
2940
FF40
7D40
4540
4440
7C40
44C0
ENDCHAR
STARTCHAR uni525B
ENCODING 21083
SWIDTH 1120 0
DWIDTH 14 0
BBX 10 10 1 -2
BITMAP
FC40
8540
B540
FD40
DD40
DD40
FD40
CC40
84C0
8800
ENDCHAR
STARTCHAR uni525D
ENCODING 21085
SWIDTH 1120 0
DWIDTH 14 0
BBX 10 11 1 -2
BITMAP
2000
3940
4940
7140
FD40
1140
5540
3140
5D40
3040
00C0
ENDCHAR
STARTCHAR uni5261
ENCODING 21089
SWIDTH 1120 0
DWIDTH 14 0
BBX 10 11 1 -2
BITMAP
2040
2140
2940
5140
8940
0140
2140
2940
5140
8C40
0080
ENDCHAR
STARTCHAR uni5269
ENCODING 21097
SWIDTH 1120 0
DWIDTH 14 0
BBX 11 11 0 -2
BITMAP
0600
3820
08A0
7FA0
EFA0
2DA0
6EA0
08A0
1C20
6A60
0800
ENDCHAR
STARTCHAR uni526A
ENCODING 21098
SWIDTH 1120 0
DWIDTH 14 0
BBX 10 11 1 -2
BITMAP
1000
0200
FFC0
7A80
7A80
6A80
4980
FF80
0880
1080
E300
ENDCHAR
STARTCHAR uni526F
ENCODING 21103
SWIDTH 1120 0
DWIDTH 14 0
BBX 10 10 1 -2
BITMAP
FC40
7D40
4540
7D40
FD40
9540
FD40
9440
FC40
84C0
ENDCHAR
STARTCHAR uni5272
ENCODING 21106
SWIDTH 1120 0
DWIDTH 14 0
BBX 10 11 1 -2
BITMAP
1000
1040
FF40
9340
7D40
1140
FF40
7D40
4440
7C40
00C0
ENDCHAR
STARTCHAR uni5275
ENCODING 21109
SWIDTH 1120 0
DWIDTH 14 0
BBX 10 11 1 -2
BITMAP
1000
2940
4740
B940
7D40
7D40
4540
7D40
7D40
BC40
A4C0
ENDCHAR
STARTCHAR uni527D
ENCODING 21117
SWIDTH 1120 0
DWIDTH 14 0
BBX 10 10 1 -2
BITMAP
FF40
FF40
AB40
FF40
7D40
0140
FF40
5440
90C0
2000
ENDCHAR
STARTCHAR uni527F
ENCODING 21119
SWIDTH 1120 0
DWIDTH 14 0
BBX 10 9 1 -1
BITMAP
4940
A940
4140
7D40
7D40
7D40
FF40
3840
5440
ENDCHAR
STARTCHAR uni5283
ENCODING 21123
SWIDTH 1120 0
DWIDTH 14 0
BBX 10 11 1 -2
BITMAP
1000
7CC0
FEC0
7CC0
7CC0
FEC0
7CC0
7CC0
7C40
3E40
40C0
ENDCHAR
STARTCHAR uni5287
ENCODING 21127
SWIDTH 1120 0
DWIDTH 14 0
BBX 10 11 1 -2
BITMAP
1000
1F40
7F40
7F40
9D40
7F40
9140
9D40
EC40
3AC0
1000
ENDCHAR
STARTCHAR uni5288
ENCODING 21128
SWIDTH 1120 0
DWIDTH 14 0
BBX 10 10 1 -2
BITMAP
7FC0
7A80
7FC0
4FC0
F900
0000
7F80
0880
1080
6380
ENDCHAR
STARTCHAR uni5289
ENCODING 21129
SWIDTH 1120 0
DWIDTH 14 0
BBX 10 10 1 -1
BITMAP
2000
4C40
5D40
2540
1940
2940
F940
7D40
1040
7840
ENDCHAR
STARTCHAR uni528D
ENCODING 21133
SWIDTH 1120 0
DWIDTH 14 0
BBX 10 10 1 -1
BITMAP
1000
2940
4740
B940
6F40
6B40
6F40
2140
6840
9640
ENDCHAR
STARTCHAR uni5291
ENCODING 21137
SWIDTH 1120 0
DWIDTH 14 0
BBX 10 10 1 -2
BITMAP
7F40
2940
F740
B540
F340
3F40
3F40
4340
0240
00C0
ENDCHAR
STARTCHAR uni5292
ENCODING 21138
SWIDTH 1120 0
DWIDTH 14 0
BBX 10 10 1 -2
BITMAP
27C0
5140
FB40
0340
FD40
FD40
4940
4A40
9240
0580
ENDCHAR
STARTCHAR uni529B
ENCODING 21147
SWIDTH 1120 0
DWIDTH 14 0
BBX 9 10 1 -2
BITMAP
0800
0800
FF80
0880
0880
1080
1080
2080
C080
0300
ENDCHAR
STARTCHAR uni529F
ENCODING 21151
SWIDTH 1120 0
DWIDTH 14 0
BBX 10 9 1 -1
BITMAP
0100
F900
27C0
2240
2240
2240
3A40
C440
18C0
ENDCHAR
STARTCHAR uni52A0
ENCODING 21152
SWIDTH 1120 0
DWIDTH 14 0
BBX 11 10 0 -1
BITMAP
1000
1000
11E0
FD20
1520
1520
1520
2520
25E0
4520
ENDCHAR
STARTCHAR uni52A3
ENCODING 21155
SWIDTH 1120 0
DWIDTH 14 0
BBX 10 11 1 -2
BITMAP
0400
2480
4540
0E00
1800
E400
7F80
0880
1080
2100
4300
ENDCHAR
STARTCHAR uni52A4
ENCODING 21156
SWIDTH 1120 0
DWIDTH 14 0
BBX 10 11 1 -2
BITMAP
3900
C100
8100
7FC0
9140
9140
9140
9240
9240
9240
04C0
ENDCHAR
STARTCHAR uni52A9
ENCODING 21161
SWIDTH 1120 0
DWIDTH 14 0
BBX 9 10 2 -2
BITMAP
E200
A200
EF80
A480
E480
A480
B480
C880
1080
0300
ENDCHAR
STARTCHAR uni52AA
ENCODING 21162
SWIDTH 1120 0
DWIDTH 14 0
BBX 9 10 1 -2
BITMAP
4780
F480
5300
3100
2E80
FF80
0880
1080
1300
6000
ENDCHAR
STARTCHAR uni52AB
ENCODING 21163
SWIDTH 1120 0
DWIDTH 14 0
BBX 10 11 1 -2
BITMAP
2100
2100
FFC0
2140
2140
F940
4140
4A40
9A40
E580
0800
ENDCHAR
STARTCHAR uni52BE
ENCODING 21182
SWIDTH 1120 0
DWIDTH 14 0
BBX 10 11 1 -2
BITMAP
7100
0100
F900
23C0
C140
3140
2A40
D240
2A40
C440
0980
ENDCHAR
STARTCHAR uni52C1
ENCODING 21185
SWIDTH 1120 0
DWIDTH 14 0
BBX 10 10 1 -2
BITMAP
FD00
4900
B3C0
4940
4140
FA40
2240
2240
F440
0480
ENDCHAR
STARTCHAR uni52C3
ENCODING 21187
SWIDTH 1120 0
DWIDTH 14 0
BBX 10 11 1 -2
BITMAP
2000
F900
2100
FFC0
8540
7140
1240
2240
F440
2800
6080
ENDCHAR
STARTCHAR uni52C5
ENCODING 21189
SWIDTH 1120 0
DWIDTH 14 0
BBX 10 11 1 -2
BITMAP
1100
7D00
1100
FFC0
9540
FD40
9540
3A40
D240
1440
1880
ENDCHAR
STARTCHAR uni52C7
ENCODING 21191
SWIDTH 1120 0
DWIDTH 14 0
BBX 10 11 1 -2
BITMAP
7F00
0300
0C00
7F80
4480
7F80
4480
FFC0
0880
1080
6300
ENDCHAR
STARTCHAR uni52C9
ENCODING 21193
SWIDTH 1120 0
DWIDTH 14 0
BBX 11 11 0 -2
BITMAP
2080
3C80
49E0
7EA0
CAA0
4B20
7F20
1A40
1800
2800
CFE0
ENDCHAR
STARTCHAR uni52CD
ENCODING 21197
SWIDTH 1120 0
DWIDTH 14 0
BBX 11 10 1 -2
BITMAP
1100
FF00
7FE0
44A0
7CA0
10A0
50A0
9520
3120
02C0
ENDCHAR
STARTCHAR uni52D2
ENCODING 21202
SWIDTH 1120 0
DWIDTH 14 0
BBX 10 11 1 -2
BITMAP
0900
FD00
4FC0
7940
F940
A940
FA40
FA40
2240
2400
0800
ENDCHAR
STARTCHAR uni52D5
ENCODING 21205
SWIDTH 1120 0
DWIDTH 14 0
BBX 10 10 1 -2
BITMAP
7100
F900
7BC0
6940
7940
7A40
FA40
2440
D840
0080
ENDCHAR
STARTCHAR uni52D6
ENCODING 21206
SWIDTH 1120 0
DWIDTH 14 0
BBX 10 10 1 -2
BITMAP
3F80
2080
3F80
0000
7D40
4AC0
7A40
4A40
FA40
0480
ENDCHAR
STARTCHAR uni52D8
ENCODING 21208
SWIDTH 1120 0
DWIDTH 14 0
BBX 11 10 0 -2
BITMAP
2480
FE80
3FE0
3CA0
FFA0
58A0
5EA0
4120
7D40
4240
ENDCHAR
STARTCHAR uni52D9
ENCODING 21209
SWIDTH 1120 0
DWIDTH 14 0
BBX 11 11 0 -2
BITMAP
0100
7BE0
0A40
1180
7D40
1080
37E0
5120
9120
1220
34C0
ENDCHAR
STARTCHAR uni52DB
ENCODING 21211
SWIDTH 1120 0
DWIDTH 14 0
BBX 10 11 1 -2
BITMAP
0100
7900
7900
07C0
F940
F940
F940
8940
FA40
8A40
0580
ENDCHAR
STARTCHAR uni52DD
ENCODING 21213
SWIDTH 1120 0
DWIDTH 14 0
BBX 11 10 0 -2
BITMAP
7240
5520
53C0
5180
57E0
5340
57C0
5140
9240
B580
ENDCHAR
STARTCHAR uni52DE
ENCODING 21214
SWIDTH 1120 0
DWIDTH 14 0
BBX 10 10 1 -2
BITMAP
2D00
2500
2280
FFC0
8040
BF40
0900
1100
1100
6200
ENDCHAR
STARTCHAR uni52DF
ENCODING 21215
SWIDTH 1120 0
DWIDTH 14 0
BBX 11 12 0 -3
BITMAP
0900
7FE0
3F80
2080
3F80
3F80
FFE0
1480
3F40
C920
3100
0200
ENDCHAR
STARTCHAR uni52E2
ENCODING 21218
SWIDTH 1120 0
DWIDTH 14 0
BBX 12 11 0 -2
BITMAP
1080
7DC0
FF40
1540
79C0
1050
6420
3FC0
0440
0840
7180
ENDCHAR
STARTCHAR uni52E3
ENCODING 21219
SWIDTH 1120 0
DWIDTH 14 0
BBX 10 10 1 -2
BITMAP
F900
F900
FFC0
0140
F940
F940
FA40
FA40
4A40
0480
ENDCHAR
STARTCHAR uni52E4
ENCODING 21220
SWIDTH 1120 0
DWIDTH 14 0
BBX 11 11 0 -2
BITMAP
2480
FF80
2480
3FE0
7CA0
7CA0
7CA0
1120
7D20
1220
6AC0
ENDCHAR
STARTCHAR uni52F3
ENCODING 21235
SWIDTH 1120 0
DWIDTH 14 0
BBX 10 10 1 -1
BITMAP
0800
7100
7D00
FFC0
9D40
FE40
7E40
7E80
0280
9480
ENDCHAR
STARTCHAR uni52F5
ENCODING 21237
SWIDTH 1120 0
DWIDTH 14 0
BBX 10 11 1 -2
BITMAP
F080
AC80
FC80
BDC0
BCC0
B4C0
BCC0
FD40
DD40
6480
4000
ENDCHAR
STARTCHAR uni52F8
ENCODING 21240
SWIDTH 1120 0
DWIDTH 14 0
BBX 10 11 1 -2
BITMAP
2800
FF00
2900
DBC0
D940
7D40
D140
7D40
7E40
7E80
4400
ENDCHAR
STARTCHAR uni52FA
ENCODING 21242
SWIDTH 1120 0
DWIDTH 14 0
BBX 9 11 2 -2
BITMAP
2000
4000
7F80
8080
0080
0080
7C80
0100
0100
0100
0600
ENDCHAR
STARTCHAR uni52FB
ENCODING 21243
SWIDTH 1120 0
DWIDTH 14 0
BBX 9 9 2 -1
BITMAP
2000
3F80
4080
FC80
0080
0080
7C80
0080
0700
ENDCHAR
STARTCHAR uni52FE
ENCODING 21246
SWIDTH 1120 0
DWIDTH 14 0
BBX 9 11 2 -2
BITMAP
4000
4000
7F80
8080
8080
2080
4480
5C80
A080
0080
0300
ENDCHAR
STARTCHAR uni52FF
ENCODING 21247
SWIDTH 1120 0
DWIDTH 14 0
BBX 9 9 2 -1
BITMAP
2000
3F80
4A80
9480
1480
2480
4880
0880
3300
ENDCHAR
STARTCHAR uni5305
ENCODING 21253
SWIDTH 1120 0
DWIDTH 14 0
BBX 10 10 1 -1
BITMAP
1000
2000
3F80
4080
BC80
2480
3C80
2080
2100
3FC0
ENDCHAR
STARTCHAR uni5308
ENCODING 21256
SWIDTH 1120 0
DWIDTH 14 0
BBX 10 11 1 -2
BITMAP
2000
2000
3FC0
4040
B540
2940
2D40
2140
3F40
2140
0180
ENDCHAR
STARTCHAR uni530D
ENCODING 21261
SWIDTH 1120 0
DWIDTH 14 0
BBX 9 10 2 -2
BITMAP
4000
7F80
9080
FE80
7E80
7E80
5280
7E80
5300
5400
ENDCHAR
STARTCHAR uni530F
ENCODING 21263
SWIDTH 1120 0
DWIDTH 14 0
BBX 10 11 1 -2
BITMAP
0200
2200
FFC0
5C40
7740
0540
FF40
3440
5400
7440
0380
ENDCHAR
STARTCHAR uni5310
ENCODING 21264
SWIDTH 1120 0
DWIDTH 14 0
BBX 10 10 1 -1
BITMAP
2000
2000
3FC0
5F40
BE40
3E40
3F40
2940
3F40
3F80
ENDCHAR
STARTCHAR uni5315
ENCODING 21269
SWIDTH 1120 0
DWIDTH 14 0
BBX 8 9 2 -1
BITMAP
40
40
44
48
70
C0
40
41
7F
ENDCHAR
STARTCHAR uni5316
ENCODING 21270
SWIDTH 1120 0
DWIDTH 14 0
BBX 10 11 1 -2
BITMAP
1000
1400
2400
64C0
A700
2400
2400
2400
2400
2440
0380
ENDCHAR
STARTCHAR uni5317
ENCODING 21271
SWIDTH 1120 0
DWIDTH 14 0
BBX 11 11 1 -2
BITMAP
0200
1200
1200
F2C0
1300
1200
1200
3220
D220
13C0
1000
ENDCHAR
STARTCHAR uni5319
ENCODING 21273
SWIDTH 1120 0
DWIDTH 14 0
BBX 10 9 1 -1
BITMAP
7A00
7A00
4A40
7B80
FE00
5200
5E40
B3C0
0C40
ENDCHAR
STARTCHAR uni5320
ENCODING 21280
SWIDTH 1120 0
DWIDTH 14 0
BBX 10 10 1 -2
BITMAP
FF80
8000
9F00
9000
9F80
A200
A200
8200
FFC0
8000
ENDCHAR
STARTCHAR uni5321
ENCODING 21281
SWIDTH 1120 0
DWIDTH 14 0
BBX 10 9 1 -1
BITMAP
FF80
8000
BF80
8400
9F00
8400
BF80
8000
FFC0
ENDCHAR
STARTCHAR uni5323
ENCODING 21283
SWIDTH 1120 0
DWIDTH 14 0
BBX 10 10 1 -2
BITMAP
FFC0
BF80
A480
BF80
A480
BF80
8400
8400
FFC0
8000
ENDCHAR
STARTCHAR uni532A
ENCODING 21290
SWIDTH 1120 0
DWIDTH 14 0
BBX 10 9 1 -1
BITMAP
FFC0
8A00
BBC0
BA00
8BC0
BBC0
9200
8000
FFC0
ENDCHAR
STARTCHAR uni532F
ENCODING 21295
SWIDTH 1120 0
DWIDTH 14 0
BBX 10 9 1 -1
BITMAP
FFC0
9900
8FC0
AFC0
8900
8FC0
A900
8FC0
FFC0
ENDCHAR
STARTCHAR uni5339
ENCODING 21305
SWIDTH 1120 0
DWIDTH 14 0
BBX 10 9 1 -1
BITMAP
FFC0
9200
9200
9200
9280
A380
8000
FF80
8000
ENDCHAR
STARTCHAR uni533F
ENCODING 21311
SWIDTH 1120 0
DWIDTH 14 0
BBX 10 9 1 -1
BITMAP
FF80
FF80
9600
BF80
8800
9F00
A900
8F00
FFC0
ENDCHAR
STARTCHAR uni5340
ENCODING 21312
SWIDTH 1120 0
DWIDTH 14 0
BBX 10 10 1 -2
BITMAP
FFC0
5F00
5100
5F00
7B80
6A80
7B80
6A80
7FC0
4000
ENDCHAR
STARTCHAR uni5341
ENCODING 21313
SWIDTH 1120 0
DWIDTH 14 0
BBX 11 9 1 -1
BITMAP
0400
0400
0400
0400
FFE0
0400
0400
0400
0400
ENDCHAR
STARTCHAR uni5343
ENCODING 21315
SWIDTH 1120 0
DWIDTH 14 0
BBX 11 9 0 -1
BITMAP
0380
3C00
0400
FFE0
0400
0400
0400
0400
0400
ENDCHAR
STARTCHAR uni5344
ENCODING 21316
SWIDTH 1120 0
DWIDTH 14 0
BBX 11 5 1 1
BITMAP
0200
1200
FFE0
1200
1200
ENDCHAR
STARTCHAR uni5347
ENCODING 21319
SWIDTH 1120 0
DWIDTH 14 0
BBX 11 11 1 -2
BITMAP
0900
F100
1100
1100
FFE0
1100
2100
2100
4100
8100
0100
ENDCHAR
STARTCHAR uni5348
ENCODING 21320
SWIDTH 1120 0
DWIDTH 14 0
BBX 10 10 1 -2
BITMAP
2000
3FC0
4400
8400
FFC0
0400
0400
0400
0400
0400
ENDCHAR
STARTCHAR uni5349
ENCODING 21321
SWIDTH 1120 0
DWIDTH 14 0
BBX 11 11 1 -2
BITMAP
0800
0800
FF80
0800
2900
2100
FFE0
2100
2100
4100
8000
ENDCHAR
STARTCHAR uni534A
ENCODING 21322
SWIDTH 1120 0
DWIDTH 14 0
BBX 11 9 0 -1
BITMAP
0400
1480
6400
7FC0
0400
FFE0
0400
0400
0400
ENDCHAR
STARTCHAR uni534D
ENCODING 21325
SWIDTH 1120 0
DWIDTH 14 0
BBX 10 9 1 -1
BITMAP
F840
0840
0840
0840
FFC0
8800
8800
8800
8FC0
ENDCHAR
STARTCHAR uni5351
ENCODING 21329
SWIDTH 1120 0
DWIDTH 14 0
BBX 11 11 1 -2
BITMAP
0800
7F80
4480
7F80
4880
7F80
1000
2200
FFE0
0200
0200
ENDCHAR
STARTCHAR uni5352
ENCODING 21330
SWIDTH 1120 0
DWIDTH 14 0
BBX 11 11 0 -2
BITMAP
0200
0200
3FE0
1000
1180
6400
0400
FFE0
0400
0400
0400
ENDCHAR
STARTCHAR uni5353
ENCODING 21331
SWIDTH 1120 0
DWIDTH 14 0
BBX 11 11 0 -2
BITMAP
0400
07C0
0400
3FC0
3FC0
2040
3FC0
FFE0
0400
0400
0400
ENDCHAR
STARTCHAR uni5354
ENCODING 21332
SWIDTH 1120 0
DWIDTH 14 0
BBX 11 11 0 -2
BITMAP
2100
2FC0
2240
FA40
2C00
2080
3FE0
2AA0
2AA0
2320
2440
ENDCHAR
STARTCHAR uni5357
ENCODING 21335
SWIDTH 1120 0
DWIDTH 14 0
BBX 11 11 0 -2
BITMAP
0400
0400
FFE0
3FC0
2040
2040
3F40
3F40
2440
2440
00C0
ENDCHAR
STARTCHAR uni535A
ENCODING 21338
SWIDTH 1120 0
DWIDTH 14 0
BBX 10 11 1 -2
BITMAP
4000
4200
5FC0
EFC0
4FC0
4A40
4FC0
4B40
7FC0
4500
4200
ENDCHAR
STARTCHAR uni535C
ENCODING 21340
SWIDTH 1120 0
DWIDTH 14 0
BBX 3 11 4 -2
BITMAP
80
80
80
80
C0
A0
80
80
80
80
80
ENDCHAR
STARTCHAR uni535E
ENCODING 21342
SWIDTH 1120 0
DWIDTH 14 0
BBX 11 9 0 -1
BITMAP
0400
FFE0
0400
0400
0500
0480
0440
0400
0400
ENDCHAR
STARTCHAR uni5360
ENCODING 21344
SWIDTH 1120 0
DWIDTH 14 0
BBX 8 11 2 -2
BITMAP
10
10
1F
10
10
FF
81
81
81
FF
81
ENDCHAR
STARTCHAR uni5366
ENCODING 21350
SWIDTH 1120 0
DWIDTH 14 0
BBX 11 11 0 -2
BITMAP
1000
1080
7C80
1080
FE80
1080
10E0
7C80
1080
FE80
8080
ENDCHAR
STARTCHAR uni5368
ENCODING 21352
SWIDTH 1120 0
DWIDTH 14 0
BBX 10 10 1 -1
BITMAP
0400
07C0
0400
7F80
4F80
FFC0
8040
9E40
9E40
80C0
ENDCHAR
STARTCHAR uni536F
ENCODING 21359
SWIDTH 1120 0
DWIDTH 14 0
BBX 9 11 2 -2
BITMAP
1000
E780
9480
9480
9480
9480
F480
1480
2580
C400
0400
ENDCHAR
STARTCHAR uni5370
ENCODING 21360
SWIDTH 1120 0
DWIDTH 14 0
BBX 10 9 1 -1
BITMAP
1FC0
E440
8440
F440
8440
8440
F440
8440
0400
ENDCHAR
STARTCHAR uni5371
ENCODING 21361
SWIDTH 1120 0
DWIDTH 14 0
BBX 11 11 0 -2
BITMAP
0800
1F00
2000
3FE0
2000
2F80
2880
4880
4920
8820
0FC0
ENDCHAR
STARTCHAR uni5374
ENCODING 21364
SWIDTH 1120 0
DWIDTH 14 0
BBX 10 11 1 -2
BITMAP
1000
11C0
7D40
1140
1140
FF40
2140
2540
4540
FBC0
0100
ENDCHAR
STARTCHAR uni5375
ENCODING 21365
SWIDTH 1120 0
DWIDTH 14 0
BBX 9 10 2 -2
BITMAP
1780
F480
D480
D680
9580
9480
B480
5480
2500
C400
ENDCHAR
STARTCHAR uni5377
ENCODING 21367
SWIDTH 1120 0
DWIDTH 14 0
BBX 10 10 1 -2
BITMAP
2100
4880
3F00
FFC0
1200
3F00
52C0
9600
1000
0F00
ENDCHAR
STARTCHAR uni537D
ENCODING 21373
SWIDTH 1120 0
DWIDTH 14 0
BBX 10 11 1 -2
BITMAP
2000
23C0
FA40
FA40
8A40
FA40
9240
E240
8280
FA00
0200
ENDCHAR
STARTCHAR uni537F
ENCODING 21375
SWIDTH 1120 0
DWIDTH 14 0
BBX 10 10 1 -2
BITMAP
5FC0
B340
BF40
B340
BF40
B140
F940
53C0
DD00
0100
ENDCHAR
STARTCHAR uni5384
ENCODING 21380
SWIDTH 1120 0
DWIDTH 14 0
BBX 10 9 1 -1
BITMAP
7FC0
4000
5F80
5080
5080
5080
5000
9040
9F80
ENDCHAR
STARTCHAR uni5393
ENCODING 21395
SWIDTH 1120 0
DWIDTH 14 0
BBX 11 9 1 -1
BITMAP
7FC0
8200
9FC0
8200
BFE0
8200
9FC0
8200
BFE0
ENDCHAR
STARTCHAR uni5398
ENCODING 21400
SWIDTH 1120 0
DWIDTH 14 0
BBX 11 9 1 -1
BITMAP
7FC0
4000
5F80
5F80
5280
5F80
4200
8F80
BFE0
ENDCHAR
STARTCHAR uni539A
ENCODING 21402
SWIDTH 1120 0
DWIDTH 14 0
BBX 11 10 1 -2
BITMAP
7FC0
5F80
5F80
5080
5F80
5FC0
8100
BFE0
8200
0200
ENDCHAR
STARTCHAR uni539F
ENCODING 21407
SWIDTH 1120 0
DWIDTH 14 0
BBX 10 9 1 -1
BITMAP
7FC0
4400
5F80
5080
5F80
5F80
4200
9280
A640
ENDCHAR
STARTCHAR uni53A0
ENCODING 21408
SWIDTH 1120 0
DWIDTH 14 0
BBX 10 10 1 -2
BITMAP
7FC0
5C40
5540
5D40
5540
5D40
5540
9C40
9440
2080
ENDCHAR
STARTCHAR uni53A5
ENCODING 21413
SWIDTH 1120 0
DWIDTH 14 0
BBX 11 10 1 -2
BITMAP
7FE0
5A00
7FC0
7640
7500
7D00
7500
5280
9480
8840
ENDCHAR
STARTCHAR uni53A6
ENCODING 21414
SWIDTH 1120 0
DWIDTH 14 0
BBX 11 10 1 -2
BITMAP
7FE0
7FC0
5F80
5F80
5F80
5F80
4F80
9500
BFC0
8000
ENDCHAR
STARTCHAR uni53AD
ENCODING 21421
SWIDTH 1120 0
DWIDTH 14 0
BBX 10 11 1 -2
BITMAP
7FC0
8000
BD00
A500
BD00
83C0
BD00
A500
BE80
2680
2840
ENDCHAR
STARTCHAR uni53BB
ENCODING 21435
SWIDTH 1120 0
DWIDTH 14 0
BBX 11 11 0 -2
BITMAP
0400
0400
0400
7FC0
0400
FFE0
0400
0800
1080
1FC0
6040
ENDCHAR
STARTCHAR uni53C3
ENCODING 21443
SWIDTH 1120 0
DWIDTH 14 0
BBX 10 11 1 -2
BITMAP
1000
7F00
4000
1200
E9C0
1600
2180
DC00
0900
1600
3800
ENDCHAR
STARTCHAR uni53C8
ENCODING 21448
SWIDTH 1120 0
DWIDTH 14 0
BBX 8 9 2 -1
BITMAP
FE
02
44
44
24
18
18
24
C3
ENDCHAR
STARTCHAR uni53C9
ENCODING 21449
SWIDTH 1120 0
DWIDTH 14 0
BBX 8 9 2 -1
BITMAP
FE
04
54
C4
A8
10
18
64
83
ENDCHAR
STARTCHAR uni53CA
ENCODING 21450
SWIDTH 1120 0
DWIDTH 14 0
BBX 9 10 2 -2
BITMAP
FE00
2400
2400
3F00
6200
5200
4A00
8C00
8A00
3180
ENDCHAR
STARTCHAR uni53CB
ENCODING 21451
SWIDTH 1120 0
DWIDTH 14 0
BBX 10 9 1 -1
BITMAP
0800
FFC0
0800
0F00
1900
2A00
4600
8500
38C0
ENDCHAR
STARTCHAR uni53CD
ENCODING 21453
SWIDTH 1120 0
DWIDTH 14 0
BBX 11 9 0 -1
BITMAP
3FE0
2000
3F80
2880
2480
2500
4200
4580
8860
ENDCHAR
STARTCHAR uni53D4
ENCODING 21460
SWIDTH 1120 0
DWIDTH 14 0
BBX 10 9 1 -1
BITMAP
23C0
3840
2280
FE80
1280
5980
9500
9280
3440
ENDCHAR
STARTCHAR uni53D6
ENCODING 21462
SWIDTH 1120 0
DWIDTH 14 0
BBX 10 9 1 -1
BITMAP
FC00
4FC0
7880
4880
7A80
4B00
4900
FA80
0C40
ENDCHAR
STARTCHAR uni53D7
ENCODING 21463
SWIDTH 1120 0
DWIDTH 14 0
BBX 10 11 1 -2
BITMAP
0300
7C00
8880
0000
FFC0
8040
3F00
1200
0C00
0A00
F1C0
ENDCHAR
STARTCHAR uni53DB
ENCODING 21467
SWIDTH 1120 0
DWIDTH 14 0
BBX 10 11 1 -2
BITMAP
2000
27C0
AC00
2400
FFC0
2640
FE80
2680
4900
4980
9640
ENDCHAR
STARTCHAR uni53E1
ENCODING 21473
SWIDTH 1120 0
DWIDTH 14 0
BBX 10 11 1 -2
BITMAP
2000
39C0
FC40
FE40
4A40
7280
FE80
7980
7980
7E40
4800
ENDCHAR
STARTCHAR uni53E2
ENCODING 21474
SWIDTH 1120 0
DWIDTH 14 0
BBX 12 11 0 -2
BITMAP
0A80
FFE0
0900
7FE0
3FE0
7FF0
2400
3DC0
3D40
2480
1F60
ENDCHAR
STARTCHAR uni53E3
ENCODING 21475
SWIDTH 1120 0
DWIDTH 14 0
BBX 8 7 2 0
BITMAP
FF
81
81
81
81
FF
81
ENDCHAR
STARTCHAR uni53E4
ENCODING 21476
SWIDTH 1120 0
DWIDTH 14 0
BBX 11 10 0 -2
BITMAP
0400
0400
FFE0
0400
0400
1F80
1080
1080
1F80
1080
ENDCHAR
STARTCHAR uni53E5
ENCODING 21477
SWIDTH 1120 0
DWIDTH 14 0
BBX 10 11 1 -2
BITMAP
1000
2000
3FC0
4040
BE40
2240
2240
3E40
2240
00C0
0100
ENDCHAR
STARTCHAR uni53E9
ENCODING 21481
SWIDTH 1120 0
DWIDTH 14 0
BBX 10 10 1 -2
BITMAP
F7C0
9440
9440
9440
9440
F440
9440
0440
0480
0400
ENDCHAR
STARTCHAR uni53EA
ENCODING 21482
SWIDTH 1120 0
DWIDTH 14 0
BBX 10 9 1 -1
BITMAP
3F00
2100
2100
2100
3F00
2100
0200
2100
C0C0
ENDCHAR
STARTCHAR uni53EB
ENCODING 21483
SWIDTH 1120 0
DWIDTH 14 0
BBX 9 11 1 -2
BITMAP
0100
E500
A500
A500
A500
E500
A580
0700
1900
0100
0100
ENDCHAR
STARTCHAR uni53EC
ENCODING 21484
SWIDTH 1120 0
DWIDTH 14 0
BBX 9 10 2 -2
BITMAP
FF80
1080
1080
2100
C200
7F80
4080
4080
7F80
4080
ENDCHAR
STARTCHAR uni53ED
ENCODING 21485
SWIDTH 1120 0
DWIDTH 14 0
BBX 10 9 1 -1
BITMAP
EE00
A200
A200
A200
EA00
B100
1100
2080
4040
ENDCHAR
STARTCHAR uni53EF
ENCODING 21487
SWIDTH 1120 0
DWIDTH 14 0
BBX 11 10 0 -2
BITMAP
FFE0
0080
0080
3E80
2280
2280
3E80
2280
0080
0380
ENDCHAR
STARTCHAR uni53F0
ENCODING 21488
SWIDTH 1120 0
DWIDTH 14 0
BBX 10 11 1 -2
BITMAP
0800
1000
2100
2100
FF80
0040
7F00
4100
4100
7F00
4100
ENDCHAR
STARTCHAR uni53F1
ENCODING 21489
SWIDTH 1120 0
DWIDTH 14 0
BBX 11 10 1 -1
BITMAP
0400
0400
E440
A480
A500
A600
E400
BC00
0420
07C0
ENDCHAR
STARTCHAR uni53F2
ENCODING 21490
SWIDTH 1120 0
DWIDTH 14 0
BBX 10 10 1 -1
BITMAP
0400
0400
7F80
4480
4480
7F80
5880
3800
0800
F7C0
ENDCHAR
STARTCHAR uni53F3
ENCODING 21491
SWIDTH 1120 0
DWIDTH 14 0
BBX 10 10 1 -2
BITMAP
0800
FFC0
1000
1000
1F80
3080
5080
9080
1F80
1080
ENDCHAR
STARTCHAR uni53F8
ENCODING 21496
SWIDTH 1120 0
DWIDTH 14 0
BBX 10 10 1 -2
BITMAP
FFC0
0040
7F40
0040
3E40
2240
2240
3E40
2240
0180
ENDCHAR
STARTCHAR uni5403
ENCODING 21507
SWIDTH 1120 0
DWIDTH 14 0
BBX 10 10 1 -1
BITMAP
0400
E800
AFC0
A000
A000
BE00
E400
A800
1040
0880
ENDCHAR
STARTCHAR uni5404
ENCODING 21508
SWIDTH 1120 0
DWIDTH 14 0
BBX 9 11 2 -2
BITMAP
1000
3E00
6400
1800
3C00
C380
7E00
4200
4200
7E00
4000
ENDCHAR
STARTCHAR uni5408
ENCODING 21512
SWIDTH 1120 0
DWIDTH 14 0
BBX 9 10 1 -2
BITMAP
0800
1400
2200
7F80
8000
3F00
2100
2100
3F00
2000
ENDCHAR
STARTCHAR uni5409
ENCODING 21513
SWIDTH 1120 0
DWIDTH 14 0
BBX 11 11 0 -2
BITMAP
0400
0400
FFE0
0400
0400
7FC0
0000
1FC0
1040
1FC0
1040
ENDCHAR
STARTCHAR uni540A
ENCODING 21514
SWIDTH 1120 0
DWIDTH 14 0
BBX 8 10 2 -2
BITMAP
7E
42
7E
10
FF
91
91
91
91
10
ENDCHAR
STARTCHAR uni540C
ENCODING 21516
SWIDTH 1120 0
DWIDTH 14 0
BBX 10 10 1 -2
BITMAP
FFC0
8040
BF40
8040
9E40
9240
9E40
9240
81C0
8000
ENDCHAR
STARTCHAR uni540D
ENCODING 21517
SWIDTH 1120 0
DWIDTH 14 0
BBX 10 10 1 -2
BITMAP
0F80
1100
6200
0C00
0800
3FC0
D040
1040
1FC0
1000
ENDCHAR
STARTCHAR uni540E
ENCODING 21518
SWIDTH 1120 0
DWIDTH 14 0
BBX 11 11 0 -2
BITMAP
00C0
3F00
2000
3FE0
2000
2000
2FC0
4840
4840
8FC0
0800
ENDCHAR
STARTCHAR uni540F
ENCODING 21519
SWIDTH 1120 0
DWIDTH 14 0
BBX 10 11 1 -2
BITMAP
0400
7FC0
0400
7F80
4480
4480
7F80
2800
1800
1400
E3C0
ENDCHAR
STARTCHAR uni5410
ENCODING 21520
SWIDTH 1120 0
DWIDTH 14 0
BBX 10 9 1 -1
BITMAP
0200
E200
A200
AFC0
A200
E200
A200
0200
3FC0
ENDCHAR
STARTCHAR uni5411
ENCODING 21521
SWIDTH 1120 0
DWIDTH 14 0
BBX 10 9 1 -1
BITMAP
0800
FFC0
8040
9E40
9240
9240
9E40
9240
80C0
ENDCHAR
STARTCHAR uni541B
ENCODING 21531
SWIDTH 1120 0
DWIDTH 14 0
BBX 10 10 1 -2
BITMAP
7F00
0900
FFC0
1100
7F00
2100
1F80
7080
9F80
1080
ENDCHAR
STARTCHAR uni541D
ENCODING 21533
SWIDTH 1120 0
DWIDTH 14 0
BBX 10 10 1 -2
BITMAP
0800
FFC0
6200
1400
0800
7780
BF80
2080
3F80
2080
ENDCHAR
STARTCHAR uni541F
ENCODING 21535
SWIDTH 1120 0
DWIDTH 14 0
BBX 9 10 1 -2
BITMAP
E600
A900
A080
A700
E000
BF80
0100
0100
0200
0400
ENDCHAR
STARTCHAR uni5420
ENCODING 21536
SWIDTH 1120 0
DWIDTH 14 0
BBX 12 11 0 -2
BITMAP
0100
F100
9100
9FE0
9100
9100
F280
9280
0440
0820
1010
ENDCHAR
STARTCHAR uni5426
ENCODING 21542
SWIDTH 1120 0
DWIDTH 14 0
BBX 11 10 0 -2
BITMAP
FFE0
0400
0D00
14C0
6420
3FC0
2040
2040
3FC0
2040
ENDCHAR
STARTCHAR uni5429
ENCODING 21545
SWIDTH 1120 0
DWIDTH 14 0
BBX 10 11 1 -2
BITMAP
0E00
0100
E500
A880
B040
EF80
A480
0480
0480
0880
3100
ENDCHAR
STARTCHAR uni542B
ENCODING 21547
SWIDTH 1120 0
DWIDTH 14 0
BBX 10 11 1 -2
BITMAP
0800
1400
2300
DEC0
0000
7E00
0400
7F00
4100
7F00
4100
ENDCHAR
STARTCHAR uni5433
ENCODING 21555
SWIDTH 1120 0
DWIDTH 14 0
BBX 12 11 0 -2
BITMAP
07C0
2440
27C0
2000
3FC0
2440
0440
FFF0
0C00
0B00
70E0
ENDCHAR
STARTCHAR uni5438
ENCODING 21560
SWIDTH 1120 0
DWIDTH 14 0
BBX 10 9 1 -1
BITMAP
EF80
A500
A500
A780
A480
EC80
B500
2300
4EC0
ENDCHAR
STARTCHAR uni5439
ENCODING 21561
SWIDTH 1120 0
DWIDTH 14 0
BBX 10 10 1 -1
BITMAP
0400
E400
A7C0
A880
A500
E500
AC00
1200
2100
C0C0
ENDCHAR
STARTCHAR uni543B
ENCODING 21563
SWIDTH 1120 0
DWIDTH 14 0
BBX 10 10 1 -2
BITMAP
E800
AFC0
B540
B540
A540
EA40
B240
0440
0880
0180
ENDCHAR
STARTCHAR uni543C
ENCODING 21564
SWIDTH 1120 0
DWIDTH 14 0
BBX 10 10 1 -2
BITMAP
1D00
C900
D900
C900
C500
DD00
C500
0500
1940
0080
ENDCHAR
STARTCHAR uni543E
ENCODING 21566
SWIDTH 1120 0
DWIDTH 14 0
BBX 11 10 1 -2
BITMAP
7FC0
0800
3F00
1100
FFE0
0000
3F80
2080
3F80
2080
ENDCHAR
STARTCHAR uni5442
ENCODING 21570
SWIDTH 1120 0
DWIDTH 14 0
BBX 8 10 2 -2
BITMAP
FE
82
82
FE
A2
FF
81
81
FF
80
ENDCHAR
STARTCHAR uni5448
ENCODING 21576
SWIDTH 1120 0
DWIDTH 14 0
BBX 10 9 1 -1
BITMAP
3F00
2100
3F00
0080
7F00
0400
7FC0
0400
FFC0
ENDCHAR
STARTCHAR uni544A
ENCODING 21578
SWIDTH 1120 0
DWIDTH 14 0
BBX 11 11 1 -2
BITMAP
0400
2400
3F80
4400
FFE0
0400
0000
3F80
2080
3F80
2080
ENDCHAR
STARTCHAR uni5451
ENCODING 21585
SWIDTH 1120 0
DWIDTH 14 0
BBX 10 11 1 -2
BITMAP
0300
3C00
0800
FFC0
1400
1200
7F80
2100
2100
3F00
2100
ENDCHAR
STARTCHAR uni5468
ENCODING 21608
SWIDTH 1120 0
DWIDTH 14 0
BBX 9 10 2 -2
BITMAP
7F80
4880
7E80
4880
7E80
4880
7E80
BE80
A280
0180
ENDCHAR
STARTCHAR uni546A
ENCODING 21610
SWIDTH 1120 0
DWIDTH 14 0
BBX 10 10 1 -2
BITMAP
EF80
A880
A880
AF80
EE80
A600
8600
0A40
1240
2180
ENDCHAR
STARTCHAR uni5471
ENCODING 21617
SWIDTH 1120 0
DWIDTH 14 0
BBX 10 9 1 -1
BITMAP
0180
EF00
AB00
AB00
AA80
EA80
AA80
17C0
2040
ENDCHAR
STARTCHAR uni5473
ENCODING 21619
SWIDTH 1120 0
DWIDTH 14 0
BBX 10 11 1 -2
BITMAP
0200
0200
EF80
A200
BFC0
A200
E700
AA80
3240
4200
0200
ENDCHAR
STARTCHAR uni5475
ENCODING 21621
SWIDTH 1120 0
DWIDTH 14 0
BBX 10 9 1 -1
BITMAP
FFC0
A080
AE80
AA80
EA80
AE80
0A80
0080
0380
ENDCHAR
STARTCHAR uni547B
ENCODING 21627
SWIDTH 1120 0
DWIDTH 14 0
BBX 10 11 1 -2
BITMAP
0200
0200
EFC0
AA40
AFC0
AA40
EA40
AFC0
0A40
0200
0200
ENDCHAR
STARTCHAR uni547C
ENCODING 21628
SWIDTH 1120 0
DWIDTH 14 0
BBX 10 9 1 -1
BITMAP
E380
A600
A280
AA00
BFC0
E200
A200
0200
0600
ENDCHAR
STARTCHAR uni547D
ENCODING 21629
SWIDTH 1120 0
DWIDTH 14 0
BBX 10 11 1 -2
BITMAP
0800
1400
2300
C0C0
3E00
0000
7780
5480
7480
5480
0400
ENDCHAR
STARTCHAR uni5480
ENCODING 21632
SWIDTH 1120 0
DWIDTH 14 0
BBX 10 9 1 -1
BITMAP
0F80
E880
AF80
A880
E880
AF80
0880
0880
3FC0
ENDCHAR
STARTCHAR uni5486
ENCODING 21638
SWIDTH 1120 0
DWIDTH 14 0
BBX 10 10 1 -1
BITMAP
0800
F000
AF80
B080
AE80
AA80
EE80
A880
8800
0840
ENDCHAR
STARTCHAR uni548C
ENCODING 21644
SWIDTH 1120 0
DWIDTH 14 0
BBX 10 9 1 -1
BITMAP
3800
13C0
7E40
1240
3A40
5640
9240
13C0
1240
ENDCHAR
STARTCHAR uni548E
ENCODING 21646
SWIDTH 1120 0
DWIDTH 14 0
BBX 10 11 1 -2
BITMAP
2000
3A00
4B00
B080
3800
47C0
0000
3F00
2100
3F00
2100
ENDCHAR
STARTCHAR uni5490
ENCODING 21648
SWIDTH 1120 0
DWIDTH 14 0
BBX 10 11 1 -2
BITMAP
0400
0480
E880
BFC0
A880
AA80
EA80
A880
8880
0880
0100
ENDCHAR
STARTCHAR uni54A4
ENCODING 21668
SWIDTH 1120 0
DWIDTH 14 0
BBX 10 11 1 -2
BITMAP
0200
0200
FFC0
B040
B340
A600
E240
BF80
0200
0200
03C0
ENDCHAR
STARTCHAR uni54A8
ENCODING 21672
SWIDTH 1120 0
DWIDTH 14 0
BBX 10 11 1 -2
BITMAP
0400
C800
0F80
0480
C400
0A00
3F80
6140
2100
3F00
2000
ENDCHAR
STARTCHAR uni54AB
ENCODING 21675
SWIDTH 1120 0
DWIDTH 14 0
BBX 10 10 1 -2
BITMAP
7BC0
4A40
4A40
7BC0
6A40
5080
5240
8800
8400
03C0
ENDCHAR
STARTCHAR uni54AC
ENCODING 21676
SWIDTH 1120 0
DWIDTH 14 0
BBX 10 9 1 -1
BITMAP
E200
BFC0
A000
A880
E900
A600
0200
0D00
30C0
ENDCHAR
STARTCHAR uni54B3
ENCODING 21683
SWIDTH 1120 0
DWIDTH 14 0
BBX 10 10 1 -1
BITMAP
0700
E000
BFC0
A200
A400
E500
A280
0D00
1700
38C0
ENDCHAR
STARTCHAR uni54B8
ENCODING 21688
SWIDTH 1120 0
DWIDTH 14 0
BBX 11 11 0 -2
BITMAP
0200
0240
7FC0
4200
5E00
5E80
5580
5D80
9500
8280
0C60
ENDCHAR
STARTCHAR uni54BD
ENCODING 21693
SWIDTH 1120 0
DWIDTH 14 0
BBX 10 10 1 -2
BITMAP
FFC0
B240
B240
BFC0
B240
F640
B540
18C0
1FC0
1000
ENDCHAR
STARTCHAR uni54C0
ENCODING 21696
SWIDTH 1120 0
DWIDTH 14 0
BBX 11 11 1 -2
BITMAP
0400
0400
FFE0
3F00
2100
3F00
0C00
1500
F200
1580
6800
ENDCHAR
STARTCHAR uni54C1
ENCODING 21697
SWIDTH 1120 0
DWIDTH 14 0
BBX 10 10 1 -2
BITMAP
3F00
2100
3F00
2100
0000
FBC0
8A40
8A40
FBC0
8240
ENDCHAR
STARTCHAR uni54C4
ENCODING 21700
SWIDTH 1120 0
DWIDTH 14 0
BBX 10 10 1 -1
BITMAP
0100
0500
E500
BFC0
A500
A500
FFC0
A000
0900
10C0
ENDCHAR
STARTCHAR uni54C8
ENCODING 21704
SWIDTH 1120 0
DWIDTH 14 0
BBX 10 11 1 -2
BITMAP
0200
0600
E900
A8C0
A000
A780
EF80
A880
0880
0F80
0880
ENDCHAR
STARTCHAR uni54C9
ENCODING 21705
SWIDTH 1120 0
DWIDTH 14 0
BBX 12 11 0 -2
BITMAP
1100
1100
7D40
1100
FFF0
0100
7D00
44C0
7C80
4750
0C20
ENDCHAR
STARTCHAR uni54E1
ENCODING 21729
SWIDTH 1120 0
DWIDTH 14 0
BBX 10 11 1 -2
BITMAP
3F00
2100
3F00
0000
7F80
7F80
4080
7F80
7F80
2100
C0C0
ENDCHAR
STARTCHAR uni54E5
ENCODING 21733
SWIDTH 1120 0
DWIDTH 14 0
BBX 11 10 0 -2
BITMAP
7FE0
3E80
2280
3E80
FFE0
0080
3E80
2280
3E80
2300
ENDCHAR
STARTCHAR uni54E8
ENCODING 21736
SWIDTH 1120 0
DWIDTH 14 0
BBX 9 10 1 -2
BITMAP
0A00
EA80
A200
AF80
AF80
E880
8F80
0880
0880
0100
ENDCHAR
STARTCHAR uni54ED
ENCODING 21741
SWIDTH 1120 0
DWIDTH 14 0
BBX 11 11 0 -2
BITMAP
7FE0
4620
4620
7FE0
0480
FFE0
0400
0A00
1100
2080
C060
ENDCHAR
STARTCHAR uni54EE
ENCODING 21742
SWIDTH 1120 0
DWIDTH 14 0
BBX 10 11 1 -2
BITMAP
0200
E280
AF00
BFC0
A200
EF00
A600
1FC0
2200
0200
0C00
ENDCHAR
STARTCHAR uni54F2
ENCODING 21746
SWIDTH 1120 0
DWIDTH 14 0
BBX 12 12 0 -3
BITMAP
1000
11C0
7E00
11F0
FA40
1240
0440
1FC0
1040
1040
1FC0
1000
ENDCHAR
STARTCHAR uni54FA
ENCODING 21754
SWIDTH 1120 0
DWIDTH 14 0
BBX 10 10 1 -2
BITMAP
E280
BFC0
BFC0
B240
BFC0
F240
BFC0
1240
1240
12C0
ENDCHAR
STARTCHAR uni5504
ENCODING 21764
SWIDTH 1120 0
DWIDTH 14 0
BBX 10 9 1 -1
BITMAP
EF80
A880
AF80
A880
AF80
E880
AF80
0C80
1040
ENDCHAR
STARTCHAR uni5506
ENCODING 21766
SWIDTH 1120 0
DWIDTH 14 0
BBX 10 10 1 -2
BITMAP
E480
BF80
A500
A9C0
E000
A780
0C80
1300
0300
1CC0
ENDCHAR
STARTCHAR uni5507
ENCODING 21767
SWIDTH 1120 0
DWIDTH 14 0
BBX 10 11 1 -2
BITMAP
7FC0
4000
5F80
7FC0
9200
9180
BC80
3F80
2080
3F80
0080
ENDCHAR
STARTCHAR uni550E
ENCODING 21774
SWIDTH 1120 0
DWIDTH 14 0
BBX 10 11 1 -2
BITMAP
0440
1940
E940
BF40
A940
BD40
FB40
A940
0840
0840
0080
ENDCHAR
STARTCHAR uni5510
ENCODING 21776
SWIDTH 1120 0
DWIDTH 14 0
BBX 10 10 1 -2
BITMAP
7FC0
8400
9F80
BFC0
8480
BF80
BF80
A080
3F80
0080
ENDCHAR
STARTCHAR uni551C
ENCODING 21788
SWIDTH 1120 0
DWIDTH 14 0
BBX 10 10 1 -1
BITMAP
0800
FF80
FF80
1C00
6B00
0880
FC00
8F00
8C40
FF80
ENDCHAR
STARTCHAR uni552F
ENCODING 21807
SWIDTH 1120 0
DWIDTH 14 0
BBX 10 11 1 -2
BITMAP
0100
EA00
AFC0
BA00
AA00
AF80
EA00
AF80
0A00
0FC0
0800
ENDCHAR
STARTCHAR uni5531
ENCODING 21809
SWIDTH 1120 0
DWIDTH 14 0
BBX 10 10 1 -2
BITMAP
EF80
AF80
A880
AF80
A000
EFC0
AFC0
0840
0FC0
0800
ENDCHAR
STARTCHAR uni5535
ENCODING 21813
SWIDTH 1120 0
DWIDTH 14 0
BBX 10 10 1 -2
BITMAP
0200
FFC0
A500
AA80
BFC0
EF80
AA80
0F80
0200
01C0
ENDCHAR
STARTCHAR uni553E
ENCODING 21822
SWIDTH 1120 0
DWIDTH 14 0
BBX 10 9 1 -1
BITMAP
FF80
A200
BFC0
AA80
BFC0
EA80
BFC0
0200
1FC0
ENDCHAR
STARTCHAR uni5544
ENCODING 21828
SWIDTH 1120 0
DWIDTH 14 0
BBX 11 9 0 -1
BITMAP
0FE0
E100
A700
A140
A780
ED80
A2C0
04A0
0B80
ENDCHAR
STARTCHAR uni5546
ENCODING 21830
SWIDTH 1120 0
DWIDTH 14 0
BBX 10 9 1 -2
BITMAP
FFC0
1200
FFC0
9440
A740
9E40
9240
9E40
9280
ENDCHAR
STARTCHAR uni554F
ENCODING 21839
SWIDTH 1120 0
DWIDTH 14 0
BBX 10 10 1 -2
BITMAP
FBC0
FBC0
8A40
FBC0
9E40
9240
9240
9E40
9240
80C0
ENDCHAR
STARTCHAR uni5553
ENCODING 21843
SWIDTH 1120 0
DWIDTH 14 0
BBX 10 11 1 -2
BITMAP
5C00
6000
7BC0
4C80
7B00
8100
8E80
BF00
2100
3F00
2100
ENDCHAR
STARTCHAR uni5556
ENCODING 21846
SWIDTH 1120 0
DWIDTH 14 0
BBX 10 9 1 -1
BITMAP
0280
EA00
A300
A480
AA40
EA80
AB00
0480
1840
ENDCHAR
STARTCHAR uni555E
ENCODING 21854
SWIDTH 1120 0
DWIDTH 14 0
BBX 10 9 1 -1
BITMAP
FF80
A600
BF80
B080
F080
BF80
1680
0600
3FC0
ENDCHAR
STARTCHAR uni5563
ENCODING 21859
SWIDTH 1120 0
DWIDTH 14 0
BBX 10 10 1 -1
BITMAP
0800
E800
B7C0
A540
BF40
A540
F740
B540
15C0
3900
ENDCHAR
STARTCHAR uni557C
ENCODING 21884
SWIDTH 1120 0
DWIDTH 14 0
BBX 10 11 1 -2
BITMAP
0700
0000
FFC0
A000
A500
BFC0
FFC0
AA80
0A80
0B80
0200
ENDCHAR
STARTCHAR uni5580
ENCODING 21888
SWIDTH 1120 0
DWIDTH 14 0
BBX 9 11 1 -2
BITMAP
0400
E400
BF80
B480
AF00
BA00
EE00
9F80
0900
0F00
0900
ENDCHAR
STARTCHAR uni5584
ENCODING 21892
SWIDTH 1120 0
DWIDTH 14 0
BBX 11 11 0 -2
BITMAP
0100
0A00
7FC0
3F80
0400
FFE0
FFE0
0000
1F80
1F80
0080
ENDCHAR
STARTCHAR uni5586
ENCODING 21894
SWIDTH 1120 0
DWIDTH 14 0
BBX 10 11 1 -2
BITMAP
0100
2100
FFC0
2100
2100
FFC0
FFC0
8C40
8C40
FFC0
8440
ENDCHAR
STARTCHAR uni5587
ENCODING 21895
SWIDTH 1120 0
DWIDTH 14 0
BBX 10 10 1 -1
BITMAP
0800
FF40
A940
BF40
BB40
BB40
FF40
AD40
3A40
0840
ENDCHAR
STARTCHAR uni5589
ENCODING 21897
SWIDTH 1120 0
DWIDTH 14 0
BBX 11 11 1 -2
BITMAP
0800
CB80
D080
D7E0
F000
D7C0
D7C0
D100
1280
1440
1000
ENDCHAR
STARTCHAR uni558A
ENCODING 21898
SWIDTH 1120 0
DWIDTH 14 0
BBX 10 11 1 -2
BITMAP
0200
0280
FFC0
B200
BE00
BE80
FB00
BF00
2900
26C0
4000
ENDCHAR
STARTCHAR uni5598
ENCODING 21912
SWIDTH 1120 0
DWIDTH 14 0
BBX 10 11 1 -2
BITMAP
0A80
EA80
AF80
A000
AFC0
A200
EFC0
AD40
0D40
0D40
08C0
ENDCHAR
STARTCHAR uni5599
ENCODING 21913
SWIDTH 1120 0
DWIDTH 14 0
BBX 10 11 1 -2
BITMAP
0400
0700
EF00
A200
BFC0
A500
FB40
AE80
0700
1A80
2640
ENDCHAR
STARTCHAR uni559A
ENCODING 21914
SWIDTH 1120 0
DWIDTH 14 0
BBX 10 11 1 -2
BITMAP
0400
EF00
B200
BF80
BA80
F280
B480
3FC0
0400
0B00
70C0
ENDCHAR
STARTCHAR uni559C
ENCODING 21916
SWIDTH 1120 0
DWIDTH 14 0
BBX 12 11 0 -2
BITMAP
0400
7FE0
3FC0
0000
3FC0
3FC0
FFF0
0000
3FC0
3FC0
0040
ENDCHAR
STARTCHAR uni559D
ENCODING 21917
SWIDTH 1120 0
DWIDTH 14 0
BBX 10 10 1 -2
BITMAP
EF80
A880
AF80
A400
AFC0
F940
AB40
0840
0E40
0180
ENDCHAR
STARTCHAR uni55A7
ENCODING 21927
SWIDTH 1120 0
DWIDTH 14 0
BBX 10 9 1 -1
BITMAP
E200
BFC0
B740
B040
AF80
EF80
A880
0F80
1FC0
ENDCHAR
STARTCHAR uni55A9
ENCODING 21929
SWIDTH 1120 0
DWIDTH 14 0
BBX 10 11 1 -2
BITMAP
0E00
C500
C880
C700
C000
DD00
DE80
1680
1680
1540
1000
ENDCHAR
STARTCHAR uni55AA
ENCODING 21930
SWIDTH 1120 0
DWIDTH 14 0
BBX 10 11 1 -2
BITMAP
0800
FF80
0800
7B80
7B80
0800
FFC0
2800
2600
7A00
01C0
ENDCHAR
STARTCHAR uni55AB
ENCODING 21931
SWIDTH 1120 0
DWIDTH 14 0
BBX 10 11 1 -2
BITMAP
0800
FDC0
A8C0
BCC0
A940
FEC0
AC00
7FC0
0600
1900
60C0
ENDCHAR
STARTCHAR uni55AC
ENCODING 21932
SWIDTH 1120 0
DWIDTH 14 0
BBX 10 11 1 -2
BITMAP
0300
7C00
FFC0
2200
3F00
DEC0
7F80
4080
5E80
5E80
0180
ENDCHAR
STARTCHAR uni55AE
ENCODING 21934
SWIDTH 1120 0
DWIDTH 14 0
BBX 11 11 0 -2
BITMAP
3FC0
2640
3FC0
0000
3FC0
3FC0
2440
3FC0
FFE0
0400
0400
ENDCHAR
STARTCHAR uni55C5
ENCODING 21957
SWIDTH 1120 0
DWIDTH 14 0
BBX 10 10 1 -1
BITMAP
0200
0F80
EF80
A880
AF80
AF80
E080
BFC0
8600
39C0
ENDCHAR
STARTCHAR uni55C7
ENCODING 21959
SWIDTH 1120 0
DWIDTH 14 0
BBX 11 10 1 -1
BITMAP
0400
7FC0
2500
6500
0480
FFE0
7F80
5E80
5E80
7F80
ENDCHAR
STARTCHAR uni55D4
ENCODING 21972
SWIDTH 1120 0
DWIDTH 14 0
BBX 10 9 1 -1
BITMAP
0B40
EFC0
A780
B480
B780
F780
B780
9FC0
0C40
ENDCHAR
STARTCHAR uni55DA
ENCODING 21978
SWIDTH 1120 0
DWIDTH 14 0
BBX 10 11 1 -2
BITMAP
0200
0F80
E880
AF80
A800
EFC0
AFC0
0840
0940
0840
0180
ENDCHAR
STARTCHAR uni55DC
ENCODING 21980
SWIDTH 1120 0
DWIDTH 14 0
BBX 10 11 1 -2
BITMAP
0480
FF00
A600
BFC0
A480
BF00
E7C0
AF80
0F80
0F80
0880
ENDCHAR
STARTCHAR uni55DF
ENCODING 21983
SWIDTH 1120 0
DWIDTH 14 0
BBX 11 10 1 -1
BITMAP
0080
E500
BFC0
A200
AF80
BFC0
E800
AB80
1100
27E0
ENDCHAR
STARTCHAR uni55E3
ENCODING 21987
SWIDTH 1120 0
DWIDTH 14 0
BBX 10 10 1 -2
BITMAP
7BC0
7BC0
0040
FFC0
B6C0
FEC0
B7C0
B6C0
B440
0CC0
ENDCHAR
STARTCHAR uni55E4
ENCODING 21988
SWIDTH 1120 0
DWIDTH 14 0
BBX 10 11 1 -2
BITMAP
0200
0A80
EA80
BFC0
A200
EF80
AA80
0F80
0200
03C0
1C40
ENDCHAR
STARTCHAR uni55FD
ENCODING 22013
SWIDTH 1120 0
DWIDTH 14 0
BBX 11 11 0 -2
BITMAP
0400
FF80
A480
BEE0
B6A0
B6A0
FE80
AD80
1740
2620
0400
ENDCHAR
STARTCHAR uni55FE
ENCODING 22014
SWIDTH 1120 0
DWIDTH 14 0
BBX 10 9 1 -1
BITMAP
E800
BDC0
AA00
AF80
B500
F7C0
B700
2A80
5C40
ENDCHAR
STARTCHAR uni5606
ENCODING 22022
SWIDTH 1120 0
DWIDTH 14 0
BBX 10 11 1 -2
BITMAP
0100
1FC0
E500
A700
BFC0
FFC0
BFC0
0200
3FC0
0500
38C0
ENDCHAR
STARTCHAR uni5609
ENCODING 22025
SWIDTH 1120 0
DWIDTH 14 0
BBX 10 11 1 -2
BITMAP
0800
FFC0
7F80
0000
7F80
7F80
FFC0
23C0
FA40
4BC0
9A40
ENDCHAR
STARTCHAR uni5614
ENCODING 22036
SWIDTH 1120 0
DWIDTH 14 0
BBX 10 10 1 -2
BITMAP
1FC0
F780
B480
B780
FFC0
BB40
1FC0
1000
1FC0
1000
ENDCHAR
STARTCHAR uni5617
ENCODING 22039
SWIDTH 1120 0
DWIDTH 14 0
BBX 10 12 1 -3
BITMAP
2500
0400
FFC0
BF40
7F00
4040
7F80
7F80
7F80
4080
7F80
4000
ENDCHAR
STARTCHAR uni562F
ENCODING 22063
SWIDTH 1120 0
DWIDTH 14 0
BBX 11 11 0 -2
BITMAP
0200
FFC0
BFE0
BFC0
AEA0
AEE0
EA20
8FE0
0EE0
16A0
2220
ENDCHAR
STARTCHAR uni5632
ENCODING 22066
SWIDTH 1120 0
DWIDTH 14 0
BBX 10 11 1 -2
BITMAP
0800
FFC0
A940
BF40
BF40
B340
FF40
BF40
0A40
0A40
02C0
ENDCHAR
STARTCHAR uni5634
ENCODING 22068
SWIDTH 1120 0
DWIDTH 14 0
BBX 10 11 1 -2
BITMAP
0900
1D80
D900
F9C0
CE00
CF80
CA80
CF80
0F80
1080
1180
ENDCHAR
STARTCHAR uni5636
ENCODING 22070
SWIDTH 1120 0
DWIDTH 14 0
BBX 10 10 1 -1
BITMAP
0400
15C0
FF00
D500
DDC0
DD80
D580
FF80
1580
2280
ENDCHAR
STARTCHAR uni5653
ENCODING 22099
SWIDTH 1120 0
DWIDTH 14 0
BBX 11 11 1 -2
BITMAP
0200
03C0
FFC0
B240
B780
F3C0
B500
2D80
2D80
4500
3FE0
ENDCHAR
STARTCHAR uni5668
ENCODING 22120
SWIDTH 1120 0
DWIDTH 14 0
BBX 10 10 1 -2
BITMAP
7380
5380
7000
0800
FFC0
2200
7780
D4C0
7780
0080
ENDCHAR
STARTCHAR uni566B
ENCODING 22123
SWIDTH 1120 0
DWIDTH 14 0
BBX 10 10 1 -1
BITMAP
0F00
0000
DF80
DFC0
C000
DF80
DF80
1F80
0A40
0F00
ENDCHAR
STARTCHAR uni5674
ENCODING 22132
SWIDTH 1120 0
DWIDTH 14 0
BBX 11 11 1 -2
BITMAP
0200
FFC0
AA80
BDE0
A880
BF80
FF80
BF80
1F80
0100
30C0
ENDCHAR
STARTCHAR uni5686
ENCODING 22150
SWIDTH 1120 0
DWIDTH 14 0
BBX 10 11 1 -2
BITMAP
0500
FFC0
A700
BFC0
AF00
EF00
BFC0
1740
1940
1740
00C0
ENDCHAR
STARTCHAR uni56A5
ENCODING 22181
SWIDTH 1120 0
DWIDTH 14 0
BBX 10 9 1 -1
BITMAP
0A00
FFC0
CE00
DF00
CF80
DF00
C7C0
1480
0640
ENDCHAR
STARTCHAR uni56AC
ENCODING 22188
SWIDTH 1120 0
DWIDTH 14 0
BBX 10 10 1 -2
BITMAP
05C0
D7C0
D540
FFC0
C940
E9C0
CD40
0DC0
0A40
1000
ENDCHAR
ENDFONT
